{
copyright = "Copyright (c) 2006-2012, Raph Levien (firstname.lastname@gmail.com), Copyright (c) 2011-2012, Cyreal (cyreal.org)";
customParameters = (
{
name = glyphOrder;
value = (
    ".notdef",
    NULL,
    uni000D,
    space,
    exclam,
    quotedbl,
    numbersign,
    dollar,
    percent,
    ampersand,
    quotesingle,
    parenleft,
    parenright,
    asterisk,
    plus,
    comma,
    hyphen,
    period,
    slash,
    zero,
    one,
    two,
    three,
    four,
    five,
    six,
    seven,
    eight,
    nine,
    colon,
    semicolon,
    less,
    equal,
    greater,
    question,
    at,
    A,
    B,
    C,
    D,
    E,
    F,
    G,
    H,
    I,
    J,
    K,
    L,
    M,
    N,
    O,
    P,
    Q,
    R,
    S,
    T,
    U,
    V,
    W,
    X,
    Y,
    Z,
    bracketleft,
    backslash,
    bracketright,
    asciicircum,
    underscore,
    a,
    b,
    c,
    d,
    e,
    f,
    g,
    h,
    i,
    j,
    k,
    l,
    m,
    n,
    o,
    p,
    q,
    r,
    s,
    t,
    u,
    v,
    w,
    x,
    y,
    z,
    braceleft,
    bar,
    braceright,
    asciitilde,
    uni00A0,
    exclamdown,
    cent,
    sterling,
    currency,
    yen,
    brokenbar,
    section,
    dieresis,
    copyright,
    ordfeminine,
    guillemotleft,
    logicalnot,
    softhyphen,
    registered,
    macron,
    degree,
    plusminus,
    uni00B2,
    uni00B3,
    acute,
    micro,
    paragraph,
    periodcentered,
    cedilla,
    uni00B9,
    ordmasculine,
    guillemotright,
    onequarter,
    onehalf,
    threequarters,
    questiondown,
    Agrave,
    Aacute,
    Acircumflex,
    Atilde,
    Adieresis,
    Aring,
    AE,
    Ccedilla,
    Egrave,
    Eacute,
    Ecircumflex,
    Edieresis,
    Igrave,
    Iacute,
    Icircumflex,
    Idieresis,
    Eth,
    Ntilde,
    Ograve,
    Oacute,
    Ocircumflex,
    Otilde,
    Odieresis,
    multiply,
    Oslash,
    Ugrave,
    Uacute,
    Ucircumflex,
    Udieresis,
    Yacute,
    Thorn,

glyphs = (
{
glyphname = exclam;
layers = (
{
layerId = "55D69AED-E863-4611-8C8F-E227C62A7D68";
name = Regular;
paths = (
{
closed = 1;
nodes = (
"293 77 OFFCURVE",
"299 63 OFFCURVE",
"299 47 CURVE SMOOTH",
"299 16 OFFCURVE",
"271 -11 OFFCURVE",
"239 -11 CURVE SMOOTH",
"207 -11 OFFCURVE",
"180 15 OFFCURVE",
"180 47 CURVE SMOOTH",
"180 79 OFFCURVE",
"207 107 OFFCURVE",
"239 107 CURVE SMOOTH",
"255 107 OFFCURVE",
"269 101 OFFCURVE",
"281 89 CURVE SMOOTH"
);
},
{
closed = 1;
nodes = (
"272 668 OFFCURVE",
"292 644 OFFCURVE",
"292 584 CURVE SMOOTH",
"292 569 OFFCURVE",
"291 549 OFFCURVE",
"288 522 CURVE SMOOTH",
"283 470 LINE",
"265 194 LINE",
"215 194 LINE",
"200 470 LINE SMOOTH",
"199 491 OFFCURVE",
"197 516 OFFCURVE",
"195 538 CURVE SMOOTH",
"194 549 OFFCURVE",
"193 559 OFFCURVE",
"192 569 CURVE SMOOTH",
"191 579 OFFCURVE",
"190 587 OFFCURVE",
"190 594 CURVE SMOOTH",
"190 641 OFFCURVE",
"209 668 OFFCURVE",
"241 668 CURVE SMOOTH"
);
}
);
width = 500;
}
);
unicode = 0021;
},
{
glyphname = quotedbl;
layers = (
{
layerId = "55D69AED-E863-4611-8C8F-E227C62A7D68";
name = Regular;
paths = (
{
closed = 1;
nodes = (
"309 611 LINE",
"309 648 OFFCURVE",
"329 666 OFFCURVE",
"352 666 CURVE SMOOTH",
"375 666 OFFCURVE",
"397 647 OFFCURVE",
"397 603 CURVE SMOOTH",
"397 582 OFFCURVE",
"386 541 OFFCURVE",
"363 478 CURVE SMOOTH",
"339 412 LINE",
"284 425 LINE",
"306 493 LINE SMOOTH",
"312 513 OFFCURVE",
"315 531 OFFCURVE",
"315 548 CURVE"
);
},
{
closed = 1;
nodes = (
"136 611 LINE",
"136 648 OFFCURVE",
"156 666 OFFCURVE",
"179 666 CURVE SMOOTH",
"202 666 OFFCURVE",
"224 647 OFFCURVE",
"224 603 CURVE SMOOTH",
"224 580 OFFCURVE",
"213 539 OFFCURVE",
"191 478 CURVE SMOOTH",
"167 412 LINE",
"111 425 LINE",
"133 493 LINE SMOOTH",
"140 513 OFFCURVE",
"143 531 OFFCURVE",
"143 548 CURVE"
);
}
);
width = 500;
}
);
unicode = 0022;
},
{
glyphname = numbersign;
layers = (
{
layerId = "55D69AED-E863-4611-8C8F-E227C62A7D68";
name = Regular;
paths = (
{
closed = 1;
nodes = (
"173 624 LINE",
"234 626 LINE",
"213 455 LINE",
"323 455 LINE",
"343 622 LINE",
"405 623 LINE",
"385 457 LINE",
"476 457 LINE",
"470 410 LINE",
"379 410 LINE",
"358 241 LINE",
"457 241 LINE",
"452 196 LINE",
"353 196 LINE",
"331 14 LINE",
"270 10 LINE",
"292 193 LINE",
"181 193 LINE",
"160 14 LINE",
"101 13 LINE",
"122 191 LINE",
"25 191 LINE",
"29 236 LINE",
"128 236 LINE",
"148 407 LINE",
"39 407 LINE",
"42 453 LINE",
"153 453 LINE"
);
},
{
closed = 1;
nodes = (
"207 408 LINE",
"187 238 LINE",
"297 238 LINE",
"318 408 LINE"
);
}
);
width = 500;
}
);
unicode = 0023;
},
{
glyphname = dollar;
layers = (
{
layerId = "55D69AED-E863-4611-8C8F-E227C62A7D68";
name = Regular;
paths = (
{
closed = 1;
nodes = (
"235 651 LINE",
"299 651 LINE",
"300 650 OFFCURVE",
"300 649 OFFCURVE",
"300 648 CURVE SMOOTH",
"300 647 OFFCURVE",
"299 645 OFFCURVE",
"297 642 CURVE SMOOTH",
"295 639 OFFCURVE",
"294 635 OFFCURVE",
"293 630 CURVE",
"293 592 LINE",
"356 585 OFFCURVE",
"405 559 OFFCURVE",
"442 515 CURVE",
"399 461 LINE",
"396 462 OFFCURVE",
"394 465 OFFCURVE",
"394 470 CURVE",
"393 475 OFFCURVE",
"391 479 OFFCURVE",
"388 482 CURVE",
"365 509 OFFCURVE",
"333 526 OFFCURVE",
"293 533 CURVE",
"293 340 LINE",
"350 321 OFFCURVE",
"392 302 OFFCURVE",
"420 278 CURVE",
"447 253 OFFCURVE",
"460 222 OFFCURVE",
"460 181 CURVE SMOOTH",
"460 142 OFFCURVE",
"444 106 OFFCURVE",
"416 76 CURVE SMOOTH",
"387 46 OFFCURVE",
"345 23 OFFCURVE",
"293 16 CURVE",
"293 -47 LINE",
"235 -47 LINE",
"235 14 LINE",
"163 19 OFFCURVE",
"105 46 OFFCURVE",
"60 94 CURVE",
"103 154 LINE",
"106 152 OFFCURVE",
"107 149 OFFCURVE",
"107 144 CURVE SMOOTH",
"107 139 OFFCURVE",
"108 136 OFFCURVE",
"110 133 CURVE",
"143 97 OFFCURVE",
"185 77 OFFCURVE",
"235 72 CURVE",
"235 292 LINE",
"131 327 OFFCURVE",
"79 373 OFFCURVE",
"79 446 CURVE SMOOTH",
"79 482 OFFCURVE",
"95 516 OFFCURVE",
"123 541 CURVE SMOOTH",
"150 566 OFFCURVE",
"188 584 OFFCURVE",
"235 591 CURVE"
);
},
{
closed = 1;
nodes = (
"293 74 LINE",
"357 86 OFFCURVE",
"395 130 OFFCURVE",
"395 177 CURVE SMOOTH",
"395 225 OFFCURVE",
"365 250 OFFCURVE",
"293 273 CURVE"
);
},
{
closed = 1;
nodes = (
"235 534 LINE",
"175 527 OFFCURVE",
"145 493 OFFCURVE",
"145 454 CURVE SMOOTH",
"145 416 OFFCURVE",
"175 385 OFFCURVE",
"235 361 CURVE"
);
}
);
width = 500;
}
);
unicode = 0024;
},
{
glyphname = percent;
layers = (
{
layerId = "55D69AED-E863-4611-8C8F-E227C62A7D68";
name = Regular;
paths = (
{
closed = 1;
nodes = (
"391 623 LINE",
"458 623 LINE",
"110 0 LINE",
"46 0 LINE"
);
},
{
closed = 1;
nodes = (
"28 540 OFFCURVE",
"41 573 OFFCURVE",
"61 597 CURVE SMOOTH",
"81 620 OFFCURVE",
"109 634 OFFCURVE",
"140 634 CURVE SMOOTH",
"171 634 OFFCURVE",
"199 620 OFFCURVE",
"219 596 CURVE SMOOTH",
"239 572 OFFCURVE",
"252 539 OFFCURVE",
"252 503 CURVE SMOOTH",
"252 427 OFFCURVE",
"204 373 OFFCURVE",
"140 373 CURVE SMOOTH",
"109 373 OFFCURVE",
"81 387 OFFCURVE",
"61 411 CURVE SMOOTH",
"41 434 OFFCURVE",
"28 467 OFFCURVE",
"28 504 CURVE SMOOTH"
);
},
{
closed = 1;
nodes = (
"189 561 OFFCURVE",
"163 582 OFFCURVE",
"138 582 CURVE SMOOTH",
"114 582 OFFCURVE",
"89 561 OFFCURVE",
"89 504 CURVE SMOOTH",
"89 448 OFFCURVE",
"115 426 OFFCURVE",
"140 426 CURVE SMOOTH",
"165 426 OFFCURVE",
"189 447 OFFCURVE",
"189 504 CURVE SMOOTH"
);
},
{
closed = 1;
nodes = (
"402 249 OFFCURVE",
"430 235 OFFCURVE",
"450 211 CURVE SMOOTH",
"470 187 OFFCURVE",
"482 155 OFFCURVE",
"482 119 CURVE SMOOTH",
"482 83 OFFCURVE",
"469 50 OFFCURVE",
"449 27 CURVE SMOOTH",
"429 4 OFFCURVE",
"402 -10 OFFCURVE",
"371 -10 CURVE SMOOTH",
"340 -10 OFFCURVE",
"312 4 OFFCURVE",
"292 27 CURVE SMOOTH",
"272 50 OFFCURVE",
"259 83 OFFCURVE",
"259 119 CURVE SMOOTH",
"259 155 OFFCURVE",
"272 188 OFFCURVE",
"292 212 CURVE SMOOTH",
"312 235 OFFCURVE",
"340 249 OFFCURVE",
"371 249 CURVE SMOOTH"
);
},
{
closed = 1;
nodes = (
"395 192 OFFCURVE",
"383 198 OFFCURVE",
"370 198 CURVE SMOOTH",
"343 198 OFFCURVE",
"318 176 OFFCURVE",
"318 120 CURVE SMOOTH",
"318 63 OFFCURVE",
"345 40 OFFCURVE",
"372 40 CURVE SMOOTH",
"399 40 OFFCURVE",
"423 65 OFFCURVE",
"423 118 CURVE SMOOTH",
"423 145 OFFCURVE",
"417 166 OFFCURVE",
"406 179 CURVE SMOOTH"
);
}
);
width = 500;
}
);
unicode = 0025;
},
{
glyphname = ampersand;
layers = (
{
layerId = "55D69AED-E863-4611-8C8F-E227C62A7D68";
name = Regular;
paths = (
{
closed = 1;
nodes = (
"412 274 LINE",
"412 278 OFFCURVE",
"413 281 OFFCURVE",
"416 284 CURVE",
"481 239 LINE",
"458 199 OFFCURVE",
"433 160 OFFCURVE",
"405 123 CURVE",
"475 32 LINE",
"416 -12 LINE",
"361 76 LINE",
"320 24 OFFCURVE",
"257 -10 OFFCURVE",
"192 -10 CURVE SMOOTH",
"147 -10 OFFCURVE",
"108 7 OFFCURVE",
"80 35 CURVE SMOOTH",
"52 62 OFFCURVE",
"36 100 OFFCURVE",
"36 141 CURVE SMOOTH",
"36 225 OFFCURVE",
"86 300 OFFCURVE",
"162 343 CURVE",
"115 400 OFFCURVE",
"91 452 OFFCURVE",
"91 498 CURVE SMOOTH",
"91 535 OFFCURVE",
"107 568 OFFCURVE",
"132 592 CURVE SMOOTH",
"156 615 OFFCURVE",
"191 629 OFFCURVE",
"228 629 CURVE SMOOTH",
"268 629 OFFCURVE",
"302 613 OFFCURVE",
"326 589 CURVE SMOOTH",
"350 564 OFFCURVE",
"363 531 OFFCURVE",
"363 498 CURVE SMOOTH",
"363 465 OFFCURVE",
"352 431 OFFCURVE",
"333 401 CURVE SMOOTH",
"313 371 OFFCURVE",
"287 345 OFFCURVE",
"255 330 CURVE",
"367 173 LINE",
"386 196 OFFCURVE",
"409 233 OFFCURVE",
"413 262 CURVE"
);
},
{
closed = 1;
nodes = (
"160 465 OFFCURVE",
"180 424 OFFCURVE",
"221 373 CURVE",
"269 396 OFFCURVE",
"297 448 OFFCURVE",
"297 492 CURVE SMOOTH",
"297 536 OFFCURVE",
"265 570 OFFCURVE",
"229 570 CURVE SMOOTH",
"192 570 OFFCURVE",
"160 541 OFFCURVE",
"160 497 CURVE SMOOTH"
);
},
{
closed = 1;
nodes = (
"197 296 LINE",
"144 263 OFFCURVE",
"112 204 OFFCURVE",
"112 152 CURVE SMOOTH",
"112 124 OFFCURVE",
"122 101 OFFCURVE",
"138 83 CURVE SMOOTH",
"154 65 OFFCURVE",
"175 54 OFFCURVE",
"199 54 CURVE SMOOTH",
"220 54 OFFCURVE",
"244 62 OFFCURVE",
"264 72 CURVE SMOOTH",
"283 82 OFFCURVE",
"300 95 OFFCURVE",
"309 106 CURVE",
"324 123 LINE"
);
}
);
width = 500;
}
);
unicode = 0026;
},
{
glyphname = quotesingle;
layers = (
{
layerId = "55D69AED-E863-4611-8C8F-E227C62A7D68";
name = Regular;
paths = (
{
closed = 1;
nodes = (
"231 611 LINE",
"231 648 OFFCURVE",
"251 666 OFFCURVE",
"274 666 CURVE SMOOTH",
"297 666 OFFCURVE",
"319 647 OFFCURVE",
"319 603 CURVE",
"318 580 OFFCURVE",
"309 539 OFFCURVE",
"286 478 CURVE SMOOTH",
"261 412 LINE",
"206 425 LINE",
"228 493 LINE SMOOTH",
"235 513 OFFCURVE",
"238 531 OFFCURVE",
"238 548 CURVE"
);
}
);
width = 500;
}
);
unicode = 0027;
},
{
glyphname = parenleft;
layers = (
{
layerId = "55D69AED-E863-4611-8C8F-E227C62A7D68";
name = Regular;
paths = (
{
closed = 1;
nodes = (
"403 604 LINE",
"401 604 OFFCURVE",
"398 603 OFFCURVE",
"394 601 CURVE",
"277 532 OFFCURVE",
"208 408 OFFCURVE",
"208 256 CURVE SMOOTH",
"208 181 OFFCURVE",
"229 108 OFFCURVE",
"266 42 CURVE SMOOTH",
"303 -24 OFFCURVE",
"358 -81 OFFCURVE",
"425 -120 CURVE",
"393 -173 LINE",
"313 -132 OFFCURVE",
"250 -70 OFFCURVE",
"207 5 CURVE SMOOTH",
"163 80 OFFCURVE",
"139 167 OFFCURVE",
"139 258 CURVE SMOOTH",
"139 349 OFFCURVE",
"163 433 OFFCURVE",
"207 505 CURVE SMOOTH",
"251 576 OFFCURVE",
"313 631 OFFCURVE",
"392 666 CURVE",
"422 605 LINE",
"418 604 OFFCURVE",
"415 603 OFFCURVE",
"414 603 CURVE"
);
}
);
width = 500;
}
);
unicode = 0028;
},
{
glyphname = parenright;
layers = (
{
layerId = "55D69AED-E863-4611-8C8F-E227C62A7D68";
name = Regular;
paths = (
{
closed = 1;
nodes = (
"97 665 LINE",
"177 628 OFFCURVE",
"246 568 OFFCURVE",
"292 496 CURVE SMOOTH",
"338 423 OFFCURVE",
"364 338 OFFCURVE",
"364 250 CURVE SMOOTH",
"364 161 OFFCURVE",
"337 75 OFFCURVE",
"290 1 CURVE SMOOTH",
"242 -73 OFFCURVE",
"174 -135 OFFCURVE",
"91 -174 CURVE",
"72 -114 LINE",
"140 -78 OFFCURVE",
"194 -26 OFFCURVE",
"233 38 CURVE SMOOTH",
"272 101 OFFCURVE",
"293 172 OFFCURVE",
"293 247 CURVE SMOOTH",
"293 322 OFFCURVE",
"271 394 OFFCURVE",
"234 455 CURVE SMOOTH",
"197 516 OFFCURVE",
"142 568 OFFCURVE",
"78 603 CURVE"
);
}
);
width = 500;
}
);
unicode = 0029;
},
{
glyphname = asterisk;
layers = (
{
layerId = "55D69AED-E863-4611-8C8F-E227C62A7D68";
name = Regular;
paths = (
{
closed = 1;
nodes = (
"213 519 LINE",
"294 519 LINE",
"293 515 OFFCURVE",
"292 511 OFFCURVE",
"291 506 CURVE SMOOTH",
"290 501 OFFCURVE",
"289 496 OFFCURVE",
"288 492 CURVE",
"273 342 LINE",
"432 414 LINE",
"458 353 LINE",
"287 301 LINE",
"413 150 LINE",
"358 107 LINE",
"250 273 LINE",
"138 106 LINE",
"84 150 LINE",
"214 300 LINE",
"41 353 LINE",
"67 418 LINE",
"229 342 LINE"
);
}
);
width = 500;
}
);
unicode = 002A;
},
{
glyphname = plus;
layers = (
{
layerId = "55D69AED-E863-4611-8C8F-E227C62A7D68";
name = Regular;
paths = (
{
closed = 1;
nodes = (
"222 523 LINE",
"285 523 LINE",
"285 352 LINE",
"456 352 LINE",
"456 291 LINE",
"285 291 LINE",
"285 104 LINE",
"222 104 LINE",
"222 291 LINE",
"45 291 LINE",
"45 352 LINE",
"222 352 LINE"
);
}
);
width = 500;
}
);
unicode = 002B;
},
{
glyphname = comma;
layers = (
{
layerId = "55D69AED-E863-4611-8C8F-E227C62A7D68";
name = Regular;
paths = (
{
closed = 1;
nodes = (
"306 -33 OFFCURVE",
"270 -95 OFFCURVE",
"199 -168 CURVE",
"165 -138 LINE",
"202 -103 OFFCURVE",
"230 -58 OFFCURVE",
"230 -33 CURVE SMOOTH",
"230 -20 OFFCURVE",
"217 -9 OFFCURVE",
"205 2 CURVE",
"192 13 OFFCURVE",
"179 27 OFFCURVE",
"179 44 CURVE SMOOTH",
"179 77 OFFCURVE",
"203 103 OFFCURVE",
"238 103 CURVE SMOOTH",
"273 103 OFFCURVE",
"306 69 OFFCURVE",
"306 20 CURVE SMOOTH"
);
}
);
width = 500;
}
);
unicode = 002C;
},
{
glyphname = hyphen;
layers = (
{
layerId = "55D69AED-E863-4611-8C8F-E227C62A7D68";
name = Regular;
paths = (
{
closed = 1;
nodes = (
"71 348 LINE",
"431 348 LINE",
"431 281 LINE",
"71 281 LINE"
);
}
);
width = 500;
}
);
unicode = 002D;
},
{
glyphname = period;
layers = (
{
layerId = "55D69AED-E863-4611-8C8F-E227C62A7D68";
name = Regular;
paths = (
{
closed = 1;
nodes = (
"292 75 OFFCURVE",
"298 61 OFFCURVE",
"298 46 CURVE SMOOTH",
"298 15 OFFCURVE",
"271 -11 OFFCURVE",
"238 -11 CURVE SMOOTH",
"205 -11 OFFCURVE",
"179 14 OFFCURVE",
"179 46 CURVE SMOOTH",
"179 78 OFFCURVE",
"207 104 OFFCURVE",
"238 104 CURVE SMOOTH",
"253 104 OFFCURVE",
"267 98 OFFCURVE",
"280 87 CURVE"
);
}
);
width = 500;
}
);
unicode = 002E;
},
{
glyphname = slash;
layers = (
{
layerId = "55D69AED-E863-4611-8C8F-E227C62A7D68";
name = Regular;
paths = (
{
closed = 1;
nodes = (
"64 -13 LINE",
"377 665 LINE",
"437 634 LINE",
"123 -42 LINE"
);
}
);
width = 500;
}
);
unicode = 002F;
},
{
glyphname = zero;
layers = (
{
layerId = "55D69AED-E863-4611-8C8F-E227C62A7D68";
name = Regular;
paths = (
{
closed = 1;
nodes = (
"425 492 OFFCURVE",
"450 405 OFFCURVE",
"450 301 CURVE SMOOTH",
"450 196 OFFCURVE",
"425 118 OFFCURVE",
"387 66 CURVE SMOOTH",
"349 14 OFFCURVE",
"298 -11 OFFCURVE",
"249 -11 CURVE SMOOTH",
"198 -11 OFFCURVE",
"148 21 OFFCURVE",
"111 77 CURVE SMOOTH",
"74 132 OFFCURVE",
"50 211 OFFCURVE",
"50 306 CURVE SMOOTH",
"50 401 OFFCURVE",
"74 481 OFFCURVE",
"111 538 CURVE SMOOTH",
"148 594 OFFCURVE",
"198 627 OFFCURVE",
"249 627 CURVE SMOOTH",
"301 627 OFFCURVE",
"347 599 OFFCURVE",
"386 544 CURVE SMOOTH"
);
},
{
closed = 1;
nodes = (
"349 485 LINE",
"322 538 OFFCURVE",
"286 566 OFFCURVE",
"250 566 CURVE SMOOTH",
"217 566 OFFCURVE",
"182 541 OFFCURVE",
"157 498 CURVE SMOOTH",
"132 455 OFFCURVE",
"115 392 OFFCURVE",
"115 319 CURVE SMOOTH",
"115 278 OFFCURVE",
"120 238 OFFCURVE",
"129 201 CURVE"
);
},
{
closed = 1;
nodes = (
"152 138 LINE",
"184 78 OFFCURVE",
"220 53 OFFCURVE",
"255 53 CURVE SMOOTH",
"291 53 OFFCURVE",
"323 76 OFFCURVE",
"347 117 CURVE SMOOTH",
"370 158 OFFCURVE",
"385 218 OFFCURVE",
"385 293 CURVE SMOOTH",
"385 340 OFFCURVE",
"381 381 OFFCURVE",
"372 418 CURVE"
);
}
);
width = 500;
}
);
unicode = 0030;
},
{
glyphname = one;
layers = (
{
layerId = "55D69AED-E863-4611-8C8F-E227C62A7D68";
name = Regular;
paths = (
{
closed = 1;
nodes = (
"299 624 LINE",
"299 0 LINE",
"230 0 LINE",
"230 537 LINE",
"104 500 LINE",
"88 539 LINE",
"251 624 LINE"
);
}
);
width = 500;
}
);
unicode = 0031;
},
{
glyphname = two;
layers = (
{
layerId = "55D69AED-E863-4611-8C8F-E227C62A7D68";
name = Regular;
paths = (
{
closed = 1;
nodes = (
"78 526 LINE",
"114 590 OFFCURVE",
"180 627 OFFCURVE",
"252 627 CURVE SMOOTH",
"301 627 OFFCURVE",
"347 608 OFFCURVE",
"380 576 CURVE SMOOTH",
"413 544 OFFCURVE",
"433 500 OFFCURVE",
"433 452 CURVE SMOOTH",
"433 413 OFFCURVE",
"421 379 OFFCURVE",
"402 348 CURVE SMOOTH",
"383 316 OFFCURVE",
"358 287 OFFCURVE",
"331 263 CURVE SMOOTH",
"271 207 LINE SMOOTH",
"254 191 OFFCURVE",
"231 168 OFFCURVE",
"211 143 CURVE SMOOTH",
"190 118 OFFCURVE",
"169 89 OFFCURVE",
"154 61 CURVE",
"415 61 LINE SMOOTH",
"418 61 OFFCURVE",
"422 63 OFFCURVE",
"426 66 CURVE",
"429 69 OFFCURVE",
"433 70 OFFCURVE",
"436 70 CURVE SMOOTH",
"439 70 LINE",
"439 0 LINE",
"73 0 LINE",
"73 44 LINE",
"122 141 OFFCURVE",
"183 211 OFFCURVE",
"236 259 CURVE SMOOTH",
"284 303 LINE SMOOTH",
"317 334 OFFCURVE",
"337 359 OFFCURVE",
"349 383 CURVE SMOOTH",
"361 407 OFFCURVE",
"364 428 OFFCURVE",
"364 451 CURVE SMOOTH",
"364 480 OFFCURVE",
"352 509 OFFCURVE",
"330 531 CURVE SMOOTH",
"308 553 OFFCURVE",
"279 566 OFFCURVE",
"250 566 CURVE SMOOTH",
"215 566 OFFCURVE",
"188 555 OFFCURVE",
"168 541 CURVE SMOOTH",
"147 527 OFFCURVE",
"134 510 OFFCURVE",
"133 498 CURVE",
"132 492 OFFCURVE",
"130 488 OFFCURVE",
"129 486 CURVE"
);
}
);
width = 500;
}
);
unicode = 0032;
},
{
glyphname = three;
layers = (
{
layerId = "55D69AED-E863-4611-8C8F-E227C62A7D68";
name = Regular;
paths = (
{
closed = 1;
nodes = (
"411 407 OFFCURVE",
"374 353 OFFCURVE",
"318 332 CURVE",
"382 309 OFFCURVE",
"425 246 OFFCURVE",
"425 171 CURVE SMOOTH",
"425 122 OFFCURVE",
"407 76 OFFCURVE",
"373 43 CURVE SMOOTH",
"339 10 OFFCURVE",
"289 -11 OFFCURVE",
"226 -11 CURVE SMOOTH",
"165 -11 OFFCURVE",
"112 13 OFFCURVE",
"69 60 CURVE",
"122 123 LINE",
"125 120 OFFCURVE",
"127 116 OFFCURVE",
"128 110 CURVE SMOOTH",
"129 103 OFFCURVE",
"132 98 OFFCURVE",
"135 94 CURVE",
"149 81 LINE",
"160 70 OFFCURVE",
"197 53 OFFCURVE",
"232 53 CURVE SMOOTH",
"268 53 OFFCURVE",
"299 67 OFFCURVE",
"322 91 CURVE SMOOTH",
"345 114 OFFCURVE",
"358 146 OFFCURVE",
"358 181 CURVE SMOOTH",
"358 253 OFFCURVE",
"299 298 OFFCURVE",
"211 298 CURVE SMOOTH",
"200 298 OFFCURVE",
"191 297 OFFCURVE",
"180 296 CURVE",
"180 352 LINE",
"241 352 OFFCURVE",
"282 366 OFFCURVE",
"308 387 CURVE SMOOTH",
"334 408 OFFCURVE",
"344 438 OFFCURVE",
"344 471 CURVE SMOOTH",
"344 495 OFFCURVE",
"333 518 OFFCURVE",
"314 535 CURVE SMOOTH",
"295 551 OFFCURVE",
"268 563 OFFCURVE",
"236 563 CURVE SMOOTH",
"193 563 OFFCURVE",
"158 547 OFFCURVE",
"129 515 CURVE",
"90 558 LINE",
"131 603 OFFCURVE",
"180 625 OFFCURVE",
"239 625 CURVE SMOOTH",
"287 625 OFFCURVE",
"330 607 OFFCURVE",
"361 578 CURVE SMOOTH",
"392 549 OFFCURVE",
"411 510 OFFCURVE",
"411 467 CURVE SMOOTH"
);
}
);
width = 500;
}
);
unicode = 0033;
},
{
glyphname = four;
layers = (
{
layerId = "55D69AED-E863-4611-8C8F-E227C62A7D68";
name = Regular;
paths = (
{
closed = 1;
nodes = (
"313 624 LINE",
"372 624 LINE",
"372 234 LINE",
"452 234 LINE",
"452 172 LINE",
"372 172 LINE",
"372 0 LINE",
"299 0 LINE",
"299 173 LINE",
"48 173 LINE",
"48 224 LINE"
);
},
{
closed = 1;
nodes = (
"300 513 LINE",
"117 234 LINE",
"300 234 LINE"
);
}
);
width = 500;
}
);
unicode = 0034;
},
{
glyphname = five;
layers = (
{
layerId = "55D69AED-E863-4611-8C8F-E227C62A7D68";
name = Regular;
paths = (
{
closed = 1;
nodes = (
"106 623 LINE",
"422 623 LINE",
"422 560 LINE",
"165 560 LINE",
"155 381 LINE",
"188 397 OFFCURVE",
"222 405 OFFCURVE",
"257 405 CURVE SMOOTH",
"310 405 OFFCURVE",
"358 385 OFFCURVE",
"392 349 CURVE SMOOTH",
"426 312 OFFCURVE",
"445 260 OFFCURVE",
"445 196 CURVE SMOOTH",
"445 132 OFFCURVE",
"424 80 OFFCURVE",
"389 44 CURVE SMOOTH",
"353 8 OFFCURVE",
"305 -11 OFFCURVE",
"249 -11 CURVE SMOOTH",
"173 -11 OFFCURVE",
"105 24 OFFCURVE",
"64 85 CURVE",
"126 131 LINE",
"129 129 OFFCURVE",
"131 125 OFFCURVE",
"132 119 CURVE",
"132 113 OFFCURVE",
"132 109 OFFCURVE",
"133 108 CURVE",
"138 99 OFFCURVE",
"152 84 OFFCURVE",
"173 72 CURVE SMOOTH",
"193 60 OFFCURVE",
"221 50 OFFCURVE",
"253 50 CURVE SMOOTH",
"285 50 OFFCURVE",
"316 65 OFFCURVE",
"338 90 CURVE SMOOTH",
"360 115 OFFCURVE",
"374 152 OFFCURVE",
"374 199 CURVE SMOOTH",
"374 246 OFFCURVE",
"360 283 OFFCURVE",
"337 308 CURVE SMOOTH",
"313 333 OFFCURVE",
"282 347 OFFCURVE",
"246 347 CURVE SMOOTH",
"203 347 OFFCURVE",
"160 325 OFFCURVE",
"129 288 CURVE",
"85 306 LINE"
);
}
);
width = 500;
}
);
unicode = 0035;
},
{
glyphname = six;
layers = (
{
layerId = "55D69AED-E863-4611-8C8F-E227C62A7D68";
name = Regular;
paths = (
{
closed = 1;
nodes = (
"339 630 OFFCURVE",
"385 611 OFFCURVE",
"424 573 CURVE",
"375 520 LINE",
"369 525 OFFCURVE",
"365 531 OFFCURVE",
"363 538 CURVE",
"361 544 OFFCURVE",
"356 548 OFFCURVE",
"349 551 CURVE",
"329 564 OFFCURVE",
"308 568 OFFCURVE",
"289 568 CURVE SMOOTH",
"262 568 OFFCURVE",
"224 558 OFFCURVE",
"193 523 CURVE SMOOTH",
"162 488 OFFCURVE",
"137 427 OFFCURVE",
"136 327 CURVE",
"164 374 OFFCURVE",
"215 402 OFFCURVE",
"268 402 CURVE SMOOTH",
"315 402 OFFCURVE",
"357 382 OFFCURVE",
"389 346 CURVE SMOOTH",
"420 310 OFFCURVE",
"439 259 OFFCURVE",
"439 198 CURVE SMOOTH",
"439 137 OFFCURVE",
"419 84 OFFCURVE",
"387 48 CURVE SMOOTH",
"355 11 OFFCURVE",
"310 -10 OFFCURVE",
"261 -10 CURVE SMOOTH",
"198 -10 OFFCURVE",
"150 18 OFFCURVE",
"118 69 CURVE SMOOTH",
"85 120 OFFCURVE",
"67 193 OFFCURVE",
"67 284 CURVE SMOOTH",
"67 396 OFFCURVE",
"88 482 OFFCURVE",
"127 541 CURVE SMOOTH",
"166 600 OFFCURVE",
"220 630 OFFCURVE",
"287 630 CURVE SMOOTH"
);
},
{
closed = 1;
nodes = (
"139 253 OFFCURVE",
"139 249 OFFCURVE",
"139 245 CURVE SMOOTH",
"139 241 OFFCURVE",
"139 237 OFFCURVE",
"139 233 CURVE SMOOTH",
"139 181 OFFCURVE",
"152 136 OFFCURVE",
"175 104 CURVE SMOOTH",
"198 72 OFFCURVE",
"229 52 OFFCURVE",
"264 52 CURVE SMOOTH",
"321 52 OFFCURVE",
"371 102 OFFCURVE",
"371 197 CURVE SMOOTH",
"371 248 OFFCURVE",
"356 283 OFFCURVE",
"336 307 CURVE",
"315 330 OFFCURVE",
"287 341 OFFCURVE",
"262 341 CURVE SMOOTH",
"214 341 OFFCURVE",
"167 304 OFFCURVE",
"140 257 CURVE"
);
}
);
width = 500;
}
);
unicode = 0036;
},
{
glyphname = seven;
layers = (
{
layerId = "55D69AED-E863-4611-8C8F-E227C62A7D68";
name = Regular;
paths = (
{
closed = 1;
nodes = (
"432 584 LINE",
"348 392 OFFCURVE",
"275 200 OFFCURVE",
"214 0 CURVE",
"135 0 LINE",
"199 191 OFFCURVE",
"268 373 OFFCURVE",
"345 557 CURVE",
"79 557 LINE",
"79 623 LINE",
"432 623 LINE"
);
}
);
width = 500;
}
);
unicode = 0037;
},
{
glyphname = eight;
layers = (
{
layerId = "55D69AED-E863-4611-8C8F-E227C62A7D68";
name = Regular;
paths = (
{
closed = 1;
nodes = (
"420 423 OFFCURVE",
"381 365 OFFCURVE",
"321 333 CURVE",
"393 300 OFFCURVE",
"441 233 OFFCURVE",
"441 161 CURVE SMOOTH",
"441 113 OFFCURVE",
"420 70 OFFCURVE",
"386 39 CURVE SMOOTH",
"352 8 OFFCURVE",
"303 -10 OFFCURVE",
"250 -10 CURVE SMOOTH",
"197 -10 OFFCURVE",
"149 9 OFFCURVE",
"115 39 CURVE SMOOTH",
"81 69 OFFCURVE",
"60 110 OFFCURVE",
"60 157 CURVE SMOOTH",
"60 229 OFFCURVE",
"109 296 OFFCURVE",
"185 331 CURVE",
"128 360 OFFCURVE",
"90 417 OFFCURVE",
"90 477 CURVE SMOOTH",
"90 520 OFFCURVE",
"108 558 OFFCURVE",
"139 586 CURVE SMOOTH",
"170 614 OFFCURVE",
"210 631 OFFCURVE",
"257 631 CURVE SMOOTH",
"304 631 OFFCURVE",
"345 615 OFFCURVE",
"374 588 CURVE",
"402 560 OFFCURVE",
"420 523 OFFCURVE",
"420 483 CURVE SMOOTH"
);
},
{
closed = 1;
nodes = (
"177 278 OFFCURVE",
"132 224 OFFCURVE",
"132 164 CURVE SMOOTH",
"132 133 OFFCURVE",
"146 106 OFFCURVE",
"168 86 CURVE SMOOTH",
"190 66 OFFCURVE",
"219 53 OFFCURVE",
"252 53 CURVE SMOOTH",
"285 53 OFFCURVE",
"315 65 OFFCURVE",
"336 85 CURVE SMOOTH",
"357 104 OFFCURVE",
"370 130 OFFCURVE",
"370 161 CURVE SMOOTH",
"370 222 OFFCURVE",
"318 278 OFFCURVE",
"237 303 CURVE"
);
},
{
closed = 1;
nodes = (
"190 402 OFFCURVE",
"217 384 OFFCURVE",
"250 367 CURVE SMOOTH",
"267 358 LINE",
"316 385 OFFCURVE",
"352 434 OFFCURVE",
"352 481 CURVE SMOOTH",
"352 505 OFFCURVE",
"342 527 OFFCURVE",
"324 544 CURVE SMOOTH",
"306 561 OFFCURVE",
"281 572 OFFCURVE",
"253 572 CURVE SMOOTH",
"225 572 OFFCURVE",
"201 561 OFFCURVE",
"184 545 CURVE SMOOTH",
"167 529 OFFCURVE",
"157 507 OFFCURVE",
"157 484 CURVE SMOOTH",
"157 464 OFFCURVE",
"163 446 OFFCURVE",
"174 429 CURVE"
);
}
);
width = 500;
}
);
unicode = 0038;
},
{
glyphname = nine;
layers = (
{
layerId = "55D69AED-E863-4611-8C8F-E227C62A7D68";
name = Regular;
paths = (
{
closed = 1;
nodes = (
"164 -10 OFFCURVE",
"118 9 OFFCURVE",
"79 47 CURVE",
"128 100 LINE",
"131 98 OFFCURVE",
"134 94 OFFCURVE",
"137 88 CURVE",
"139 82 OFFCURVE",
"141 78 OFFCURVE",
"144 76 CURVE",
"163 61 OFFCURVE",
"187 53 OFFCURVE",
"215 53 CURVE SMOOTH",
"315 53 OFFCURVE",
"363 124 OFFCURVE",
"368 293 CURVE",
"339 252 OFFCURVE",
"291 226 OFFCURVE",
"239 226 CURVE SMOOTH",
"192 226 OFFCURVE",
"150 246 OFFCURVE",
"119 281 CURVE SMOOTH",
"87 316 OFFCURVE",
"68 365 OFFCURVE",
"68 424 CURVE SMOOTH",
"68 483 OFFCURVE",
"88 534 OFFCURVE",
"121 571 CURVE SMOOTH",
"153 607 OFFCURVE",
"198 629 OFFCURVE",
"247 629 CURVE SMOOTH",
"368 629 OFFCURVE",
"437 530 OFFCURVE",
"437 299 CURVE SMOOTH",
"437 194 OFFCURVE",
"412 117 OFFCURVE",
"372 67 CURVE SMOOTH",
"332 17 OFFCURVE",
"277 -9 OFFCURVE",
"217 -10 CURVE SMOOTH"
);
},
{
closed = 1;
nodes = (
"365 368 OFFCURVE",
"365 374 OFFCURVE",
"365 379 CURVE SMOOTH",
"365 384 OFFCURVE",
"365 389 OFFCURVE",
"365 394 CURVE SMOOTH",
"365 446 OFFCURVE",
"351 490 OFFCURVE",
"330 520 CURVE SMOOTH",
"309 550 OFFCURVE",
"279 567 OFFCURVE",
"250 567 CURVE SMOOTH",
"182 567 OFFCURVE",
"136 513 OFFCURVE",
"136 425 CURVE SMOOTH",
"136 382 OFFCURVE",
"149 348 OFFCURVE",
"169 324 CURVE SMOOTH",
"188 300 OFFCURVE",
"213 287 OFFCURVE",
"240 287 CURVE SMOOTH",
"293 287 OFFCURVE",
"336 316 OFFCURVE",
"364 363 CURVE"
);
}
);
width = 500;
}
);
unicode = 0039;
},
{
glyphname = colon;
layers = (
{
layerId = "55D69AED-E863-4611-8C8F-E227C62A7D68";
name = Regular;
paths = (
{
closed = 1;
nodes = (
"292 394 OFFCURVE",
"298 380 OFFCURVE",
"298 365 CURVE SMOOTH",
"298 334 OFFCURVE",
"270 308 OFFCURVE",
"238 308 CURVE SMOOTH",
"207 308 OFFCURVE",
"179 334 OFFCURVE",
"179 365 CURVE SMOOTH",
"179 397 OFFCURVE",
"207 423 OFFCURVE",
"238 423 CURVE SMOOTH",
"253 423 OFFCURVE",
"267 417 OFFCURVE",
"280 406 CURVE"
);
},
{
closed = 1;
nodes = (
"292 75 OFFCURVE",
"298 61 OFFCURVE",
"298 46 CURVE SMOOTH",
"298 15 OFFCURVE",
"271 -11 OFFCURVE",
"238 -11 CURVE SMOOTH",
"205 -11 OFFCURVE",
"179 14 OFFCURVE",
"179 46 CURVE SMOOTH",
"179 78 OFFCURVE",
"207 104 OFFCURVE",
"238 104 CURVE SMOOTH",
"253 104 OFFCURVE",
"267 98 OFFCURVE",
"280 87 CURVE"
);
}
);
width = 500;
}
);
unicode = 003A;
},
{
glyphname = semicolon;
layers = (
{
layerId = "55D69AED-E863-4611-8C8F-E227C62A7D68";
name = Regular;
paths = (
{
closed = 1;
nodes = (
"306 -33 OFFCURVE",
"270 -95 OFFCURVE",
"199 -168 CURVE",
"165 -138 LINE",
"202 -103 OFFCURVE",
"230 -58 OFFCURVE",
"230 -33 CURVE SMOOTH",
"230 -20 OFFCURVE",
"217 -9 OFFCURVE",
"205 2 CURVE",
"192 13 OFFCURVE",
"179 27 OFFCURVE",
"179 44 CURVE SMOOTH",
"179 77 OFFCURVE",
"203 103 OFFCURVE",
"238 103 CURVE SMOOTH",
"273 103 OFFCURVE",
"306 69 OFFCURVE",
"306 20 CURVE SMOOTH"
);
},
{
closed = 1;
nodes = (
"292 394 OFFCURVE",
"298 380 OFFCURVE",
"298 365 CURVE SMOOTH",
"298 334 OFFCURVE",
"270 308 OFFCURVE",
"238 308 CURVE SMOOTH",
"207 308 OFFCURVE",
"179 334 OFFCURVE",
"179 365 CURVE SMOOTH",
"179 397 OFFCURVE",
"207 423 OFFCURVE",
"238 423 CURVE SMOOTH",
"253 423 OFFCURVE",
"267 417 OFFCURVE",
"280 406 CURVE"
);
}
);
width = 500;
}
);
unicode = 003B;
},
{
glyphname = less;
layers = (
{
layerId = "55D69AED-E863-4611-8C8F-E227C62A7D68";
name = Regular;
paths = (
{
closed = 1;
nodes = (
"458 496 LINE",
"111 319 LINE",
"461 123 LINE",
"461 47 LINE",
"35 296 LINE",
"35 344 LINE",
"458 567 LINE"
);
}
);
width = 500;
}
);
unicode = 003C;
},
{
glyphname = equal;
layers = (
{
layerId = "55D69AED-E863-4611-8C8F-E227C62A7D68";
name = Regular;
paths = (
{
closed = 1;
nodes = (
"45 438 LINE",
"456 438 LINE",
"456 377 LINE",
"45 377 LINE"
);
},
{
closed = 1;
nodes = (
"45 231 LINE",
"456 231 LINE",
"456 170 LINE",
"45 170 LINE"
);
}
);
width = 500;
}
);
unicode = 003D;
},
{
glyphname = greater;
layers = (
{
layerId = "55D69AED-E863-4611-8C8F-E227C62A7D68";
name = Regular;
paths = (
{
closed = 1;
nodes = (
"42 496 LINE",
"42 567 LINE",
"466 344 LINE",
"466 296 LINE",
"40 47 LINE",
"40 123 LINE",
"389 319 LINE"
);
}
);
width = 500;
}
);
unicode = 003E;
},
{
glyphname = question;
layers = (
{
layerId = "55D69AED-E863-4611-8C8F-E227C62A7D68";
name = Regular;
paths = (
{
closed = 1;
nodes = (
"314 72 OFFCURVE",
"320 59 OFFCURVE",
"320 44 CURVE SMOOTH",
"320 13 OFFCURVE",
"293 -13 OFFCURVE",
"261 -13 CURVE SMOOTH",
"229 -13 OFFCURVE",
"202 13 OFFCURVE",
"202 44 CURVE SMOOTH",
"202 75 OFFCURVE",
"229 102 OFFCURVE",
"261 102 CURVE SMOOTH",
"276 102 OFFCURVE",
"290 96 OFFCURVE",
"303 85 CURVE"
);
},
{
closed = 1;
nodes = (
"64 561 LINE",
"107 626 OFFCURVE",
"181 665 OFFCURVE",
"257 665 CURVE SMOOTH",
"310 665 OFFCURVE",
"354 645 OFFCURVE",
"385 613 CURVE SMOOTH",
"416 581 OFFCURVE",
"434 537 OFFCURVE",
"434 489 CURVE SMOOTH",
"434 452 OFFCURVE",
"424 424 OFFCURVE",
"410 401 CURVE SMOOTH",
"396 378 OFFCURVE",
"376 362 OFFCURVE",
"357 346 CURVE SMOOTH",
"335 328 LINE SMOOTH",
"296 297 OFFCURVE",
"292 269 OFFCURVE",
"292 226 CURVE SMOOTH",
"292 185 LINE",
"226 185 LINE",
"226 226 LINE SMOOTH",
"226 254 OFFCURVE",
"227 276 OFFCURVE",
"236 298 CURVE",
"244 320 OFFCURVE",
"261 343 OFFCURVE",
"293 375 CURVE SMOOTH",
"340 422 OFFCURVE",
"355 457 OFFCURVE",
"355 494 CURVE SMOOTH",
"355 523 OFFCURVE",
"344 550 OFFCURVE",
"325 570 CURVE SMOOTH",
"306 589 OFFCURVE",
"281 600 OFFCURVE",
"253 600 CURVE SMOOTH",
"197 600 OFFCURVE",
"146 566 OFFCURVE",
"115 513 CURVE"
);
}
);
width = 500;
}
);
unicode = 003F;
},
{
glyphname = at;
layers = (
{
layerId = "55D69AED-E863-4611-8C8F-E227C62A7D68";
name = Regular;
paths = (
{
closed = 1;
nodes = (
"435 30 LINE",
"392 3 OFFCURVE",
"345 -11 OFFCURVE",
"295 -11 CURVE SMOOTH",
"228 -11 OFFCURVE",
"164 15 OFFCURVE",
"114 68 CURVE SMOOTH",
"64 120 OFFCURVE",
"31 201 OFFCURVE",
"31 313 CURVE SMOOTH",
"31 424 OFFCURVE",
"63 504 OFFCURVE",
"109 556 CURVE SMOOTH",
"155 608 OFFCURVE",
"214 633 OFFCURVE",
"271 633 CURVE SMOOTH",
"327 633 OFFCURVE",
"375 614 OFFCURVE",
"410 573 CURVE SMOOTH",
"445 532 OFFCURVE",
"465 467 OFFCURVE",
"465 378 CURVE SMOOTH",
"465 175 LINE",
"405 175 LINE",
"405 213 LINE",
"379 182 OFFCURVE",
"347 167 OFFCURVE",
"308 167 CURVE SMOOTH",
"269 167 OFFCURVE",
"237 182 OFFCURVE",
"213 206 CURVE SMOOTH",
"189 229 OFFCURVE",
"175 259 OFFCURVE",
"175 291 CURVE SMOOTH",
"175 388 OFFCURVE",
"239 444 OFFCURVE",
"387 444 CURVE SMOOTH",
"402 444 LINE",
"402 481 OFFCURVE",
"387 515 OFFCURVE",
"363 540 CURVE",
"338 564 OFFCURVE",
"304 579 OFFCURVE",
"268 579 CURVE SMOOTH",
"225 579 OFFCURVE",
"181 559 OFFCURVE",
"147 516 CURVE SMOOTH",
"113 473 OFFCURVE",
"89 407 OFFCURVE",
"89 314 CURVE SMOOTH",
"89 223 OFFCURVE",
"116 156 OFFCURVE",
"156 112 CURVE SMOOTH",
"196 68 OFFCURVE",
"249 46 OFFCURVE",
"301 46 CURVE SMOOTH",
"339 46 OFFCURVE",
"375 57 OFFCURVE",
"408 79 CURVE"
);
},
{
closed = 1;
nodes = (
"405 394 LINE",
"388 394 LINE SMOOTH",
"284 394 OFFCURVE",
"237 357 OFFCURVE",
"237 305 CURVE SMOOTH",
"237 254 OFFCURVE",
"274 222 OFFCURVE",
"311 222 CURVE SMOOTH",
"387 222 OFFCURVE",
"405 271 OFFCURVE",
"405 375 CURVE SMOOTH"
);
}
);
width = 500;
}
);
unicode = 0040;
},
{
glyphname = A;
layers = (
{
layerId = "55D69AED-E863-4611-8C8F-E227C62A7D68";
name = Regular;
paths = (
{
closed = 1;
nodes = (
"15 0 LINE",
"235 634 LINE",
"243 634 LINE",
"483 0 LINE",
"411 0 LINE",
"342 182 LINE",
"144 182 LINE",
"84 0 LINE"
);
},
{
closed = 1;
nodes = (
"326 236 LINE",
"238 474 LINE",
"158 236 LINE"
);
}
);
width = 500;
}
);
unicode = 0041;
},
{
glyphname = B;
layers = (
{
layerId = "55D69AED-E863-4611-8C8F-E227C62A7D68";
name = Regular;
paths = (
{
closed = 1;
nodes = (
"48 623 LINE",
"225 623 LINE SMOOTH",
"297 623 OFFCURVE",
"350 609 OFFCURVE",
"382 581 CURVE SMOOTH",
"414 553 OFFCURVE",
"432 516 OFFCURVE",
"432 472 CURVE SMOOTH",
"432 413 OFFCURVE",
"399 355 OFFCURVE",
"340 334 CURVE",
"375 322 OFFCURVE",
"404 299 OFFCURVE",
"425 271 CURVE SMOOTH",
"446 243 OFFCURVE",
"457 210 OFFCURVE",
"457 175 CURVE SMOOTH",
"457 70 OFFCURVE",
"385 0 OFFCURVE",
"224 0 CURVE SMOOTH",
"48 0 LINE"
);
},
{
closed = 1;
nodes = (
"117 564 LINE",
"117 365 LINE",
"215 365 LINE SMOOTH",
"271 365 OFFCURVE",
"306 376 OFFCURVE",
"328 393 CURVE SMOOTH",
"350 410 OFFCURVE",
"359 436 OFFCURVE",
"362 464 CURVE",
"359 492 OFFCURVE",
"350 517 OFFCURVE",
"329 535 CURVE SMOOTH",
"308 553 OFFCURVE",
"275 564 OFFCURVE",
"226 564 CURVE SMOOTH"
);
},
{
closed = 1;
nodes = (
"117 306 LINE",
"117 61 LINE",
"236 61 LINE SMOOTH",
"343 61 OFFCURVE",
"378 111 OFFCURVE",
"383 179 CURVE",
"380 216 OFFCURVE",
"369 247 OFFCURVE",
"345 271 CURVE",
"320 294 OFFCURVE",
"278 306 OFFCURVE",
"219 306 CURVE SMOOTH"
);
}
);
width = 500;
}
);
unicode = 0042;
},
{
glyphname = C;
layers = (
{
layerId = "55D69AED-E863-4611-8C8F-E227C62A7D68";
name = Regular;
paths = (
{
closed = 1;
nodes = (
"398 490 OFFCURVE",
"397 496 OFFCURVE",
"395 500 CURVE",
"368 544 OFFCURVE",
"323 572 OFFCURVE",
"275 572 CURVE SMOOTH",
"230 572 OFFCURVE",
"189 548 OFFCURVE",
"158 504 CURVE SMOOTH",
"127 459 OFFCURVE",
"109 394 OFFCURVE",
"109 313 CURVE SMOOTH",
"109 234 OFFCURVE",
"127 169 OFFCURVE",
"159 123 CURVE SMOOTH",
"190 77 OFFCURVE",
"233 50 OFFCURVE",
"281 50 CURVE SMOOTH",
"330 50 OFFCURVE",
"380 79 OFFCURVE",
"408 126 CURVE",
"460 92 LINE",
"440 59 OFFCURVE",
"411 33 OFFCURVE",
"380 16 CURVE SMOOTH",
"348 -1 OFFCURVE",
"317 -10 OFFCURVE",
"285 -10 CURVE SMOOTH",
"213 -10 OFFCURVE",
"160 14 OFFCURVE",
"114 66 CURVE SMOOTH",
"68 118 OFFCURVE",
"41 197 OFFCURVE",
"41 308 CURVE SMOOTH",
"41 431 OFFCURVE",
"73 511 OFFCURVE",
"121 560 CURVE SMOOTH",
"169 609 OFFCURVE",
"225 628 OFFCURVE",
"276 628 CURVE SMOOTH",
"317 628 OFFCURVE",
"358 615 OFFCURVE",
"392 594 CURVE SMOOTH",
"426 573 OFFCURVE",
"453 542 OFFCURVE",
"469 505 CURVE",
"402 472 LINE",
"399 474 OFFCURVE",
"398 477 OFFCURVE",
"398 482 CURVE SMOOTH"
);
}
);
width = 500;
}
);
unicode = 0043;
},
{
glyphname = D;
layers = (
{
layerId = "55D69AED-E863-4611-8C8F-E227C62A7D68";
name = Regular;
paths = (
{
closed = 1;
nodes = (
"54 623 LINE",
"199 623 LINE SMOOTH",
"306 623 OFFCURVE",
"358 593 OFFCURVE",
"399 538 CURVE SMOOTH",
"440 483 OFFCURVE",
"460 405 OFFCURVE",
"460 308 CURVE SMOOTH",
"460 212 OFFCURVE",
"435 136 OFFCURVE",
"393 82 CURVE SMOOTH",
"351 28 OFFCURVE",
"286 -1 OFFCURVE",
"187 -1 CURVE SMOOTH",
"54 -1 LINE"
);
},
{
closed = 1;
nodes = (
"120 564 LINE",
"120 54 LINE",
"184 54 LINE SMOOTH",
"327 54 OFFCURVE",
"390 143 OFFCURVE",
"390 304 CURVE",
"389 467 OFFCURVE",
"335 564 OFFCURVE",
"195 564 CURVE SMOOTH"
);
}
);
width = 500;
}
);
unicode = 0044;
},
{
glyphname = E;
layers = (
{
layerId = "55D69AED-E863-4611-8C8F-E227C62A7D68";
name = Regular;
paths = (
{
closed = 1;
nodes = (
"59 624 LINE",
"441 624 LINE",
"441 562 LINE",
"125 562 LINE",
"125 357 LINE",
"386 357 LINE",
"386 293 LINE",
"125 293 LINE",
"125 62 LINE",
"438 62 LINE",
"438 0 LINE",
"59 0 LINE"
);
}
);
width = 500;
}
);
unicode = 0045;
},
{
glyphname = F;
layers = (
{
layerId = "55D69AED-E863-4611-8C8F-E227C62A7D68";
name = Regular;
paths = (
{
closed = 1;
nodes = (
"78 624 LINE",
"437 624 LINE",
"437 563 LINE",
"148 563 LINE",
"148 367 LINE",
"381 367 LINE",
"381 306 LINE",
"148 306 LINE",
"148 0 LINE",
"78 0 LINE"
);
}
);
width = 500;
}
);
unicode = 0046;
},
{
glyphname = G;
layers = (
{
layerId = "55D69AED-E863-4611-8C8F-E227C62A7D68";
name = Regular;
paths = (
{
closed = 1;
nodes = (
"409 475 LINE",
"405 478 OFFCURVE",
"401 484 OFFCURVE",
"396 494 CURVE",
"376 538 OFFCURVE",
"332 568 OFFCURVE",
"276 568 CURVE SMOOTH",
"237 568 OFFCURVE",
"194 554 OFFCURVE",
"161 515 CURVE SMOOTH",
"128 476 OFFCURVE",
"105 415 OFFCURVE",
"105 319 CURVE SMOOTH",
"105 232 OFFCURVE",
"123 165 OFFCURVE",
"154 121 CURVE SMOOTH",
"185 76 OFFCURVE",
"228 52 OFFCURVE",
"277 52 CURVE SMOOTH",
"320 52 OFFCURVE",
"360 65 OFFCURVE",
"395 90 CURVE",
"395 238 LINE",
"282 238 LINE",
"282 299 LINE",
"460 299 LINE",
"460 55 LINE",
"401 12 OFFCURVE",
"340 -10 OFFCURVE",
"277 -10 CURVE SMOOTH",
"202 -10 OFFCURVE",
"143 21 OFFCURVE",
"101 76 CURVE SMOOTH",
"59 131 OFFCURVE",
"36 209 OFFCURVE",
"36 304 CURVE SMOOTH",
"36 435 OFFCURVE",
"72 523 OFFCURVE",
"124 569 CURVE SMOOTH",
"176 615 OFFCURVE",
"233 629 OFFCURVE",
"277 629 CURVE SMOOTH",
"353 629 OFFCURVE",
"423 588 OFFCURVE",
"458 525 CURVE"
);
}
);
width = 500;
}
);
unicode = 0047;
},
{
glyphname = H;
layers = (
{
layerId = "55D69AED-E863-4611-8C8F-E227C62A7D68";
name = Regular;
paths = (
{
closed = 1;
nodes = (
"54 623 LINE",
"132 623 LINE",
"133 622 OFFCURVE",
"133 621 OFFCURVE",
"133 620 CURVE SMOOTH",
"133 618 OFFCURVE",
"132 615 OFFCURVE",
"131 612 CURVE",
"129 609 OFFCURVE",
"128 604 OFFCURVE",
"127 599 CURVE",
"127 356 LINE",
"371 356 LINE",
"371 623 LINE",
"447 623 LINE",
"448 622 OFFCURVE",
"448 621 OFFCURVE",
"448 620 CURVE SMOOTH",
"448 617 OFFCURVE",
"447 615 OFFCURVE",
"445 612 CURVE SMOOTH",
"443 609 OFFCURVE",
"442 605 OFFCURVE",
"441 601 CURVE",
"441 -1 LINE",
"370 -1 LINE",
"370 297 LINE",
"127 297 LINE",
"127 0 LINE",
"54 0 LINE"
);
}
);
width = 500;
}
);
unicode = 0048;
},
{
glyphname = I;
layers = (
{
layerId = "55D69AED-E863-4611-8C8F-E227C62A7D68";
name = Regular;
paths = (
{
closed = 1;
nodes = (
"88 623 LINE",
"397 623 LINE",
"397 564 LINE",
"274 564 LINE",
"274 57 LINE",
"403 57 LINE",
"403 -1 LINE",
"81 -1 LINE",
"81 58 LINE",
"204 58 LINE",
"204 564 LINE",
"88 564 LINE"
);
}
);
width = 500;
}
);
unicode = 0049;
},
{
glyphname = J;
layers = (
{
layerId = "55D69AED-E863-4611-8C8F-E227C62A7D68";
name = Regular;
paths = (
{
closed = 1;
nodes = (
"172 623 LINE",
"457 623 LINE",
"457 564 LINE",
"361 564 LINE",
"361 209 LINE SMOOTH",
"361 128 OFFCURVE",
"346 75 OFFCURVE",
"313 39 CURVE SMOOTH",
"280 3 OFFCURVE",
"241 -11 OFFCURVE",
"196 -11 CURVE SMOOTH",
"137 -11 OFFCURVE",
"88 12 OFFCURVE",
"49 58 CURVE",
"96 115 LINE",
"98 113 OFFCURVE",
"99 110 OFFCURVE",
"100 106 CURVE",
"100 101 OFFCURVE",
"101 98 OFFCURVE",
"103 95 CURVE",
"115 83 LINE",
"120 76 OFFCURVE",
"133 69 OFFCURVE",
"149 63 CURVE SMOOTH",
"164 57 OFFCURVE",
"180 51 OFFCURVE",
"196 51 CURVE SMOOTH",
"263 51 OFFCURVE",
"292 92 OFFCURVE",
"292 208 CURVE SMOOTH",
"292 564 LINE",
"172 564 LINE"
);
}
);
width = 500;
}
);
unicode = 004A;
},
{
glyphname = K;
layers = (
{
layerId = "55D69AED-E863-4611-8C8F-E227C62A7D68";
name = Regular;
paths = (
{
closed = 1;
nodes = (
"42 624 LINE",
"126 624 LINE",
"126 620 OFFCURVE",
"125 616 OFFCURVE",
"122 612 CURVE",
"119 607 OFFCURVE",
"117 603 OFFCURVE",
"117 598 CURVE SMOOTH",
"117 336 LINE",
"377 628 LINE",
"392 625 OFFCURVE",
"409 623 OFFCURVE",
"429 623 CURVE SMOOTH",
"455 623 LINE",
"219 354 LINE",
"471 0 LINE",
"381 -4 LINE",
"166 312 LINE",
"117 258 LINE",
"117 0 LINE",
"42 0 LINE"
);
}
);
width = 500;
}
);
unicode = 004B;
},
{
glyphname = L;
layers = (
{
layerId = "55D69AED-E863-4611-8C8F-E227C62A7D68";
name = Regular;
paths = (
{
closed = 1;
nodes = (
"66 623 LINE",
"148 623 LINE",
"148 618 OFFCURVE",
"147 613 OFFCURVE",
"144 607 CURVE SMOOTH",
"141 601 OFFCURVE",
"139 595 OFFCURVE",
"139 589 CURVE SMOOTH",
"139 61 LINE",
"439 61 LINE",
"439 0 LINE",
"66 0 LINE"
);
}
);
width = 500;
}
);
unicode = 004C;
},
{
glyphname = M;
layers = (
{
layerId = "55D69AED-E863-4611-8C8F-E227C62A7D68";
name = Regular;
paths = (
{
closed = 1;
nodes = (
"41 623 LINE",
"96 623 LINE",
"250 318 LINE",
"407 624 LINE",
"460 624 LINE",
"460 0 LINE",
"394 0 LINE",
"394 470 LINE",
"259 219 LINE",
"232 219 LINE",
"106 467 LINE",
"106 0 LINE",
"41 0 LINE"
);
}
);
width = 500;
}
);
unicode = 004D;
},
{
glyphname = N;
layers = (
{
layerId = "55D69AED-E863-4611-8C8F-E227C62A7D68";
name = Regular;
paths = (
{
closed = 1;
nodes = (
"50 0 LINE",
"50 623 LINE",
"118 623 LINE",
"380 161 LINE",
"380 624 LINE",
"454 624 LINE",
"454 620 OFFCURVE",
"453 616 OFFCURVE",
"451 611 CURVE",
"448 606 OFFCURVE",
"447 602 OFFCURVE",
"447 597 CURVE SMOOTH",
"447 0 LINE",
"392 0 LINE",
"117 490 LINE",
"117 0 LINE"
);
}
);
width = 500;
}
);
unicode = 004E;
},
{
glyphname = O;
layers = (
{
layerId = "55D69AED-E863-4611-8C8F-E227C62A7D68";
name = Regular;
paths = (
{
closed = 1;
nodes = (
"186 -10 OFFCURVE",
"130 23 OFFCURVE",
"91 80 CURVE SMOOTH",
"51 136 OFFCURVE",
"29 217 OFFCURVE",
"29 313 CURVE SMOOTH",
"29 409 OFFCURVE",
"52 489 OFFCURVE",
"92 544 CURVE SMOOTH",
"132 599 OFFCURVE",
"189 630 OFFCURVE",
"256 630 CURVE SMOOTH",
"315 630 OFFCURVE",
"366 605 OFFCURVE",
"408 554 CURVE SMOOTH",
"450 502 OFFCURVE",
"471 423 OFFCURVE",
"471 312 CURVE SMOOTH",
"471 192 OFFCURVE",
"443 112 OFFCURVE",
"402 61 CURVE SMOOTH",
"361 10 OFFCURVE",
"307 -10 OFFCURVE",
"254 -10 CURVE SMOOTH"
);
},
{
closed = 1;
nodes = (
"181 78 OFFCURVE",
"216 59 OFFCURVE",
"254 59 CURVE SMOOTH",
"290 59 OFFCURVE",
"326 72 OFFCURVE",
"355 111 CURVE SMOOTH",
"383 150 OFFCURVE",
"401 213 OFFCURVE",
"401 314 CURVE SMOOTH",
"401 413 OFFCURVE",
"380 474 OFFCURVE",
"352 511 CURVE SMOOTH",
"323 548 OFFCURVE",
"292 564 OFFCURVE",
"256 564 CURVE SMOOTH",
"215 565 OFFCURVE",
"181 550 OFFCURVE",
"150 514 CURVE SMOOTH",
"119 478 OFFCURVE",
"98 418 OFFCURVE",
"98 319 CURVE SMOOTH",
"98 227 OFFCURVE",
"119 154 OFFCURVE",
"150 115 CURVE SMOOTH"
);
}
);
width = 500;
}
);
unicode = 004F;
},
{
glyphname = P;
layers = (
{
layerId = "55D69AED-E863-4611-8C8F-E227C62A7D68";
name = Regular;
paths = (
{
closed = 1;
nodes = (
"59 623 LINE",
"259 623 LINE SMOOTH",
"328 623 OFFCURVE",
"376 604 OFFCURVE",
"408 572 CURVE SMOOTH",
"439 539 OFFCURVE",
"453 495 OFFCURVE",
"456 447 CURVE",
"453 399 OFFCURVE",
"439 356 OFFCURVE",
"409 325 CURVE SMOOTH",
"379 294 OFFCURVE",
"332 275 OFFCURVE",
"264 275 CURVE SMOOTH",
"131 275 LINE",
"131 0 LINE",
"59 0 LINE"
);
},
{
closed = 1;
nodes = (
"131 557 LINE",
"131 337 LINE",
"256 337 LINE SMOOTH",
"347 337 OFFCURVE",
"380 380 OFFCURVE",
"384 445 CURVE",
"381 476 OFFCURVE",
"372 504 OFFCURVE",
"352 524 CURVE SMOOTH",
"332 544 OFFCURVE",
"301 557 OFFCURVE",
"257 557 CURVE SMOOTH"
);
}
);
width = 500;
}
);
unicode = 0050;
},
{
glyphname = Q;
layers = (
{
layerId = "55D69AED-E863-4611-8C8F-E227C62A7D68";
name = Regular;
paths = (
{
closed = 1;
nodes = (
"114 475 OFFCURVE",
"97 411 OFFCURVE",
"97 323 CURVE SMOOTH",
"97 243 OFFCURVE",
"111 177 OFFCURVE",
"139 130 CURVE SMOOTH",
"166 83 OFFCURVE",
"208 55 OFFCURVE",
"256 55 CURVE SMOOTH",
"289 55 OFFCURVE",
"327 71 OFFCURVE",
"356 109 CURVE SMOOTH",
"385 147 OFFCURVE",
"404 206 OFFCURVE",
"404 294 CURVE SMOOTH",
"404 406 OFFCURVE",
"384 474 OFFCURVE",
"352 514 CURVE SMOOTH",
"319 554 OFFCURVE",
"283 567 OFFCURVE",
"251 567 CURVE SMOOTH",
"211 567 OFFCURVE",
"176 545 OFFCURVE",
"149 514 CURVE SMOOTH"
);
},
{
closed = 1;
nodes = (
"471 127 OFFCURVE",
"408 20 OFFCURVE",
"287 -7 CURVE",
"290 -51 OFFCURVE",
"305 -82 OFFCURVE",
"361 -82 CURVE SMOOTH",
"364 -82 OFFCURVE",
"370 -82 OFFCURVE",
"377 -81 CURVE SMOOTH",
"384 -80 OFFCURVE",
"392 -80 OFFCURVE",
"401 -79 CURVE",
"410 -79 OFFCURVE",
"418 -79 OFFCURVE",
"426 -78 CURVE SMOOTH",
"433 -77 OFFCURVE",
"439 -77 OFFCURVE",
"442 -77 CURVE",
"440 -145 LINE",
"401 -145 LINE SMOOTH",
"336 -145 OFFCURVE",
"292 -141 OFFCURVE",
"265 -117 CURVE SMOOTH",
"237 -93 OFFCURVE",
"226 -59 OFFCURVE",
"226 -7 CURVE",
"175 0 OFFCURVE",
"127 28 OFFCURVE",
"90 80 CURVE SMOOTH",
"53 132 OFFCURVE",
"29 207 OFFCURVE",
"29 308 CURVE SMOOTH",
"29 433 OFFCURVE",
"61 514 OFFCURVE",
"105 562 CURVE SMOOTH",
"149 610 OFFCURVE",
"204 630 OFFCURVE",
"251 630 CURVE SMOOTH",
"308 630 OFFCURVE",
"362 607 OFFCURVE",
"406 555 CURVE SMOOTH",
"449 502 OFFCURVE",
"471 426 OFFCURVE",
"471 311 CURVE SMOOTH"
);
}
);
width = 500;
}
);
unicode = 0051;
},
{
glyphname = R;
layers = (
{
layerId = "55D69AED-E863-4611-8C8F-E227C62A7D68";
name = Regular;
paths = (
{
closed = 1;
nodes = (
"56 623 LINE",
"240 623 LINE SMOOTH",
"387 623 OFFCURVE",
"447 552 OFFCURVE",
"447 445 CURVE SMOOTH",
"447 409 OFFCURVE",
"435 373 OFFCURVE",
"413 342 CURVE SMOOTH",
"391 311 OFFCURVE",
"359 287 OFFCURVE",
"320 278 CURVE",
"464 0 LINE",
"386 0 LINE",
"248 275 LINE",
"127 275 LINE",
"127 0 LINE",
"56 0 LINE"
);
},
{
closed = 1;
nodes = (
"127 557 LINE",
"127 337 LINE",
"248 337 LINE SMOOTH",
"337 337 OFFCURVE",
"375 380 OFFCURVE",
"375 445 CURVE SMOOTH",
"375 477 OFFCURVE",
"364 504 OFFCURVE",
"345 524 CURVE SMOOTH",
"325 544 OFFCURVE",
"293 557 OFFCURVE",
"248 557 CURVE SMOOTH"
);
}
);
width = 500;
}
);
unicode = 0052;
},
{
glyphname = S;
layers = (
{
layerId = "55D69AED-E863-4611-8C8F-E227C62A7D68";
name = Regular;
paths = (
{
closed = 1;
nodes = (
"391 489 LINE",
"388 490 OFFCURVE",
"386 493 OFFCURVE",
"386 498 CURVE",
"385 502 OFFCURVE",
"384 505 OFFCURVE",
"383 507 CURVE",
"358 544 OFFCURVE",
"315 569 OFFCURVE",
"251 569 CURVE SMOOTH",
"190 569 OFFCURVE",
"144 527 OFFCURVE",
"144 478 CURVE SMOOTH",
"144 449 OFFCURVE",
"154 429 OFFCURVE",
"175 409 CURVE SMOOTH",
"195 389 OFFCURVE",
"234 369 OFFCURVE",
"298 344 CURVE SMOOTH",
"359 319 OFFCURVE",
"398 295 OFFCURVE",
"422 267 CURVE SMOOTH",
"446 239 OFFCURVE",
"455 209 OFFCURVE",
"455 170 CURVE SMOOTH",
"455 127 OFFCURVE",
"440 82 OFFCURVE",
"406 48 CURVE SMOOTH",
"372 14 OFFCURVE",
"320 -10 OFFCURVE",
"247 -10 CURVE SMOOTH",
"166 -10 OFFCURVE",
"101 17 OFFCURVE",
"52 70 CURVE",
"93 142 LINE",
"96 140 OFFCURVE",
"98 137 OFFCURVE",
"98 132 CURVE SMOOTH",
"98 127 OFFCURVE",
"99 124 OFFCURVE",
"101 121 CURVE",
"132 82 OFFCURVE",
"184 53 OFFCURVE",
"257 53 CURVE SMOOTH",
"294 53 OFFCURVE",
"326 67 OFFCURVE",
"349 88 CURVE SMOOTH",
"372 108 OFFCURVE",
"386 138 OFFCURVE",
"386 170 CURVE SMOOTH",
"386 195 OFFCURVE",
"378 216 OFFCURVE",
"358 234 CURVE SMOOTH",
"338 252 OFFCURVE",
"303 268 OFFCURVE",
"243 292 CURVE SMOOTH",
"178 317 OFFCURVE",
"136 343 OFFCURVE",
"109 370 CURVE SMOOTH",
"82 397 OFFCURVE",
"72 427 OFFCURVE",
"72 463 CURVE SMOOTH",
"72 508 OFFCURVE",
"93 550 OFFCURVE",
"127 580 CURVE SMOOTH",
"161 610 OFFCURVE",
"209 627 OFFCURVE",
"262 627 CURVE SMOOTH",
"330 627 OFFCURVE",
"392 598 OFFCURVE",
"435 549 CURVE"
);
}
);
width = 500;
}
);
unicode = 0053;
},
{
glyphname = T;
layers = (
{
layerId = "55D69AED-E863-4611-8C8F-E227C62A7D68";
name = Regular;
paths = (
{
closed = 1;
nodes = (
"31 624 LINE",
"463 624 LINE",
"463 561 LINE",
"279 561 LINE",
"279 0 LINE",
"208 0 LINE",
"208 561 LINE",
"31 561 LINE"
);
}
);
width = 500;
}
);
unicode = 0054;
},
{
glyphname = U;
layers = (
{
layerId = "55D69AED-E863-4611-8C8F-E227C62A7D68";
name = Regular;
paths = (
{
closed = 1;
nodes = (
"50 623 LINE",
"129 623 LINE SMOOTH",
"130 623 OFFCURVE",
"130 622 OFFCURVE",
"130 621 CURVE SMOOTH",
"130 618 OFFCURVE",
"129 615 OFFCURVE",
"126 610 CURVE SMOOTH",
"123 605 OFFCURVE",
"120 598 OFFCURVE",
"119 591 CURVE",
"119 214 LINE SMOOTH",
"119 145 OFFCURVE",
"133 111 OFFCURVE",
"157 87 CURVE SMOOTH",
"181 62 OFFCURVE",
"215 51 OFFCURVE",
"252 48 CURVE",
"289 51 OFFCURVE",
"323 60 OFFCURVE",
"348 86 CURVE SMOOTH",
"372 112 OFFCURVE",
"387 145 OFFCURVE",
"387 217 CURVE SMOOTH",
"387 623 LINE",
"454 623 LINE",
"454 218 LINE SMOOTH",
"454 137 OFFCURVE",
"436 82 OFFCURVE",
"399 45 CURVE SMOOTH",
"362 8 OFFCURVE",
"312 -11 OFFCURVE",
"251 -11 CURVE SMOOTH",
"191 -11 OFFCURVE",
"141 8 OFFCURVE",
"106 44 CURVE SMOOTH",
"70 80 OFFCURVE",
"50 127 OFFCURVE",
"50 215 CURVE SMOOTH"
);
}
);
width = 500;
}
);
unicode = 0055;
},
{
glyphname = V;
layers = (
{
layerId = "55D69AED-E863-4611-8C8F-E227C62A7D68";
name = Regular;
paths = (
{
closed = 1;
nodes = (
"25 624 LINE",
"98 624 LINE",
"258 145 LINE",
"409 623 LINE",
"478 623 LINE",
"269 -4 LINE",
"237 -4 LINE"
);
}
);
width = 500;
}
);
unicode = 0056;
},
{
glyphname = W;
layers = (
{
layerId = "55D69AED-E863-4611-8C8F-E227C62A7D68";
name = Regular;
paths = (
{
closed = 1;
nodes = (
"17 623 LINE",
"82 623 LINE",
"149 202 LINE",
"249 577 LINE",
"271 577 LINE",
"372 200 LINE",
"429 623 LINE",
"488 623 LINE",
"389 -4 LINE",
"362 -4 LINE",
"255 407 LINE",
"146 -4 LINE",
"117 -4 LINE"
);
}
);
width = 500;
}
);
unicode = 0057;
},
{
glyphname = X;
layers = (
{
layerId = "55D69AED-E863-4611-8C8F-E227C62A7D68";
name = Regular;
paths = (
{
closed = 1;
nodes = (
"379 624 LINE",
"449 624 LINE",
"291 319 LINE",
"468 0 LINE",
"389 0 LINE",
"251 247 LINE",
"117 0 LINE",
"41 0 LINE",
"211 318 LINE",
"44 624 LINE",
"119 624 LINE",
"250 387 LINE"
);
}
);
width = 500;
}
);
unicode = 0058;
},
{
glyphname = Y;
layers = (
{
layerId = "55D69AED-E863-4611-8C8F-E227C62A7D68";
name = Regular;
paths = (
{
closed = 1;
nodes = (
"28 623 LINE",
"108 623 LINE",
"261 321 LINE",
"399 623 LINE",
"473 623 LINE",
"296 246 LINE",
"296 0 LINE",
"220 0 LINE",
"220 246 LINE"
);
}
);
width = 500;
}
);
unicode = 0059;
},
{
glyphname = Z;
layers = (
{
layerId = "55D69AED-E863-4611-8C8F-E227C62A7D68";
name = Regular;
paths = (
{
closed = 1;
nodes = (
"62 623 LINE",
"447 623 LINE",
"447 574 LINE",
"138 62 LINE",
"432 62 LINE SMOOTH",
"437 62 OFFCURVE",
"442 63 OFFCURVE",
"448 65 CURVE",
"453 67 OFFCURVE",
"458 68 OFFCURVE",
"463 68 CURVE",
"463 0 LINE",
"50 0 LINE",
"50 49 LINE",
"364 560 LINE",
"62 560 LINE"
);
}
);
width = 500;
}
);
unicode = 005A;
},
{
glyphname = bracketleft;
layers = (
{
layerId = "55D69AED-E863-4611-8C8F-E227C62A7D68";
name = Regular;
paths = (
{
closed = 1;
nodes = (
"131 670 LINE",
"417 670 LINE",
"417 610 LINE",
"195 610 LINE",
"195 -32 LINE",
"418 -32 LINE",
"418 -89 LINE",
"131 -89 LINE"
);
}
);
width = 500;
}
);
unicode = 005B;
},
{
glyphname = backslash;
layers = (
{
layerId = "55D69AED-E863-4611-8C8F-E227C62A7D68";
name = Regular;
paths = (
{
closed = 1;
nodes = (
"437 -13 LINE",
"378 -42 LINE",
"64 634 LINE",
"123 665 LINE"
);
}
);
width = 500;
}
);
unicode = 005C;
},
{
glyphname = bracketright;
layers = (
{
layerId = "55D69AED-E863-4611-8C8F-E227C62A7D68";
name = Regular;
paths = (
{
closed = 1;
nodes = (
"369 670 LINE",
"369 -89 LINE",
"83 -89 LINE",
"83 -32 LINE",
"306 -32 LINE",
"306 610 LINE",
"84 610 LINE",
"84 670 LINE"
);
}
);
width = 500;
}
);
unicode = 005D;
},
{
glyphname = asciicircum;
layers = (
{
layerId = "55D69AED-E863-4611-8C8F-E227C62A7D68";
name = Regular;
paths = (
{
closed = 1;
nodes = (
"93 367 LINE",
"246 623 LINE",
"268 623 LINE",
"403 368 LINE",
"350 343 LINE",
"253 518 LINE",
"143 343 LINE"
);
}
);
width = 500;
}
);
unicode = 005E;
},
{
glyphname = underscore;
layers = (
{
layerId = "55D69AED-E863-4611-8C8F-E227C62A7D68";
name = Regular;
paths = (
{
closed = 1;
nodes = (
"35 -19 LINE",
"466 -19 LINE",
"466 -80 LINE",
"35 -80 LINE"
);
}
);
width = 500;
}
);
unicode = 005F;
},
{
glyphname = a;
layers = (
{
layerId = "55D69AED-E863-4611-8C8F-E227C62A7D68";
name = Regular;
paths = (
{
closed = 1;
nodes = (
"91 403 LINE",
"132 446 OFFCURVE",
"186 467 OFFCURVE",
"254 467 CURVE SMOOTH",
"366 467 OFFCURVE",
"435 415 OFFCURVE",
"435 283 CURVE SMOOTH",
"435 0 LINE",
"367 0 LINE",
"367 50 LINE",
"318 9 OFFCURVE",
"264 -11 OFFCURVE",
"203 -11 CURVE SMOOTH",
"155 -11 OFFCURVE",
"117 5 OFFCURVE",
"90 29 CURVE SMOOTH",
"63 53 OFFCURVE",
"49 85 OFFCURVE",
"49 116 CURVE SMOOTH",
"49 208 OFFCURVE",
"131 264 OFFCURVE",
"280 269 CURVE SMOOTH",
"366 269 LINE",
"366 286 LINE SMOOTH",
"366 377 OFFCURVE",
"329 408 OFFCURVE",
"249 408 CURVE SMOOTH",
"200 408 OFFCURVE",
"159 391 OFFCURVE",
"126 357 CURVE"
);
},
{
closed = 1;
nodes = (
"369 214 LINE",
"352 214 LINE SMOOTH",
"343 214 OFFCURVE",
"334 214 OFFCURVE",
"326 215 CURVE",
"317 215 OFFCURVE",
"309 215 OFFCURVE",
"301 215 CURVE SMOOTH",
"228 215 OFFCURVE",
"183 204 OFFCURVE",
"156 187 CURVE SMOOTH",
"129 170 OFFCURVE",
"121 147 OFFCURVE",
"121 122 CURVE SMOOTH",
"121 79 OFFCURVE",
"163 44 OFFCURVE",
"218 44 CURVE SMOOTH",
"258 44 OFFCURVE",
"290 59 OFFCURVE",
"314 77 CURVE SMOOTH",
"338 95 OFFCURVE",
"352 115 OFFCURVE",
"359 130 CURVE",
"366 143 OFFCURVE",
"369 161 OFFCURVE",
"369 184 CURVE SMOOTH"
);
}
);
width = 500;
}
);
unicode = 0061;
},
{
glyphname = b;
layers = (
{
layerId = "55D69AED-E863-4611-8C8F-E227C62A7D68";
name = Regular;
paths = (
{
closed = 1;
nodes = (
"60 665 LINE",
"144 665 LINE",
"144 663 LINE SMOOTH",
"144 660 OFFCURVE",
"142 657 OFFCURVE",
"139 654 CURVE",
"135 651 OFFCURVE",
"133 647 OFFCURVE",
"133 643 CURVE SMOOTH",
"133 387 LINE",
"162 436 OFFCURVE",
"217 468 OFFCURVE",
"269 468 CURVE SMOOTH",
"320 468 OFFCURVE",
"366 449 OFFCURVE",
"401 410 CURVE SMOOTH",
"436 370 OFFCURVE",
"457 312 OFFCURVE",
"457 233 CURVE SMOOTH",
"457 150 OFFCURVE",
"433 90 OFFCURVE",
"397 50 CURVE SMOOTH",
"361 9 OFFCURVE",
"314 -11 OFFCURVE",
"266 -11 CURVE SMOOTH",
"210 -11 OFFCURVE",
"162 16 OFFCURVE",
"131 60 CURVE",
"106 0 LINE",
"60 0 LINE"
);
},
{
closed = 1;
nodes = (
"210 57 OFFCURVE",
"230 53 OFFCURVE",
"247 53 CURVE SMOOTH",
"274 53 OFFCURVE",
"308 62 OFFCURVE",
"336 87 CURVE SMOOTH",
"363 112 OFFCURVE",
"383 154 OFFCURVE",
"383 219 CURVE SMOOTH",
"383 340 OFFCURVE",
"332 406 OFFCURVE",
"239 406 CURVE SMOOTH",
"206 406 OFFCURVE",
"162 380 OFFCURVE",
"145 340 CURVE SMOOTH",
"137 320 OFFCURVE",
"133 287 OFFCURVE",
"133 242 CURVE SMOOTH",
"133 186 OFFCURVE",
"135 149 OFFCURVE",
"143 123 CURVE SMOOTH",
"151 97 OFFCURVE",
"164 82 OFFCURVE",
"185 70 CURVE"
);
}
);
width = 500;
}
);
unicode = 0062;
},
{
glyphname = c;
layers = (
{
layerId = "55D69AED-E863-4611-8C8F-E227C62A7D68";
name = Regular;
paths = (
{
closed = 1;
nodes = (
"406 322 LINE",
"403 324 OFFCURVE",
"401 326 OFFCURVE",
"402 329 CURVE",
"402 331 OFFCURVE",
"402 334 OFFCURVE",
"401 338 CURVE SMOOTH",
"400 342 OFFCURVE",
"397 347 OFFCURVE",
"393 353 CURVE SMOOTH",
"389 359 OFFCURVE",
"381 367 OFFCURVE",
"369 377 CURVE SMOOTH",
"346 396 OFFCURVE",
"315 405 OFFCURVE",
"276 405 CURVE SMOOTH",
"237 405 OFFCURVE",
"201 389 OFFCURVE",
"174 359 CURVE SMOOTH",
"147 329 OFFCURVE",
"130 286 OFFCURVE",
"130 234 CURVE SMOOTH",
"130 182 OFFCURVE",
"147 137 OFFCURVE",
"175 105 CURVE SMOOTH",
"203 73 OFFCURVE",
"242 54 OFFCURVE",
"289 54 CURVE SMOOTH",
"335 54 OFFCURVE",
"375 73 OFFCURVE",
"408 110 CURVE",
"450 61 LINE",
"405 13 OFFCURVE",
"349 -11 OFFCURVE",
"283 -11 CURVE SMOOTH",
"218 -11 OFFCURVE",
"161 14 OFFCURVE",
"121 57 CURVE SMOOTH",
"80 100 OFFCURVE",
"56 159 OFFCURVE",
"56 228 CURVE SMOOTH",
"56 296 OFFCURVE",
"80 357 OFFCURVE",
"121 399 CURVE SMOOTH",
"161 441 OFFCURVE",
"219 466 OFFCURVE",
"286 466 CURVE SMOOTH",
"358 466 OFFCURVE",
"420 434 OFFCURVE",
"457 381 CURVE"
);
}
);
width = 500;
}
);
unicode = 0063;
},
{
glyphname = d;
layers = (
{
layerId = "55D69AED-E863-4611-8C8F-E227C62A7D68";
name = Regular;
paths = (
{
closed = 1;
nodes = (
"371 665 LINE",
"448 665 LINE",
"448 661 OFFCURVE",
"446 657 OFFCURVE",
"443 652 CURVE SMOOTH",
"440 647 OFFCURVE",
"438 642 OFFCURVE",
"438 637 CURVE SMOOTH",
"439 42 LINE SMOOTH",
"439 26 OFFCURVE",
"441 12 OFFCURVE",
"444 0 CURVE",
"372 0 LINE",
"369 8 OFFCURVE",
"368 19 OFFCURVE",
"368 34 CURVE SMOOTH",
"368 73 LINE",
"339 22 OFFCURVE",
"283 -10 OFFCURVE",
"231 -10 CURVE SMOOTH",
"180 -10 OFFCURVE",
"135 10 OFFCURVE",
"101 50 CURVE SMOOTH",
"67 90 OFFCURVE",
"45 150 OFFCURVE",
"45 233 CURVE SMOOTH",
"45 317 OFFCURVE",
"70 376 OFFCURVE",
"107 414 CURVE SMOOTH",
"143 452 OFFCURVE",
"190 469 OFFCURVE",
"237 469 CURVE SMOOTH",
"301 469 OFFCURVE",
"348 438 OFFCURVE",
"371 390 CURVE"
);
},
{
closed = 1;
nodes = (
"129 350 OFFCURVE",
"115 306 OFFCURVE",
"115 244 CURVE SMOOTH",
"115 129 OFFCURVE",
"160 53 OFFCURVE",
"245 53 CURVE SMOOTH",
"265 53 OFFCURVE",
"289 60 OFFCURVE",
"309 75 CURVE SMOOTH",
"329 90 OFFCURVE",
"346 110 OFFCURVE",
"354 135 CURVE SMOOTH",
"361 159 OFFCURVE",
"365 191 OFFCURVE",
"365 231 CURVE SMOOTH",
"365 282 OFFCURVE",
"361 314 OFFCURVE",
"353 338 CURVE",
"344 362 OFFCURVE",
"331 376 OFFCURVE",
"311 388 CURVE SMOOTH",
"287 403 OFFCURVE",
"267 410 OFFCURVE",
"248 410 CURVE SMOOTH",
"209 410 OFFCURVE",
"185 400 OFFCURVE",
"158 376 CURVE SMOOTH"
);
}
);
width = 500;
}
);
unicode = 0064;
},
{
glyphname = e;
layers = (
{
layerId = "55D69AED-E863-4611-8C8F-E227C62A7D68";
name = Regular;
paths = (
{
closed = 1;
nodes = (
"307 468 OFFCURVE",
"355 451 OFFCURVE",
"389 416 CURVE SMOOTH",
"423 380 OFFCURVE",
"445 326 OFFCURVE",
"445 251 CURVE SMOOTH",
"445 240 OFFCURVE",
"444 229 OFFCURVE",
"443 218 CURVE",
"118 218 LINE",
"121 154 OFFCURVE",
"142 112 OFFCURVE",
"171 85 CURVE SMOOTH",
"200 58 OFFCURVE",
"238 48 OFFCURVE",
"274 48 CURVE SMOOTH",
"321 48 OFFCURVE",
"361 65 OFFCURVE",
"392 99 CURVE",
"432 60 LINE",
"393 13 OFFCURVE",
"340 -10 OFFCURVE",
"272 -10 CURVE SMOOTH",
"205 -10 OFFCURVE",
"149 11 OFFCURVE",
"110 51 CURVE SMOOTH",
"71 91 OFFCURVE",
"49 151 OFFCURVE",
"49 227 CURVE SMOOTH",
"49 304 OFFCURVE",
"73 365 OFFCURVE",
"111 406 CURVE SMOOTH",
"149 446 OFFCURVE",
"200 468 OFFCURVE",
"259 468 CURVE SMOOTH"
);
},
{
closed = 1;
nodes = (
"372 274 LINE",
"372 277 OFFCURVE",
"372 279 OFFCURVE",
"373 282 CURVE",
"373 284 OFFCURVE",
"373 287 OFFCURVE",
"373 290 CURVE SMOOTH",
"373 323 OFFCURVE",
"359 355 OFFCURVE",
"338 377 CURVE SMOOTH",
"317 399 OFFCURVE",
"287 413 OFFCURVE",
"254 413 CURVE SMOOTH",
"191 413 OFFCURVE",
"134 370 OFFCURVE",
"121 274 CURVE"
);
}
);
width = 500;
}
);
unicode = 0065;
},
{
glyphname = f;
layers = (
{
layerId = "55D69AED-E863-4611-8C8F-E227C62A7D68";
name = Regular;
paths = (
{
closed = 1;
nodes = (
"401 671 OFFCURVE",
"448 650 OFFCURVE",
"483 608 CURVE",
"450 542 LINE",
"445 542 OFFCURVE",
"442 545 OFFCURVE",
"442 550 CURVE SMOOTH",
"442 555 OFFCURVE",
"441 559 OFFCURVE",
"440 562 CURVE",
"419 593 OFFCURVE",
"381 614 OFFCURVE",
"340 614 CURVE SMOOTH",
"305 614 OFFCURVE",
"281 605 OFFCURVE",
"261 582 CURVE SMOOTH",
"241 559 OFFCURVE",
"231 521 OFFCURVE",
"231 465 CURVE SMOOTH",
"231 430 LINE",
"381 430 LINE",
"381 373 LINE",
"231 373 LINE",
"231 0 LINE",
"162 0 LINE",
"162 373 LINE",
"63 373 LINE",
"63 430 LINE",
"162 430 LINE",
"162 475 LINE SMOOTH",
"162 546 OFFCURVE",
"181 595 OFFCURVE",
"215 626 CURVE SMOOTH",
"249 657 OFFCURVE",
"292 671 OFFCURVE",
"343 671 CURVE SMOOTH"
);
}
);
width = 500;
}
);
unicode = 0066;
},
{
glyphname = g;
layers = (
{
layerId = "55D69AED-E863-4611-8C8F-E227C62A7D68";
name = Regular;
paths = (
{
closed = 1;
nodes = (
"135 365 OFFCURVE",
"126 341 OFFCURVE",
"126 314 CURVE SMOOTH",
"126 287 OFFCURVE",
"138 262 OFFCURVE",
"156 244 CURVE SMOOTH",
"174 226 OFFCURVE",
"199 214 OFFCURVE",
"226 214 CURVE SMOOTH",
"254 214 OFFCURVE",
"278 225 OFFCURVE",
"297 244 CURVE SMOOTH",
"316 263 OFFCURVE",
"327 287 OFFCURVE",
"327 314 CURVE SMOOTH",
"327 341 OFFCURVE",
"316 366 OFFCURVE",
"297 385 CURVE SMOOTH",
"278 404 OFFCURVE",
"253 415 OFFCURVE",
"226 415 CURVE SMOOTH",
"199 415 OFFCURVE",
"175 405 OFFCURVE",
"155 385 CURVE SMOOTH"
);
},
{
closed = 1;
nodes = (
"371 455 OFFCURVE",
"409 469 OFFCURVE",
"453 469 CURVE SMOOTH",
"466 469 LINE",
"475 410 LINE",
"466 411 OFFCURVE",
"457 412 OFFCURVE",
"448 412 CURVE SMOOTH",
"419 412 OFFCURVE",
"392 405 OFFCURVE",
"369 390 CURVE",
"384 367 OFFCURVE",
"392 341 OFFCURVE",
"392 313 CURVE SMOOTH",
"392 270 OFFCURVE",
"374 231 OFFCURVE",
"344 203 CURVE SMOOTH",
"314 174 OFFCURVE",
"272 156 OFFCURVE",
"227 156 CURVE SMOOTH",
"208 156 OFFCURVE",
"189 160 OFFCURVE",
"169 167 CURVE",
"148 146 OFFCURVE",
"137 129 OFFCURVE",
"137 115 CURVE SMOOTH",
"137 92 OFFCURVE",
"165 79 OFFCURVE",
"210 79 CURVE SMOOTH",
"223 79 OFFCURVE",
"236 80 OFFCURVE",
"249 81 CURVE SMOOTH",
"262 82 OFFCURVE",
"274 82 OFFCURVE",
"285 82 CURVE SMOOTH",
"345 82 OFFCURVE",
"388 70 OFFCURVE",
"415 50 CURVE SMOOTH",
"442 29 OFFCURVE",
"455 0 OFFCURVE",
"455 -32 CURVE SMOOTH",
"455 -68 OFFCURVE",
"438 -103 OFFCURVE",
"403 -129 CURVE SMOOTH",
"368 -155 OFFCURVE",
"316 -172 OFFCURVE",
"245 -172 CURVE SMOOTH",
"172 -172 OFFCURVE",
"119 -160 OFFCURVE",
"87 -140 CURVE SMOOTH",
"55 -120 OFFCURVE",
"38 -93 OFFCURVE",
"38 -64 CURVE SMOOTH",
"38 -28 OFFCURVE",
"63 6 OFFCURVE",
"113 37 CURVE",
"88 50 OFFCURVE",
"76 71 OFFCURVE",
"76 100 CURVE SMOOTH",
"76 129 OFFCURVE",
"93 157 OFFCURVE",
"128 186 CURVE",
"85 214 OFFCURVE",
"60 261 OFFCURVE",
"60 310 CURVE SMOOTH",
"60 355 OFFCURVE",
"80 396 OFFCURVE",
"112 425 CURVE SMOOTH",
"143 454 OFFCURVE",
"185 472 OFFCURVE",
"228 472 CURVE SMOOTH",
"273 472 OFFCURVE",
"310 457 OFFCURVE",
"339 428 CURVE"
);
},
{
closed = 1;
nodes = (
"123 3 OFFCURVE",
"104 -21 OFFCURVE",
"104 -46 CURVE SMOOTH",
"104 -73 OFFCURVE",
"121 -90 OFFCURVE",
"147 -101 CURVE SMOOTH",
"173 -113 OFFCURVE",
"209 -118 OFFCURVE",
"248 -118 CURVE SMOOTH",
"329 -118 OFFCURVE",
"389 -86 OFFCURVE",
"389 -37 CURVE",
"386 -1 OFFCURVE",
"361 20 OFFCURVE",
"302 20 CURVE SMOOTH",
"299 20 OFFCURVE",
"295 20 OFFCURVE",
"292 20 CURVE",
"289 19 OFFCURVE",
"285 19 OFFCURVE",
"282 19 CURVE SMOOTH",
"231 19 OFFCURVE",
"192 21 OFFCURVE",
"161 24 CURVE"
);
}
);
width = 500;
}
);
unicode = 0067;
},
{
glyphname = h;
layers = (
{
layerId = "55D69AED-E863-4611-8C8F-E227C62A7D68";
name = Regular;
paths = (
{
closed = 1;
nodes = (
"70 0 LINE",
"70 665 LINE",
"153 665 LINE",
"153 664 OFFCURVE",
"153 664 OFFCURVE",
"154 664 CURVE",
"154 664 OFFCURVE",
"154 664 OFFCURVE",
"154 663 CURVE SMOOTH",
"154 661 OFFCURVE",
"153 658 OFFCURVE",
"150 655 CURVE",
"147 651 OFFCURVE",
"144 646 OFFCURVE",
"143 641 CURVE",
"143 376 LINE",
"179 432 OFFCURVE",
"237 468 OFFCURVE",
"293 468 CURVE SMOOTH",
"334 468 OFFCURVE",
"369 455 OFFCURVE",
"394 424 CURVE SMOOTH",
"419 393 OFFCURVE",
"433 346 OFFCURVE",
"433 277 CURVE SMOOTH",
"433 0 LINE",
"362 0 LINE",
"362 275 LINE SMOOTH",
"362 371 OFFCURVE",
"325 405 OFFCURVE",
"278 405 CURVE SMOOTH",
"247 405 OFFCURVE",
"216 391 OFFCURVE",
"188 367 CURVE SMOOTH",
"159 343 OFFCURVE",
"143 308 OFFCURVE",
"143 263 CURVE SMOOTH",
"143 0 LINE"
);
}
);
width = 500;
}
);
unicode = 0068;
},
{
glyphname = i;
layers = (
{
layerId = "55D69AED-E863-4611-8C8F-E227C62A7D68";
name = Regular;
paths = (
{
closed = 1;
nodes = (
"106 457 LINE",
"289 457 LINE",
"289 58 LINE",
"396 58 LINE",
"396 0 LINE",
"100 0 LINE",
"100 58 LINE",
"217 58 LINE",
"217 399 LINE",
"106 399 LINE"
);
},
{
closed = 1;
nodes = (
"228 651 OFFCURVE",
"240 656 OFFCURVE",
"254 656 CURVE SMOOTH",
"282 656 OFFCURVE",
"306 632 OFFCURVE",
"306 604 CURVE SMOOTH",
"306 576 OFFCURVE",
"282 553 OFFCURVE",
"254 553 CURVE SMOOTH",
"226 553 OFFCURVE",
"203 576 OFFCURVE",
"203 604 CURVE SMOOTH",
"203 619 OFFCURVE",
"208 631 OFFCURVE",
"218 641 CURVE SMOOTH"
);
}
);
width = 500;
}
);
unicode = 0069;
},
{
glyphname = j;
layers = (
{
layerId = "55D69AED-E863-4611-8C8F-E227C62A7D68";
name = Regular;
paths = (
{
closed = 1;
nodes = (
"126 457 LINE",
"369 457 LINE",
"369 22 LINE SMOOTH",
"369 -47 OFFCURVE",
"349 -95 OFFCURVE",
"317 -126 CURVE SMOOTH",
"284 -157 OFFCURVE",
"239 -171 OFFCURVE",
"188 -174 CURVE",
"129 -174 OFFCURVE",
"83 -153 OFFCURVE",
"48 -110 CURVE",
"95 -48 LINE",
"98 -51 OFFCURVE",
"100 -55 OFFCURVE",
"101 -58 CURVE",
"101 -65 OFFCURVE",
"104 -72 OFFCURVE",
"116 -82 CURVE SMOOTH",
"128 -92 OFFCURVE",
"160 -112 OFFCURVE",
"193 -112 CURVE SMOOTH",
"253 -112 OFFCURVE",
"296 -74 OFFCURVE",
"296 18 CURVE SMOOTH",
"296 398 LINE",
"126 398 LINE"
);
},
{
closed = 1;
nodes = (
"306 651 OFFCURVE",
"318 656 OFFCURVE",
"333 656 CURVE SMOOTH",
"361 656 OFFCURVE",
"385 633 OFFCURVE",
"385 604 CURVE SMOOTH",
"385 576 OFFCURVE",
"361 553 OFFCURVE",
"333 553 CURVE SMOOTH",
"305 553 OFFCURVE",
"281 576 OFFCURVE",
"281 604 CURVE SMOOTH",
"281 619 OFFCURVE",
"286 631 OFFCURVE",
"296 641 CURVE SMOOTH"
);
}
);
width = 500;
}
);
unicode = 006A;
},
{
glyphname = k;
layers = (
{
layerId = "55D69AED-E863-4611-8C8F-E227C62A7D68";
name = Regular;
paths = (
{
closed = 1;
nodes = (
"66 665 LINE",
"148 665 LINE",
"148 661 OFFCURVE",
"147 657 OFFCURVE",
"144 652 CURVE SMOOTH",
"141 647 OFFCURVE",
"139 643 OFFCURVE",
"139 639 CURVE SMOOTH",
"139 247 LINE",
"368 459 LINE",
"383 456 OFFCURVE",
"401 454 OFFCURVE",
"421 454 CURVE SMOOTH",
"447 454 LINE",
"255 273 LINE",
"479 0 LINE",
"386 -4 LINE",
"199 229 LINE",
"139 173 LINE",
"139 0 LINE",
"66 0 LINE"
);
}
);
width = 500;
}
);
unicode = 006B;
},
{
glyphname = l;
layers = (
{
layerId = "55D69AED-E863-4611-8C8F-E227C62A7D68";
name = Regular;
paths = (
{
closed = 1;
nodes = (
"85 665 LINE",
"287 665 LINE",
"287 58 LINE",
"421 58 LINE",
"421 0 LINE",
"79 0 LINE",
"79 58 LINE",
"214 58 LINE",
"214 607 LINE",
"85 607 LINE"
);
}
);
width = 500;
}
);
unicode = 006C;
},
{
glyphname = m;
layers = (
{
layerId = "55D69AED-E863-4611-8C8F-E227C62A7D68";
name = Regular;
paths = (
{
closed = 1;
nodes = (
"38 0 LINE",
"38 457 LINE",
"104 457 LINE",
"104 412 LINE",
"125 445 OFFCURVE",
"161 468 OFFCURVE",
"198 468 CURVE SMOOTH",
"237 468 OFFCURVE",
"270 440 OFFCURVE",
"278 401 CURVE",
"295 441 OFFCURVE",
"336 468 OFFCURVE",
"380 468 CURVE SMOOTH",
"443 468 OFFCURVE",
"472 418 OFFCURVE",
"469 351 CURVE",
"469 0 LINE",
"403 0 LINE",
"403 324 LINE SMOOTH",
"403 365 OFFCURVE",
"399 388 OFFCURVE",
"390 401 CURVE",
"381 413 OFFCURVE",
"373 415 OFFCURVE",
"358 415 CURVE SMOOTH",
"341 415 OFFCURVE",
"322 399 OFFCURVE",
"309 378 CURVE SMOOTH",
"296 357 OFFCURVE",
"287 327 OFFCURVE",
"287 302 CURVE SMOOTH",
"287 0 LINE",
"220 0 LINE",
"220 318 LINE SMOOTH",
"220 356 OFFCURVE",
"217 381 OFFCURVE",
"210 394 CURVE SMOOTH",
"203 407 OFFCURVE",
"190 413 OFFCURVE",
"173 413 CURVE SMOOTH",
"141 413 OFFCURVE",
"104 373 OFFCURVE",
"104 305 CURVE SMOOTH",
"104 0 LINE"
);
}
);
width = 500;
}
);
unicode = 006D;
},
{
glyphname = n;
layers = (
{
layerId = "55D69AED-E863-4611-8C8F-E227C62A7D68";
name = Regular;
paths = (
{
closed = 1;
nodes = (
"68 0 LINE",
"68 457 LINE",
"142 457 LINE",
"142 376 LINE",
"177 432 OFFCURVE",
"235 468 OFFCURVE",
"291 468 CURVE SMOOTH",
"331 468 OFFCURVE",
"367 455 OFFCURVE",
"392 424 CURVE SMOOTH",
"417 393 OFFCURVE",
"432 346 OFFCURVE",
"432 277 CURVE SMOOTH",
"432 0 LINE",
"361 0 LINE",
"361 275 LINE SMOOTH",
"361 371 OFFCURVE",
"324 405 OFFCURVE",
"277 405 CURVE SMOOTH",
"246 405 OFFCURVE",
"213 391 OFFCURVE",
"187 367 CURVE SMOOTH",
"161 342 OFFCURVE",
"142 307 OFFCURVE",
"142 263 CURVE SMOOTH",
"142 0 LINE"
);
}
);
width = 500;
}
);
unicode = 006E;
},
{
glyphname = o;
layers = (
{
layerId = "55D69AED-E863-4611-8C8F-E227C62A7D68";
name = Regular;
paths = (
{
closed = 1;
nodes = (
"310 467 OFFCURVE",
"362 444 OFFCURVE",
"399 403 CURVE SMOOTH",
"436 362 OFFCURVE",
"460 301 OFFCURVE",
"460 228 CURVE SMOOTH",
"460 153 OFFCURVE",
"437 95 OFFCURVE",
"400 53 CURVE SMOOTH",
"363 11 OFFCURVE",
"310 -12 OFFCURVE",
"253 -12 CURVE SMOOTH",
"194 -12 OFFCURVE",
"142 14 OFFCURVE",
"103 56 CURVE SMOOTH",
"64 98 OFFCURVE",
"40 158 OFFCURVE",
"40 226 CURVE SMOOTH",
"40 294 OFFCURVE",
"65 357 OFFCURVE",
"105 399 CURVE SMOOTH",
"144 441 OFFCURVE",
"198 467 OFFCURVE",
"254 467 CURVE SMOOTH"
);
},
{
closed = 1;
nodes = (
"388 283 OFFCURVE",
"371 328 OFFCURVE",
"346 359 CURVE SMOOTH",
"321 390 OFFCURVE",
"287 406 OFFCURVE",
"251 406 CURVE SMOOTH",
"215 406 OFFCURVE",
"181 390 OFFCURVE",
"157 359 CURVE SMOOTH",
"132 328 OFFCURVE",
"116 285 OFFCURVE",
"116 230 CURVE SMOOTH",
"116 177 OFFCURVE",
"132 132 OFFCURVE",
"157 100 CURVE SMOOTH",
"181 68 OFFCURVE",
"216 50 OFFCURVE",
"253 50 CURVE SMOOTH",
"290 50 OFFCURVE",
"324 66 OFFCURVE",
"349 96 CURVE SMOOTH",
"373 126 OFFCURVE",
"388 170 OFFCURVE",
"388 226 CURVE SMOOTH"
);
}
);
width = 500;
}
);
unicode = 006F;
},
{
glyphname = p;
layers = (
{
layerId = "55D69AED-E863-4611-8C8F-E227C62A7D68";
name = Regular;
paths = (
{
closed = 1;
nodes = (
"60 457 LINE",
"133 457 LINE",
"133 387 LINE",
"164 436 OFFCURVE",
"220 467 OFFCURVE",
"272 467 CURVE SMOOTH",
"323 467 OFFCURVE",
"370 448 OFFCURVE",
"406 409 CURVE SMOOTH",
"441 370 OFFCURVE",
"463 312 OFFCURVE",
"463 232 CURVE SMOOTH",
"463 152 OFFCURVE",
"439 90 OFFCURVE",
"403 50 CURVE SMOOTH",
"367 9 OFFCURVE",
"319 -12 OFFCURVE",
"271 -12 CURVE SMOOTH",
"215 -12 OFFCURVE",
"165 15 OFFCURVE",
"134 60 CURVE",
"134 -167 LINE",
"60 -167 LINE"
);
},
{
closed = 1;
nodes = (
"133 190 LINE SMOOTH",
"136 91 OFFCURVE",
"183 52 OFFCURVE",
"246 52 CURVE SMOOTH",
"279 52 OFFCURVE",
"314 62 OFFCURVE",
"342 88 CURVE SMOOTH",
"370 114 OFFCURVE",
"388 155 OFFCURVE",
"388 219 CURVE SMOOTH",
"388 336 OFFCURVE",
"337 403 OFFCURVE",
"249 406 CURVE SMOOTH",
"222 406 OFFCURVE",
"193 398 OFFCURVE",
"171 375 CURVE SMOOTH",
"149 352 OFFCURVE",
"133 315 OFFCURVE",
"133 259 CURVE SMOOTH"
);
}
);
width = 500;
}
);
unicode = 0070;
},
{
glyphname = q;
layers = (
{
layerId = "55D69AED-E863-4611-8C8F-E227C62A7D68";
name = Regular;
paths = (
{
closed = 1;
nodes = (
"374 457 LINE",
"442 457 LINE",
"442 -167 LINE",
"370 -167 LINE",
"370 73 LINE",
"342 22 OFFCURVE",
"287 -10 OFFCURVE",
"230 -10 CURVE SMOOTH",
"178 -10 OFFCURVE",
"131 14 OFFCURVE",
"97 57 CURVE SMOOTH",
"63 100 OFFCURVE",
"42 161 OFFCURVE",
"42 234 CURVE SMOOTH",
"42 307 OFFCURVE",
"65 366 OFFCURVE",
"102 407 CURVE SMOOTH",
"138 447 OFFCURVE",
"188 469 OFFCURVE",
"243 469 CURVE SMOOTH",
"299 469 OFFCURVE",
"340 447 OFFCURVE",
"367 402 CURVE",
"372 395 OFFCURVE",
"374 391 OFFCURVE",
"374 390 CURVE"
);
},
{
closed = 1;
nodes = (
"208 410 OFFCURVE",
"177 396 OFFCURVE",
"154 368 CURVE SMOOTH",
"130 340 OFFCURVE",
"115 296 OFFCURVE",
"115 239 CURVE SMOOTH",
"115 180 OFFCURVE",
"130 134 OFFCURVE",
"154 102 CURVE SMOOTH",
"178 70 OFFCURVE",
"210 53 OFFCURVE",
"246 53 CURVE SMOOTH",
"322 53 OFFCURVE",
"368 107 OFFCURVE",
"368 235 CURVE SMOOTH",
"368 366 OFFCURVE",
"319 410 OFFCURVE",
"243 410 CURVE SMOOTH"
);
}
);
width = 500;
}
);
unicode = 0071;
},
{
glyphname = r;
layers = (
{
layerId = "55D69AED-E863-4611-8C8F-E227C62A7D68";
name = Regular;
paths = (
{
closed = 1;
nodes = (
"99 457 LINE",
"174 457 LINE",
"172 369 LINE",
"200 433 OFFCURVE",
"267 468 OFFCURVE",
"336 468 CURVE SMOOTH",
"385 468 OFFCURVE",
"426 451 OFFCURVE",
"458 418 CURVE",
"425 349 LINE",
"410 369 OFFCURVE",
"400 382 OFFCURVE",
"386 391 CURVE SMOOTH",
"372 400 OFFCURVE",
"356 406 OFFCURVE",
"332 406 CURVE SMOOTH",
"288 406 OFFCURVE",
"248 384 OFFCURVE",
"220 350 CURVE SMOOTH",
"191 316 OFFCURVE",
"172 270 OFFCURVE",
"172 222 CURVE SMOOTH",
"172 -1 LINE",
"99 -1 LINE"
);
}
);
width = 500;
}
);
unicode = 0072;
},
{
glyphname = s;
layers = (
{
layerId = "55D69AED-E863-4611-8C8F-E227C62A7D68";
name = Regular;
paths = (
{
closed = 1;
nodes = (
"390 333 LINE",
"387 334 OFFCURVE",
"385 336 OFFCURVE",
"385 341 CURVE SMOOTH",
"385 346 OFFCURVE",
"384 349 OFFCURVE",
"383 351 CURVE",
"359 382 OFFCURVE",
"313 413 OFFCURVE",
"257 413 CURVE SMOOTH",
"232 413 OFFCURVE",
"208 407 OFFCURVE",
"190 396 CURVE SMOOTH",
"172 385 OFFCURVE",
"160 368 OFFCURVE",
"160 347 CURVE SMOOTH",
"160 331 OFFCURVE",
"168 319 OFFCURVE",
"185 307 CURVE SMOOTH",
"202 295 OFFCURVE",
"232 284 OFFCURVE",
"283 269 CURVE SMOOTH",
"398 238 OFFCURVE",
"440 198 OFFCURVE",
"440 137 CURVE SMOOTH",
"440 97 OFFCURVE",
"422 60 OFFCURVE",
"389 33 CURVE SMOOTH",
"356 6 OFFCURVE",
"309 -10 OFFCURVE",
"250 -10 CURVE SMOOTH",
"173 -10 OFFCURVE",
"109 14 OFFCURVE",
"57 62 CURVE",
"98 134 LINE",
"100 132 OFFCURVE",
"101 129 OFFCURVE",
"102 125 CURVE",
"103 120 OFFCURVE",
"105 115 OFFCURVE",
"109 109 CURVE SMOOTH",
"113 103 OFFCURVE",
"120 96 OFFCURVE",
"131 89 CURVE",
"152 73 OFFCURVE",
"189 57 OFFCURVE",
"214 53 CURVE SMOOTH",
"227 51 OFFCURVE",
"239 50 OFFCURVE",
"252 50 CURVE SMOOTH",
"279 50 OFFCURVE",
"308 57 OFFCURVE",
"330 70 CURVE SMOOTH",
"352 82 OFFCURVE",
"366 100 OFFCURVE",
"366 123 CURVE SMOOTH",
"366 140 OFFCURVE",
"358 155 OFFCURVE",
"342 167 CURVE SMOOTH",
"326 179 OFFCURVE",
"297 191 OFFCURVE",
"254 204 CURVE SMOOTH",
"195 221 OFFCURVE",
"165 233 OFFCURVE",
"144 247 CURVE SMOOTH",
"123 261 OFFCURVE",
"105 280 OFFCURVE",
"94 305 CURVE SMOOTH",
"89 317 OFFCURVE",
"86 330 OFFCURVE",
"86 345 CURVE SMOOTH",
"86 377 OFFCURVE",
"104 407 OFFCURVE",
"136 430 CURVE SMOOTH",
"167 453 OFFCURVE",
"211 468 OFFCURVE",
"262 468 CURVE SMOOTH",
"332 468 OFFCURVE",
"389 444 OFFCURVE",
"432 396 CURVE"
);
}
);
width = 500;
}
);
unicode = 0073;
},
{
glyphname = t;
layers = (
{
layerId = "55D69AED-E863-4611-8C8F-E227C62A7D68";
name = Regular;
paths = (
{
closed = 1;
nodes = (
"188 579 LINE",
"267 592 LINE",
"267 586 OFFCURVE",
"266 581 OFFCURVE",
"265 576 CURVE",
"263 571 OFFCURVE",
"262 568 OFFCURVE",
"261 565 CURVE",
"249 457 LINE",
"399 457 LINE",
"399 398 LINE",
"249 398 LINE",
"243 339 OFFCURVE",
"240 283 OFFCURVE",
"240 231 CURVE SMOOTH",
"240 167 OFFCURVE",
"241 123 OFFCURVE",
"253 98 CURVE SMOOTH",
"264 73 OFFCURVE",
"284 58 OFFCURVE",
"320 58 CURVE SMOOTH",
"351 58 OFFCURVE",
"385 72 OFFCURVE",
"422 99 CURVE",
"444 42 LINE",
"398 8 OFFCURVE",
"351 -9 OFFCURVE",
"302 -9 CURVE SMOOTH",
"206 -9 OFFCURVE",
"163 45 OFFCURVE",
"167 176 CURVE SMOOTH",
"167 224 OFFCURVE",
"169 299 OFFCURVE",
"177 398 CURVE",
"70 398 LINE",
"70 457 LINE",
"180 457 LINE"
);
}
);
width = 500;
}
);
unicode = 0074;
},
{
glyphname = u;
layers = (
{
layerId = "55D69AED-E863-4611-8C8F-E227C62A7D68";
name = Regular;
paths = (
{
closed = 1;
nodes = (
"63 457 LINE",
"135 457 LINE",
"135 202 LINE SMOOTH",
"135 143 OFFCURVE",
"146 105 OFFCURVE",
"166 81 CURVE SMOOTH",
"185 57 OFFCURVE",
"210 47 OFFCURVE",
"239 47 CURVE",
"271 50 OFFCURVE",
"301 63 OFFCURVE",
"325 88 CURVE SMOOTH",
"348 112 OFFCURVE",
"362 150 OFFCURVE",
"362 205 CURVE SMOOTH",
"362 457 LINE",
"435 457 LINE",
"435 41 LINE SMOOTH",
"435 26 OFFCURVE",
"437 12 OFFCURVE",
"440 0 CURVE",
"364 0 LINE",
"363 9 OFFCURVE",
"361 20 OFFCURVE",
"362 35 CURVE",
"363 70 LINE",
"334 19 OFFCURVE",
"281 -11 OFFCURVE",
"221 -11 CURVE SMOOTH",
"174 -11 OFFCURVE",
"138 5 OFFCURVE",
"108 40 CURVE SMOOTH",
"78 75 OFFCURVE",
"62 127 OFFCURVE",
"62 202 CURVE SMOOTH"
);
}
);
width = 500;
}
);
unicode = 0075;
},
{
glyphname = v;
layers = (
{
layerId = "55D69AED-E863-4611-8C8F-E227C62A7D68";
name = Regular;
paths = (
{
closed = 1;
nodes = (
"50 432 LINE",
"40 457 LINE",
"126 457 LINE",
"126 452 OFFCURVE",
"126 448 OFFCURVE",
"125 445 CURVE",
"124 441 OFFCURVE",
"123 438 OFFCURVE",
"123 435 CURVE SMOOTH",
"123 434 OFFCURVE",
"123 433 OFFCURVE",
"124 432 CURVE",
"256 98 LINE",
"330 268 LINE SMOOTH",
"362 341 OFFCURVE",
"381 404 OFFCURVE",
"392 457 CURVE",
"457 457 LINE",
"444 401 OFFCURVE",
"421 334 OFFCURVE",
"388 257 CURVE SMOOTH",
"277 -3 LINE",
"221 -3 LINE"
);
}
);
width = 500;
}
);
unicode = 0076;
},
{
glyphname = w;
layers = (
{
layerId = "55D69AED-E863-4611-8C8F-E227C62A7D68";
name = Regular;
paths = (
{
closed = 1;
nodes = (
"16 457 LINE",
"89 457 LINE",
"89 453 LINE SMOOTH",
"89 449 OFFCURVE",
"88 445 OFFCURVE",
"87 440 CURVE SMOOTH",
"86 435 OFFCURVE",
"85 430 OFFCURVE",
"85 425 CURVE SMOOTH",
"85 422 OFFCURVE",
"85 420 OFFCURVE",
"86 419 CURVE",
"153 90 LINE",
"231 414 LINE",
"275 414 LINE",
"372 91 LINE",
"381 150 OFFCURVE",
"388 198 OFFCURVE",
"394 236 CURVE SMOOTH",
"405 312 OFFCURVE",
"411 360 OFFCURVE",
"413 393 CURVE SMOOTH",
"414 409 OFFCURVE",
"414 425 OFFCURVE",
"414 442 CURVE SMOOTH",
"414 457 LINE",
"481 457 LINE",
"461 302 OFFCURVE",
"436 151 OFFCURVE",
"405 -1 CURVE",
"337 -1 LINE",
"253 295 LINE",
"173 -1 LINE",
"108 -1 LINE"
);
}
);
width = 500;
}
);
unicode = 0077;
},
{
glyphname = x;
layers = (
{
layerId = "55D69AED-E863-4611-8C8F-E227C62A7D68";
name = Regular;
paths = (
{
closed = 1;
nodes = (
"362 457 LINE",
"436 457 LINE",
"288 235 LINE",
"456 0 LINE",
"374 0 LINE",
"248 178 LINE",
"129 0 LINE",
"47 0 LINE",
"208 232 LINE",
"50 457 LINE",
"129 457 LINE",
"248 288 LINE"
);
}
);
width = 500;
}
);
unicode = 0078;
},
{
glyphname = y;
layers = (
{
layerId = "55D69AED-E863-4611-8C8F-E227C62A7D68";
name = Regular;
paths = (
{
closed = 1;
nodes = (
"59 425 LINE",
"46 457 LINE",
"135 457 LINE",
"135 452 OFFCURVE",
"134 447 OFFCURVE",
"133 444 CURVE",
"132 440 OFFCURVE",
"131 436 OFFCURVE",
"131 433 CURVE SMOOTH",
"131 430 OFFCURVE",
"132 428 OFFCURVE",
"133 427 CURVE",
"267 91 LINE",
"354 336 LINE SMOOTH",
"371 383 OFFCURVE",
"381 424 OFFCURVE",
"388 457 CURVE",
"463 457 LINE",
"457 440 OFFCURVE",
"451 420 OFFCURVE",
"444 398 CURVE SMOOTH",
"437 376 OFFCURVE",
"428 352 OFFCURVE",
"418 325 CURVE SMOOTH",
"294 -2 LINE",
"275 -52 LINE SMOOTH",
"243 -141 OFFCURVE",
"192 -174 OFFCURVE",
"127 -174 CURVE SMOOTH",
"84 -174 OFFCURVE",
"49 -161 OFFCURVE",
"22 -135 CURVE",
"60 -71 LINE",
"62 -73 OFFCURVE",
"64 -76 OFFCURVE",
"65 -80 CURVE",
"68 -89 OFFCURVE",
"67 -87 OFFCURVE",
"72 -93 CURVE SMOOTH",
"77 -99 OFFCURVE",
"86 -106 OFFCURVE",
"99 -111 CURVE",
"106 -114 OFFCURVE",
"113 -115 OFFCURVE",
"121 -115 CURVE SMOOTH",
"160 -115 OFFCURVE",
"188 -95 OFFCURVE",
"217 -32 CURVE",
"231 2 LINE"
);
}
);
width = 500;
}
);
unicode = 0079;
},
{
glyphname = z;
layers = (
{
layerId = "55D69AED-E863-4611-8C8F-E227C62A7D68";
name = Regular;
paths = (
{
closed = 1;
nodes = (
"71 457 LINE",
"426 457 LINE",
"426 408 LINE",
"148 62 LINE",
"419 62 LINE SMOOTH",
"424 62 OFFCURVE",
"429 63 OFFCURVE",
"435 65 CURVE",
"440 67 OFFCURVE",
"445 68 OFFCURVE",
"450 68 CURVE",
"450 0 LINE",
"50 0 LINE",
"50 49 LINE",
"333 394 LINE",
"71 394 LINE"
);
}
);
width = 500;
}
);
unicode = 007A;
},
{
glyphname = braceleft;
layers = (
{
layerId = "55D69AED-E863-4611-8C8F-E227C62A7D68";
name = Regular;
paths = (
{
closed = 1;
nodes = (
"163 116 LINE",
"163 204 OFFCURVE",
"130 228 OFFCURVE",
"73 228 CURVE SMOOTH",
"53 228 LINE",
"53 284 LINE",
"72 284 LINE SMOOTH",
"133 284 OFFCURVE",
"165 315 OFFCURVE",
"165 391 CURVE",
"163 463 LINE",
"163 579 OFFCURVE",
"224 637 OFFCURVE",
"345 637 CURVE SMOOTH",
"408 637 LINE",
"408 580 LINE",
"326 580 LINE SMOOTH",
"264 580 OFFCURVE",
"233 545 OFFCURVE",
"233 474 CURVE SMOOTH",
"235 404 LINE SMOOTH",
"235 330 OFFCURVE",
"206 281 OFFCURVE",
"148 256 CURVE",
"205 237 OFFCURVE",
"233 186 OFFCURVE",
"233 101 CURVE",
"230 17 LINE",
"230 -74 OFFCURVE",
"267 -103 OFFCURVE",
"356 -103 CURVE SMOOTH",
"407 -103 LINE",
"407 -159 LINE",
"371 -159 LINE SMOOTH",
"307 -159 OFFCURVE",
"256 -160 OFFCURVE",
"215 -129 CURVE SMOOTH",
"178 -100 OFFCURVE",
"159 -51 OFFCURVE",
"159 16 CURVE"
);
}
);
width = 500;
}
);
unicode = 007B;
},
{
glyphname = bar;
layers = (
{
layerId = "55D69AED-E863-4611-8C8F-E227C62A7D68";
name = Regular;
paths = (
{
closed = 1;
nodes = (
"217 652 LINE",
"284 652 LINE",
"284 -151 LINE",
"217 -151 LINE"
);
}
);
width = 500;
}
);
unicode = 007C;
},
{
glyphname = braceright;
layers = (
{
layerId = "55D69AED-E863-4611-8C8F-E227C62A7D68";
name = Regular;
paths = (
{
closed = 1;
nodes = (
"335 391 LINE",
"335 315 OFFCURVE",
"368 284 OFFCURVE",
"428 284 CURVE SMOOTH",
"448 284 LINE",
"448 228 LINE",
"427 228 LINE SMOOTH",
"370 228 OFFCURVE",
"338 204 OFFCURVE",
"338 116 CURVE SMOOTH",
"341 16 LINE SMOOTH",
"341 -103 OFFCURVE",
"290 -159 OFFCURVE",
"175 -159 CURVE SMOOTH",
"93 -159 LINE",
"93 -103 LINE",
"148 -103 LINE SMOOTH",
"177 -103 OFFCURVE",
"194 -102 OFFCURVE",
"206 -98 CURVE",
"217 -95 OFFCURVE",
"223 -91 OFFCURVE",
"230 -86 CURVE SMOOTH",
"257 -67 OFFCURVE",
"271 -32 OFFCURVE",
"271 17 CURVE",
"268 101 LINE",
"268 185 OFFCURVE",
"296 237 OFFCURVE",
"352 256 CURVE",
"294 281 OFFCURVE",
"265 330 OFFCURVE",
"265 404 CURVE",
"268 474 LINE",
"268 550 OFFCURVE",
"235 580 OFFCURVE",
"167 580 CURVE SMOOTH",
"92 580 LINE",
"92 637 LINE",
"123 637 LINE SMOOTH",
"168 637 OFFCURVE",
"222 638 OFFCURVE",
"265 613 CURVE SMOOTH",
"308 588 OFFCURVE",
"338 544 OFFCURVE",
"338 463 CURVE"
);
}
);
width = 500;
}
);
unicode = 007D;
},
{
glyphname = asciitilde;
layers = (
{
layerId = "55D69AED-E863-4611-8C8F-E227C62A7D68";
name = Regular;
paths = (
{
closed = 1;
nodes = (
"41 375 LINE",
"73 427 OFFCURVE",
"127 464 OFFCURVE",
"172 464 CURVE SMOOTH",
"219 464 OFFCURVE",
"251 446 OFFCURVE",
"271 427 CURVE SMOOTH",
"298 402 OFFCURVE",
"321 389 OFFCURVE",
"339 389 CURVE SMOOTH",
"376 389 OFFCURVE",
"397 410 OFFCURVE",
"430 454 CURVE",
"476 416 LINE",
"460 392 OFFCURVE",
"438 368 OFFCURVE",
"415 352 CURVE SMOOTH",
"392 335 OFFCURVE",
"368 324 OFFCURVE",
"344 324 CURVE SMOOTH",
"299 324 OFFCURVE",
"267 344 OFFCURVE",
"248 364 CURVE SMOOTH",
"223 391 OFFCURVE",
"199 404 OFFCURVE",
"174 404 CURVE SMOOTH",
"144 404 OFFCURVE",
"116 383 OFFCURVE",
"91 342 CURVE"
);
}
);
width = 500;
}
);
unicode = 007E;
},
{
glyphname = exclamdown;
layers = (
{
layerId = "55D69AED-E863-4611-8C8F-E227C62A7D68";
name = Regular;
paths = (
{
closed = 1;
nodes = (
"186 578 OFFCURVE",
"180 591 OFFCURVE",
"180 608 CURVE SMOOTH",
"180 640 OFFCURVE",
"208 668 OFFCURVE",
"239 668 CURVE SMOOTH",
"270 668 OFFCURVE",
"299 640 OFFCURVE",
"299 608 CURVE SMOOTH",
"299 577 OFFCURVE",
"271 550 OFFCURVE",
"239 550 CURVE SMOOTH",
"222 550 OFFCURVE",
"208 556 OFFCURVE",
"197 567 CURVE SMOOTH"
);
},
{
closed = 1;
nodes = (
"207 -11 OFFCURVE",
"187 15 OFFCURVE",
"187 72 CURVE SMOOTH",
"187 87 OFFCURVE",
"188 107 OFFCURVE",
"191 134 CURVE SMOOTH",
"196 186 LINE",
"214 463 LINE",
"264 463 LINE",
"279 186 LINE",
"280 176 OFFCURVE",
"281 165 OFFCURVE",
"282 154 CURVE SMOOTH",
"283 143 OFFCURVE",
"284 131 OFFCURVE",
"285 120 CURVE SMOOTH",
"286 108 OFFCURVE",
"287 97 OFFCURVE",
"288 87 CURVE SMOOTH",
"289 76 OFFCURVE",
"289 68 OFFCURVE",
"289 61 CURVE SMOOTH",
"289 14 OFFCURVE",
"269 -11 OFFCURVE",
"238 -11 CURVE SMOOTH"
);
}
);
width = 500;
}
);
unicode = 00A1;
},
{
glyphname = cent;
layers = (
{
layerId = "55D69AED-E863-4611-8C8F-E227C62A7D68";
name = Regular;
paths = (
{
closed = 1;
nodes = (
"285 624 LINE",
"352 617 LINE",
"352 613 OFFCURVE",
"351 609 OFFCURVE",
"348 604 CURVE SMOOTH",
"345 599 OFFCURVE",
"344 594 OFFCURVE",
"343 589 CURVE",
"333 507 LINE",
"384 497 OFFCURVE",
"424 471 OFFCURVE",
"451 430 CURVE",
"407 373 LINE",
"404 375 OFFCURVE",
"403 379 OFFCURVE",
"403 386 CURVE SMOOTH",
"403 392 OFFCURVE",
"402 396 OFFCURVE",
"399 399 CURVE",
"380 422 OFFCURVE",
"355 438 OFFCURVE",
"325 447 CURVE",
"279 97 LINE",
"329 97 OFFCURVE",
"373 116 OFFCURVE",
"410 153 CURVE",
"446 104 LINE",
"403 57 OFFCURVE",
"347 33 OFFCURVE",
"278 33 CURVE SMOOTH",
"270 33 LINE",
"255 -79 LINE",
"198 -72 LINE",
"212 41 LINE",
"112 69 OFFCURVE",
"48 155 OFFCURVE",
"48 280 CURVE SMOOTH",
"48 343 OFFCURVE",
"71 399 OFFCURVE",
"110 441 CURVE SMOOTH",
"149 483 OFFCURVE",
"204 509 OFFCURVE",
"271 512 CURVE"
);
},
{
closed = 1;
nodes = (
"263 454 LINE",
"220 451 OFFCURVE",
"186 433 OFFCURVE",
"160 404 CURVE SMOOTH",
"134 375 OFFCURVE",
"119 335 OFFCURVE",
"119 288 CURVE SMOOTH",
"119 195 OFFCURVE",
"159 132 OFFCURVE",
"220 108 CURVE"
);
}
);
width = 500;
}
);
unicode = 00A2;
},
{
glyphname = sterling;
layers = (
{
layerId = "55D69AED-E863-4611-8C8F-E227C62A7D68";
name = Regular;
paths = (
{
closed = 1;
nodes = (
"374 517 LINE",
"369 522 OFFCURVE",
"365 528 OFFCURVE",
"364 533 CURVE",
"362 538 OFFCURVE",
"357 543 OFFCURVE",
"349 547 CURVE",
"333 560 OFFCURVE",
"313 566 OFFCURVE",
"290 566 CURVE SMOOTH",
"262 566 OFFCURVE",
"235 557 OFFCURVE",
"214 537 CURVE SMOOTH",
"193 517 OFFCURVE",
"179 486 OFFCURVE",
"179 443 CURVE SMOOTH",
"179 426 OFFCURVE",
"182 405 OFFCURVE",
"187 378 CURVE",
"287 378 LINE",
"287 321 LINE",
"201 321 LINE",
"210 284 OFFCURVE",
"214 251 OFFCURVE",
"214 224 CURVE SMOOTH",
"214 173 OFFCURVE",
"202 129 OFFCURVE",
"178 90 CURVE",
"187 91 OFFCURVE",
"199 92 OFFCURVE",
"215 92 CURVE SMOOTH",
"228 92 OFFCURVE",
"257 82 OFFCURVE",
"288 72 CURVE SMOOTH",
"319 62 OFFCURVE",
"352 51 OFFCURVE",
"373 51 CURVE SMOOTH",
"398 51 OFFCURVE",
"421 60 OFFCURVE",
"444 79 CURVE",
"470 27 LINE",
"435 -1 OFFCURVE",
"400 -15 OFFCURVE",
"366 -15 CURVE SMOOTH",
"347 -15 OFFCURVE",
"315 -4 OFFCURVE",
"280 8 CURVE SMOOTH",
"244 19 OFFCURVE",
"208 30 OFFCURVE",
"180 30 CURVE SMOOTH",
"151 30 OFFCURVE",
"112 17 OFFCURVE",
"65 -8 CURVE",
"39 49 LINE",
"70 64 OFFCURVE",
"86 71 OFFCURVE",
"95 79 CURVE",
"104 86 OFFCURVE",
"108 91 OFFCURVE",
"113 100 CURVE",
"136 137 OFFCURVE",
"148 177 OFFCURVE",
"148 222 CURVE SMOOTH",
"148 247 OFFCURVE",
"143 280 OFFCURVE",
"133 321 CURVE",
"67 321 LINE",
"67 378 LINE",
"119 378 LINE",
"114 401 OFFCURVE",
"112 422 OFFCURVE",
"112 442 CURVE SMOOTH",
"112 497 OFFCURVE",
"132 542 OFFCURVE",
"164 574 CURVE SMOOTH",
"196 605 OFFCURVE",
"240 623 OFFCURVE",
"288 623 CURVE SMOOTH",
"337 623 OFFCURVE",
"381 606 OFFCURVE",
"418 572 CURVE"
);
}
);
width = 500;
}
);
unicode = 00A3;
},
{
glyphname = currency;
layers = (
{
layerId = "55D69AED-E863-4611-8C8F-E227C62A7D68";
name = Regular;
paths = (
{
closed = 1;
nodes = (
"68 492 LINE",
"104 527 LINE",
"160 471 LINE",
"187 490 OFFCURVE",
"218 500 OFFCURVE",
"251 500 CURVE SMOOTH",
"282 500 OFFCURVE",
"312 491 OFFCURVE",
"340 472 CURVE",
"396 527 LINE",
"432 492 LINE",
"376 437 LINE",
"396 409 OFFCURVE",
"406 378 OFFCURVE",
"406 345 CURVE SMOOTH",
"406 312 OFFCURVE",
"396 281 OFFCURVE",
"377 254 CURVE",
"432 199 LINE",
"396 164 LINE",
"341 219 LINE",
"314 199 OFFCURVE",
"283 190 OFFCURVE",
"251 190 CURVE SMOOTH",
"218 190 OFFCURVE",
"187 200 OFFCURVE",
"159 220 CURVE",
"104 164 LINE",
"68 199 LINE",
"124 256 LINE",
"105 283 OFFCURVE",
"96 314 OFFCURVE",
"96 345 CURVE SMOOTH",
"96 377 OFFCURVE",
"105 408 OFFCURVE",
"125 435 CURVE"
);
},
{
closed = 1;
nodes = (
"301 436 OFFCURVE",
"277 446 OFFCURVE",
"250 446 CURVE SMOOTH",
"223 446 OFFCURVE",
"199 435 OFFCURVE",
"180 416 CURVE SMOOTH",
"161 397 OFFCURVE",
"150 373 OFFCURVE",
"150 345 CURVE SMOOTH",
"150 318 OFFCURVE",
"162 293 OFFCURVE",
"180 275 CURVE SMOOTH",
"198 257 OFFCURVE",
"223 245 OFFCURVE",
"250 245 CURVE SMOOTH",
"278 245 OFFCURVE",
"302 256 OFFCURVE",
"321 275 CURVE SMOOTH",
"340 294 OFFCURVE",
"351 318 OFFCURVE",
"351 345 CURVE SMOOTH",
"351 372 OFFCURVE",
"341 396 OFFCURVE",
"321 416 CURVE SMOOTH"
);
}
);
width = 500;
}
);
unicode = 00A4;
},
{
glyphname = yen;
layers = (
{
layerId = "55D69AED-E863-4611-8C8F-E227C62A7D68";
name = Regular;
paths = (
{
closed = 1;
nodes = (
"36 624 LINE",
"114 624 LINE",
"259 363 LINE",
"392 623 LINE",
"466 623 LINE",
"292 295 LINE",
"292 274 LINE",
"426 274 LINE",
"426 217 LINE",
"292 217 LINE",
"292 154 LINE",
"426 154 LINE",
"426 98 LINE",
"292 98 LINE",
"292 0 LINE",
"224 0 LINE",
"224 98 LINE",
"84 98 LINE",
"84 154 LINE",
"224 154 LINE",
"224 217 LINE",
"84 217 LINE",
"84 274 LINE",
"224 274 LINE",
"224 295 LINE"
);
}
);
width = 500;
}
);
unicode = 00A5;
},
{
glyphname = brokenbar;
layers = (
{
layerId = "55D69AED-E863-4611-8C8F-E227C62A7D68";
name = Regular;
paths = (
{
closed = 1;
nodes = (
"217 652 LINE",
"284 652 LINE",
"284 295 LINE",
"217 295 LINE"
);
},
{
closed = 1;
nodes = (
"284 -151 LINE",
"217 -151 LINE",
"217 196 LINE",
"284 196 LINE"
);
}
);
width = 500;
}
);
unicode = 00A6;
},
{
glyphname = section;
layers = (
{
layerId = "55D69AED-E863-4611-8C8F-E227C62A7D68";
name = Regular;
paths = (
{
closed = 1;
nodes = (
"356 533 LINE",
"353 536 OFFCURVE",
"351 540 OFFCURVE",
"350 544 CURVE",
"347 561 OFFCURVE",
"337 579 OFFCURVE",
"320 592 CURVE",
"303 604 OFFCURVE",
"280 613 OFFCURVE",
"256 613 CURVE SMOOTH",
"232 613 OFFCURVE",
"209 605 OFFCURVE",
"193 591 CURVE SMOOTH",
"177 577 OFFCURVE",
"167 557 OFFCURVE",
"167 536 CURVE SMOOTH",
"167 504 OFFCURVE",
"179 489 OFFCURVE",
"205 471 CURVE SMOOTH",
"218 462 OFFCURVE",
"234 454 OFFCURVE",
"254 447 CURVE SMOOTH",
"274 440 OFFCURVE",
"298 431 OFFCURVE",
"326 419 CURVE",
"387 390 OFFCURVE",
"418 352 OFFCURVE",
"418 305 CURVE SMOOTH",
"418 265 OFFCURVE",
"388 226 OFFCURVE",
"344 209 CURVE",
"387 180 OFFCURVE",
"408 143 OFFCURVE",
"408 98 CURVE SMOOTH",
"408 54 OFFCURVE",
"390 16 OFFCURVE",
"360 -11 CURVE SMOOTH",
"330 -38 OFFCURVE",
"286 -54 OFFCURVE",
"238 -54 CURVE SMOOTH",
"170 -54 OFFCURVE",
"106 -25 OFFCURVE",
"65 31 CURVE",
"117 92 LINE",
"125 89 OFFCURVE",
"125 86 OFFCURVE",
"127 79 CURVE SMOOTH",
"128 75 OFFCURVE",
"130 70 OFFCURVE",
"134 64 CURVE",
"137 58 OFFCURVE",
"144 50 OFFCURVE",
"154 41 CURVE SMOOTH",
"175 22 OFFCURVE",
"201 12 OFFCURVE",
"234 12 CURVE SMOOTH",
"299 12 OFFCURVE",
"337 47 OFFCURVE",
"337 91 CURVE SMOOTH",
"337 114 OFFCURVE",
"330 131 OFFCURVE",
"313 147 CURVE SMOOTH",
"296 162 OFFCURVE",
"265 175 OFFCURVE",
"220 188 CURVE SMOOTH",
"117 221 OFFCURVE",
"79 256 OFFCURVE",
"79 316 CURVE SMOOTH",
"79 360 OFFCURVE",
"112 400 OFFCURVE",
"161 417 CURVE",
"116 444 OFFCURVE",
"94 481 OFFCURVE",
"94 530 CURVE SMOOTH",
"94 569 OFFCURVE",
"112 604 OFFCURVE",
"141 630 CURVE SMOOTH",
"170 656 OFFCURVE",
"212 672 OFFCURVE",
"257 672 CURVE SMOOTH",
"322 672 OFFCURVE",
"381 639 OFFCURVE",
"413 583 CURVE"
);
},
{
closed = 1;
nodes = (
"197 399 LINE",
"170 390 OFFCURVE",
"152 365 OFFCURVE",
"152 336 CURVE SMOOTH",
"152 292 OFFCURVE",
"183 265 OFFCURVE",
"256 244 CURVE SMOOTH",
"267 241 OFFCURVE",
"277 238 OFFCURVE",
"286 236 CURVE",
"295 233 OFFCURVE",
"302 231 OFFCURVE",
"307 228 CURVE",
"331 241 OFFCURVE",
"343 262 OFFCURVE",
"343 292 CURVE SMOOTH",
"343 336 OFFCURVE",
"312 359 OFFCURVE",
"240 384 CURVE SMOOTH"
);
}
);
width = 500;
}
);
unicode = 00A7;
},
{
glyphname = dieresis;
layers = (
{
layerId = "55D69AED-E863-4611-8C8F-E227C62A7D68";
name = Regular;
paths = (
{
closed = 1;
nodes = (
"208 640 OFFCURVE",
"213 628 OFFCURVE",
"213 614 CURVE SMOOTH",
"213 587 OFFCURVE",
"190 564 OFFCURVE",
"163 564 CURVE SMOOTH",
"135 564 OFFCURVE",
"112 587 OFFCURVE",
"112 614 CURVE SMOOTH",
"112 641 OFFCURVE",
"135 665 OFFCURVE",
"163 665 CURVE SMOOTH",
"176 665 OFFCURVE",
"188 660 OFFCURVE",
"198 650 CURVE SMOOTH"
);
},
{
closed = 1;
nodes = (
"386 640 OFFCURVE",
"391 628 OFFCURVE",
"391 614 CURVE SMOOTH",
"391 587 OFFCURVE",
"368 564 OFFCURVE",
"341 564 CURVE SMOOTH",
"313 564 OFFCURVE",
"291 586 OFFCURVE",
"291 614 CURVE SMOOTH",
"291 642 OFFCURVE",
"313 665 OFFCURVE",
"341 665 CURVE SMOOTH",
"354 665 OFFCURVE",
"366 660 OFFCURVE",
"376 650 CURVE SMOOTH"
);
}
);
width = 500;
}
);
unicode = 00A8;
},
{
glyphname = copyright;
layers = (
{
layerId = "55D69AED-E863-4611-8C8F-E227C62A7D68";
name = Regular;
paths = (
{
closed = 1;
nodes = (
"335 312 LINE",
"332 317 OFFCURVE",
"331 321 OFFCURVE",
"332 324 CURVE",
"332 331 OFFCURVE",
"331 338 OFFCURVE",
"324 347 CURVE",
"316 355 OFFCURVE",
"293 374 OFFCURVE",
"262 374 CURVE SMOOTH",
"243 374 OFFCURVE",
"221 368 OFFCURVE",
"203 353 CURVE SMOOTH",
"185 337 OFFCURVE",
"171 314 OFFCURVE",
"171 281 CURVE SMOOTH",
"171 252 OFFCURVE",
"182 225 OFFCURVE",
"199 206 CURVE",
"215 186 OFFCURVE",
"238 174 OFFCURVE",
"265 174 CURVE SMOOTH",
"297 174 OFFCURVE",
"325 191 OFFCURVE",
"340 219 CURVE",
"384 190 LINE",
"356 147 OFFCURVE",
"309 122 OFFCURVE",
"261 122 CURVE SMOOTH",
"220 122 OFFCURVE",
"184 140 OFFCURVE",
"158 168 CURVE SMOOTH",
"132 196 OFFCURVE",
"115 235 OFFCURVE",
"115 276 CURVE SMOOTH",
"115 317 OFFCURVE",
"132 356 OFFCURVE",
"159 382 CURVE SMOOTH",
"186 408 OFFCURVE",
"219 424 OFFCURVE",
"254 424 CURVE SMOOTH",
"326 424 OFFCURVE",
"374 387 OFFCURVE",
"387 331 CURVE"
);
},
{
closed = 1;
nodes = (
"379 44 OFFCURVE",
"322 19 OFFCURVE",
"255 19 CURVE SMOOTH",
"188 19 OFFCURVE",
"128 47 OFFCURVE",
"85 94 CURVE SMOOTH",
"41 141 OFFCURVE",
"14 203 OFFCURVE",
"14 274 CURVE SMOOTH",
"14 345 OFFCURVE",
"41 408 OFFCURVE",
"85 455 CURVE SMOOTH",
"129 502 OFFCURVE",
"189 530 OFFCURVE",
"256 530 CURVE SMOOTH",
"321 530 OFFCURVE",
"382 502 OFFCURVE",
"426 455 CURVE SMOOTH",
"470 408 OFFCURVE",
"498 345 OFFCURVE",
"498 274 CURVE SMOOTH",
"498 203 OFFCURVE",
"474 143 OFFCURVE",
"426 93 CURVE SMOOTH"
);
},
{
closed = 1;
nodes = (
"202 488 OFFCURVE",
"153 465 OFFCURVE",
"117 426 CURVE SMOOTH",
"81 387 OFFCURVE",
"59 334 OFFCURVE",
"59 274 CURVE SMOOTH",
"59 215 OFFCURVE",
"81 162 OFFCURVE",
"117 124 CURVE SMOOTH",
"153 86 OFFCURVE",
"202 62 OFFCURVE",
"257 62 CURVE SMOOTH",
"310 62 OFFCURVE",
"360 86 OFFCURVE",
"396 125 CURVE SMOOTH",
"432 164 OFFCURVE",
"455 216 OFFCURVE",
"455 275 CURVE SMOOTH",
"455 334 OFFCURVE",
"433 386 OFFCURVE",
"397 425 CURVE SMOOTH",
"361 464 OFFCURVE",
"312 488 OFFCURVE",
"257 488 CURVE SMOOTH"
);
}
);
width = 500;
}
);
unicode = 00A9;
},
{
glyphname = ordfeminine;
layers = (
{
layerId = "55D69AED-E863-4611-8C8F-E227C62A7D68";
name = Regular;
paths = (
{
closed = 1;
nodes = (
"325 488 LINE SMOOTH",
"325 542 OFFCURVE",
"300 569 OFFCURVE",
"251 569 CURVE SMOOTH",
"210 569 OFFCURVE",
"178 554 OFFCURVE",
"157 525 CURVE",
"123 566 LINE",
"156 603 OFFCURVE",
"201 622 OFFCURVE",
"257 622 CURVE",
"341 619 OFFCURVE",
"389 579 OFFCURVE",
"389 495 CURVE SMOOTH",
"389 485 LINE",
"389 267 LINE",
"326 267 LINE",
"326 300 LINE",
"295 271 OFFCURVE",
"261 257 OFFCURVE",
"224 257 CURVE SMOOTH",
"151 257 OFFCURVE",
"102 305 OFFCURVE",
"102 362 CURVE SMOOTH",
"102 418 OFFCURVE",
"147 461 OFFCURVE",
"219 472 CURVE",
"262 476 OFFCURVE",
"290 476 OFFCURVE",
"311 476 CURVE SMOOTH",
"325 476 LINE"
);
},
{
closed = 1;
nodes = (
"328 424 LINE",
"312 424 LINE SMOOTH",
"256 424 OFFCURVE",
"220 423 OFFCURVE",
"197 413 CURVE SMOOTH",
"174 403 OFFCURVE",
"166 388 OFFCURVE",
"166 363 CURVE SMOOTH",
"166 338 OFFCURVE",
"188 311 OFFCURVE",
"231 311 CURVE SMOOTH",
"248 311 OFFCURVE",
"273 317 OFFCURVE",
"293 332 CURVE SMOOTH",
"313 347 OFFCURVE",
"328 370 OFFCURVE",
"328 406 CURVE SMOOTH"
);
},
{
closed = 1;
nodes = (
"76 206 LINE",
"425 206 LINE",
"425 152 LINE",
"76 152 LINE"
);
}
);
width = 500;
}
);
unicode = 00AA;
},
{
glyphname = guillemotleft;
layers = (
{
layerId = "55D69AED-E863-4611-8C8F-E227C62A7D68";
name = Regular;
paths = (
{
closed = 1;
nodes = (
"249 253 LINE",
"400 400 LINE",
"439 359 LINE",
"318 241 LINE",
"446 101 LINE",
"406 61 LINE",
"249 230 LINE"
);
},
{
closed = 1;
nodes = (
"67 253 LINE",
"219 400 LINE",
"258 359 LINE",
"137 241 LINE",
"265 101 LINE",
"225 61 LINE",
"67 230 LINE"
);
}
);
width = 500;
}
);
unicode = 00AB;
},
{
glyphname = logicalnot;
layers = (
{
layerId = "55D69AED-E863-4611-8C8F-E227C62A7D68";
name = Regular;
paths = (
{
closed = 1;
nodes = (
"91 347 LINE",
"414 347 LINE",
"414 157 LINE",
"350 157 LINE",
"350 284 LINE",
"91 284 LINE"
);
}
);
width = 500;
}
);
unicode = 00AC;
},
{
glyphname = softhyphen;
layers = (
{
layerId = "55D69AED-E863-4611-8C8F-E227C62A7D68";
name = Regular;
paths = (
{
closed = 1;
nodes = (
"71 348 LINE",
"431 348 LINE",
"431 281 LINE",
"71 281 LINE"
);
}
);
width = 500;
}
);
unicode = 00AD;
},
{
glyphname = registered;
layers = (
{
layerId = "55D69AED-E863-4611-8C8F-E227C62A7D68";
name = Regular;
paths = (
{
closed = 1;
nodes = (
"379 44 OFFCURVE",
"322 19 OFFCURVE",
"255 19 CURVE SMOOTH",
"188 19 OFFCURVE",
"128 47 OFFCURVE",
"85 94 CURVE SMOOTH",
"41 141 OFFCURVE",
"14 203 OFFCURVE",
"14 274 CURVE SMOOTH",
"14 345 OFFCURVE",
"41 408 OFFCURVE",
"85 455 CURVE SMOOTH",
"129 502 OFFCURVE",
"189 530 OFFCURVE",
"256 530 CURVE SMOOTH",
"321 530 OFFCURVE",
"382 502 OFFCURVE",
"426 455 CURVE SMOOTH",
"470 408 OFFCURVE",
"498 345 OFFCURVE",
"498 274 CURVE SMOOTH",
"498 203 OFFCURVE",
"474 143 OFFCURVE",
"426 93 CURVE SMOOTH"
);
},
{
closed = 1;
nodes = (
"202 488 OFFCURVE",
"153 465 OFFCURVE",
"117 426 CURVE SMOOTH",
"81 387 OFFCURVE",
"59 334 OFFCURVE",
"59 274 CURVE SMOOTH",
"59 215 OFFCURVE",
"81 162 OFFCURVE",
"117 124 CURVE SMOOTH",
"153 86 OFFCURVE",
"202 62 OFFCURVE",
"257 62 CURVE SMOOTH",
"310 62 OFFCURVE",
"360 86 OFFCURVE",
"396 125 CURVE SMOOTH",
"432 164 OFFCURVE",
"455 216 OFFCURVE",
"455 275 CURVE SMOOTH",
"455 334 OFFCURVE",
"433 386 OFFCURVE",
"397 425 CURVE SMOOTH",
"361 464 OFFCURVE",
"312 488 OFFCURVE",
"257 488 CURVE SMOOTH"
);
},
{
closed = 1;
nodes = (
"155 133 LINE",
"155 425 LINE",
"249 425 LINE SMOOTH",
"336 425 OFFCURVE",
"369 389 OFFCURVE",
"369 340 CURVE SMOOTH",
"369 307 OFFCURVE",
"349 274 OFFCURVE",
"312 263 CURVE",
"376 138 LINE",
"329 131 LINE",
"267 256 LINE",
"201 256 LINE",
"201 133 LINE"
);
},
{
closed = 1;
nodes = (
"253 296 LINE SMOOTH",
"300 296 OFFCURVE",
"324 311 OFFCURVE",
"324 340 CURVE SMOOTH",
"324 369 OFFCURVE",
"299 384 OFFCURVE",
"250 384 CURVE SMOOTH",
"201 384 LINE",
"201 296 LINE"
);
}
);
width = 500;
}
);
unicode = 00AE;
},
{
glyphname = macron;
layers = (
{
layerId = "55D69AED-E863-4611-8C8F-E227C62A7D68";
name = Regular;
paths = (
{
closed = 1;
nodes = (
"123 621 LINE",
"377 621 LINE",
"377 565 LINE",
"123 565 LINE"
);
}
);
width = 500;
}
);
unicode = 00AF;
},
{
glyphname = degree;
layers = (
{
layerId = "55D69AED-E863-4611-8C8F-E227C62A7D68";
name = Regular;
paths = (
{
closed = 1;
nodes = (
"378 573 OFFCURVE",
"391 541 OFFCURVE",
"391 504 CURVE SMOOTH",
"391 468 OFFCURVE",
"376 434 OFFCURVE",
"352 410 CURVE SMOOTH",
"327 386 OFFCURVE",
"293 370 OFFCURVE",
"256 370 CURVE SMOOTH",
"219 370 OFFCURVE",
"185 385 OFFCURVE",
"161 409 CURVE SMOOTH",
"136 433 OFFCURVE",
"121 467 OFFCURVE",
"121 504 CURVE SMOOTH",
"121 541 OFFCURVE",
"137 576 OFFCURVE",
"162 600 CURVE SMOOTH",
"186 624 OFFCURVE",
"220 639 OFFCURVE",
"256 639 CURVE SMOOTH",
"293 639 OFFCURVE",
"325 626 OFFCURVE",
"351 599 CURVE"
);
},
{
closed = 1;
nodes = (
"295 578 OFFCURVE",
"278 586 OFFCURVE",
"257 586 CURVE SMOOTH",
"237 586 OFFCURVE",
"217 577 OFFCURVE",
"204 562 CURVE SMOOTH",
"191 546 OFFCURVE",
"182 526 OFFCURVE",
"182 505 CURVE SMOOTH",
"182 462 OFFCURVE",
"215 425 OFFCURVE",
"256 425 CURVE SMOOTH",
"299 425 OFFCURVE",
"331 462 OFFCURVE",
"331 505 CURVE SMOOTH",
"331 526 OFFCURVE",
"324 545 OFFCURVE",
"309 562 CURVE SMOOTH"
);
}
);
width = 500;
}
);
unicode = 00B0;
},
{
glyphname = plusminus;
layers = (
{
layerId = "55D69AED-E863-4611-8C8F-E227C62A7D68";
name = Regular;
paths = (
{
closed = 1;
nodes = (
"46 80 LINE",
"457 80 LINE",
"457 17 LINE",
"46 17 LINE"
);
},
{
closed = 1;
nodes = (
"222 575 LINE",
"285 575 LINE",
"285 404 LINE",
"456 404 LINE",
"456 343 LINE",
"285 343 LINE",
"285 155 LINE",
"222 155 LINE",
"222 343 LINE",
"45 343 LINE",
"45 404 LINE",
"222 404 LINE"
);
}
);
width = 500;
}
);
unicode = 00B1;
},
{
glyphname = uni00B2;
layers = (
{
layerId = "55D69AED-E863-4611-8C8F-E227C62A7D68";
name = Regular;
paths = (
{
closed = 1;
nodes = (
"111 554 LINE",
"142 606 OFFCURVE",
"195 637 OFFCURVE",
"264 637 CURVE SMOOTH",
"297 637 OFFCURVE",
"329 625 OFFCURVE",
"353 605 CURVE SMOOTH",
"377 585 OFFCURVE",
"392 556 OFFCURVE",
"392 523 CURVE SMOOTH",
"392 496 OFFCURVE",
"386 478 OFFCURVE",
"370 458 CURVE SMOOTH",
"354 438 OFFCURVE",
"325 416 OFFCURVE",
"280 383 CURVE SMOOTH",
"245 356 OFFCURVE",
"217 332 OFFCURVE",
"194 307 CURVE",
"376 307 LINE SMOOTH",
"379 307 OFFCURVE",
"383 309 OFFCURVE",
"387 312 CURVE",
"390 315 OFFCURVE",
"394 316 OFFCURVE",
"397 316 CURVE SMOOTH",
"400 316 LINE",
"400 253 LINE",
"121 253 LINE",
"121 297 LINE",
"157 345 OFFCURVE",
"192 380 OFFCURVE",
"252 425 CURVE SMOOTH",
"280 447 LINE SMOOTH",
"315 474 OFFCURVE",
"331 502 OFFCURVE",
"331 525 CURVE SMOOTH",
"331 558 OFFCURVE",
"301 586 OFFCURVE",
"260 586 CURVE SMOOTH",
"221 586 OFFCURVE",
"190 572 OFFCURVE",
"168 544 CURVE",
"166 541 OFFCURVE",
"164 538 OFFCURVE",
"163 534 CURVE",
"161 529 OFFCURVE",
"159 526 OFFCURVE",
"158 523 CURVE"
);
}
);
width = 500;
}
);
unicode = 00B2;
},
{
glyphname = uni00B3;
layers = (
{
layerId = "55D69AED-E863-4611-8C8F-E227C62A7D68";
name = Regular;
paths = (
{
closed = 1;
nodes = (
"294 638 OFFCURVE",
"327 626 OFFCURVE",
"351 606 CURVE SMOOTH",
"375 586 OFFCURVE",
"389 559 OFFCURVE",
"389 530 CURVE SMOOTH",
"389 494 OFFCURVE",
"365 463 OFFCURVE",
"332 452 CURVE",
"375 445 OFFCURVE",
"406 409 OFFCURVE",
"406 366 CURVE SMOOTH",
"406 334 OFFCURVE",
"388 306 OFFCURVE",
"361 285 CURVE SMOOTH",
"333 264 OFFCURVE",
"295 251 OFFCURVE",
"255 251 CURVE SMOOTH",
"198 251 OFFCURVE",
"150 273 OFFCURVE",
"112 316 CURVE",
"159 368 LINE",
"162 365 OFFCURVE",
"164 360 OFFCURVE",
"166 354 CURVE",
"167 347 OFFCURVE",
"170 343 OFFCURVE",
"173 340 CURVE SMOOTH",
"195 318 OFFCURVE",
"220 307 OFFCURVE",
"249 307 CURVE SMOOTH",
"306 307 OFFCURVE",
"344 336 OFFCURVE",
"344 372 CURVE SMOOTH",
"344 407 OFFCURVE",
"311 427 OFFCURVE",
"256 427 CURVE SMOOTH",
"245 427 OFFCURVE",
"237 426 OFFCURVE",
"226 425 CURVE",
"226 476 LINE",
"229 475 OFFCURVE",
"233 475 OFFCURVE",
"236 475 CURVE SMOOTH",
"239 475 OFFCURVE",
"243 475 OFFCURVE",
"246 475 CURVE SMOOTH",
"306 475 OFFCURVE",
"329 498 OFFCURVE",
"329 527 CURVE SMOOTH",
"329 556 OFFCURVE",
"298 585 OFFCURVE",
"255 585 CURVE SMOOTH",
"217 585 OFFCURVE",
"186 570 OFFCURVE",
"161 539 CURVE",
"125 576 LINE",
"160 617 OFFCURVE",
"205 638 OFFCURVE",
"258 638 CURVE SMOOTH"
);
}
);
width = 500;
}
);
unicode = 00B3;
},
{
glyphname = acute;
layers = (
{
layerId = "55D69AED-E863-4611-8C8F-E227C62A7D68";
name = Regular;
paths = (
{
closed = 1;
nodes = (
"292 699 LINE",
"355 657 LINE",
"254 522 LINE",
"204 552 LINE"
);
}
);
width = 500;
}
);
unicode = 00B4;
},
{
glyphname = micro;
layers = (
{
layerId = "55D69AED-E863-4611-8C8F-E227C62A7D68";
name = Regular;
paths = (
{
closed = 1;
nodes = (
"372 116 LINE SMOOTH",
"372 70 OFFCURVE",
"385 47 OFFCURVE",
"412 47 CURVE SMOOTH",
"431 47 OFFCURVE",
"453 67 OFFCURVE",
"461 84 CURVE SMOOTH",
"467 96 LINE",
"494 45 LINE",
"469 8 OFFCURVE",
"440 -10 OFFCURVE",
"406 -10 CURVE SMOOTH",
"363 -10 OFFCURVE",
"329 24 OFFCURVE",
"324 67 CURVE",
"301 15 OFFCURVE",
"250 -10 OFFCURVE",
"201 -10 CURVE SMOOTH",
"152 -10 OFFCURVE",
"106 13 OFFCURVE",
"87 60 CURVE",
"87 22 OFFCURVE",
"87 -16 OFFCURVE",
"87 -53 CURVE SMOOTH",
"87 -91 OFFCURVE",
"87 -129 OFFCURVE",
"86 -167 CURVE",
"24 -167 LINE",
"24 -148 OFFCURVE",
"26 -109 OFFCURVE",
"30 -62 CURVE SMOOTH",
"33 -15 OFFCURVE",
"36 39 OFFCURVE",
"39 87 CURVE SMOOTH",
"42 135 OFFCURVE",
"44 178 OFFCURVE",
"44 202 CURVE SMOOTH",
"44 457 LINE",
"110 457 LINE",
"110 186 LINE SMOOTH",
"110 130 OFFCURVE",
"122 96 OFFCURVE",
"140 75 CURVE SMOOTH",
"158 54 OFFCURVE",
"182 46 OFFCURVE",
"207 43 CURVE",
"232 46 OFFCURVE",
"257 57 OFFCURVE",
"277 79 CURVE SMOOTH",
"296 101 OFFCURVE",
"308 135 OFFCURVE",
"308 183 CURVE SMOOTH",
"308 192 LINE",
"308 457 LINE",
"372 457 LINE"
);
}
);
width = 500;
}
);
unicode = 00B5;
},
{
glyphname = paragraph;
layers = (
{
layerId = "55D69AED-E863-4611-8C8F-E227C62A7D68";
name = Regular;
paths = (
{
closed = 1;
nodes = (
"436 665 LINE",
"436 -68 LINE",
"378 -68 LINE",
"378 608 LINE",
"302 608 LINE",
"302 -68 LINE",
"243 -68 LINE",
"243 322 LINE",
"192 325 OFFCURVE",
"148 346 OFFCURVE",
"116 378 CURVE SMOOTH",
"84 409 OFFCURVE",
"64 451 OFFCURVE",
"64 496 CURVE SMOOTH",
"64 541 OFFCURVE",
"79 584 OFFCURVE",
"119 616 CURVE SMOOTH",
"158 647 OFFCURVE",
"219 665 OFFCURVE",
"311 665 CURVE SMOOTH"
);
}
);
width = 500;
}
);
unicode = 00B6;
},
{
glyphname = periodcentered;
layers = (
{
layerId = "55D69AED-E863-4611-8C8F-E227C62A7D68";
name = Regular;
paths = (
{
closed = 1;
nodes = (
"292 360 OFFCURVE",
"298 346 OFFCURVE",
"298 331 CURVE SMOOTH",
"298 300 OFFCURVE",
"271 274 OFFCURVE",
"238 274 CURVE SMOOTH",
"205 274 OFFCURVE",
"179 299 OFFCURVE",
"179 331 CURVE SMOOTH",
"179 363 OFFCURVE",
"207 388 OFFCURVE",
"238 388 CURVE SMOOTH",
"253 388 OFFCURVE",
"267 382 OFFCURVE",
"280 371 CURVE"
);
}
);
width = 500;
}
);
unicode = 00B7;
},
{
glyphname = cedilla;
layers = (
{
layerId = "55D69AED-E863-4611-8C8F-E227C62A7D68";
name = Regular;
paths = (
{
closed = 1;
nodes = (
"327 -93 OFFCURVE",
"311 -85 OFFCURVE",
"280 -85 CURVE SMOOTH",
"250 -85 LINE",
"261 0 LINE",
"305 0 LINE",
"299 -47 LINE",
"316 -48 LINE SMOOTH",
"361 -51 OFFCURVE",
"384 -70 OFFCURVE",
"384 -103 CURVE SMOOTH",
"384 -140 OFFCURVE",
"347 -177 OFFCURVE",
"268 -177 CURVE SMOOTH",
"229 -177 OFFCURVE",
"192 -165 OFFCURVE",
"157 -140 CURVE",
"182 -98 LINE",
"211 -122 OFFCURVE",
"244 -134 OFFCURVE",
"281 -134 CURVE SMOOTH",
"298 -134 OFFCURVE",
"310 -131 OFFCURVE",
"317 -126 CURVE SMOOTH",
"324 -121 OFFCURVE",
"327 -116 OFFCURVE",
"327 -109 CURVE SMOOTH"
);
}
);
width = 500;
}
);
unicode = 00B8;
},
{
glyphname = uni00B9;
layers = (
{
layerId = "55D69AED-E863-4611-8C8F-E227C62A7D68";
name = Regular;
paths = (
{
closed = 1;
nodes = (
"299 633 LINE",
"299 253 LINE",
"235 253 LINE",
"235 553 LINE",
"138 528 LINE",
"122 559 LINE",
"255 633 LINE"
);
}
);
width = 500;
}
);
unicode = 00B9;
},
{
glyphname = ordmasculine;
layers = (
{
layerId = "55D69AED-E863-4611-8C8F-E227C62A7D68";
name = Regular;
paths = (
{
closed = 1;
nodes = (
"96 490 OFFCURVE",
"114 537 OFFCURVE",
"142 570 CURVE SMOOTH",
"170 602 OFFCURVE",
"209 622 OFFCURVE",
"249 622 CURVE SMOOTH",
"290 622 OFFCURVE",
"327 606 OFFCURVE",
"354 575 CURVE SMOOTH",
"381 544 OFFCURVE",
"397 500 OFFCURVE",
"397 441 CURVE SMOOTH",
"397 384 OFFCURVE",
"379 337 OFFCURVE",
"351 305 CURVE SMOOTH",
"323 273 OFFCURVE",
"285 256 OFFCURVE",
"245 256 CURVE SMOOTH",
"204 256 OFFCURVE",
"167 274 OFFCURVE",
"140 306 CURVE SMOOTH",
"112 337 OFFCURVE",
"96 381 OFFCURVE",
"96 434 CURVE SMOOTH"
);
},
{
closed = 1;
nodes = (
"198 566 OFFCURVE",
"156 518 OFFCURVE",
"156 438 CURVE SMOOTH",
"156 358 OFFCURVE",
"198 314 OFFCURVE",
"246 314 CURVE SMOOTH",
"295 314 OFFCURVE",
"337 357 OFFCURVE",
"337 437 CURVE SMOOTH",
"337 518 OFFCURVE",
"296 566 OFFCURVE",
"247 566 CURVE SMOOTH"
);
},
{
closed = 1;
nodes = (
"76 206 LINE",
"425 206 LINE",
"425 152 LINE",
"76 152 LINE"
);
}
);
width = 500;
}
);
unicode = 00BA;
},
{
glyphname = guillemotright;
lastChange = "2013-11-11 11:56:39 -0600";
layers = (
{
layerId = "55D69AED-E863-4611-8C8F-E227C62A7D68";
name = Regular;
paths = (
{
closed = 1;
nodes = (
"265 253 LINE",
"265 230 LINE",
"107 61 LINE",
"67 101 LINE",
"195 241 LINE",
"74 359 LINE",
"113 400 LINE"
);
},
{
closed = 1;
nodes = (
"446 253 LINE",
"446 230 LINE",
"288 61 LINE",
"249 101 LINE",
"376 241 LINE",
"255 359 LINE",
"294 400 LINE"
);
}
);
width = 500;
}
);
unicode = 00BB;
},
{
glyphname = onequarter;
layers = (
{
layerId = "55D69AED-E863-4611-8C8F-E227C62A7D68";
name = Regular;
paths = (
{
closed = 1;
nodes = (
"76 -16 LINE",
"389 665 LINE",
"437 638 LINE",
"123 -42 LINE"
);
},
{
closed = 1;
nodes = (
"396 242 LINE",
"427 242 LINE",
"427 45 LINE",
"477 45 LINE",
"477 8 LINE",
"427 8 LINE",
"427 -70 LINE",
"381 -70 LINE",
"381 8 LINE",
"236 8 LINE",
"236 37 LINE"
);
},
{
closed = 1;
nodes = (
"382 164 LINE",
"288 45 LINE",
"382 45 LINE"
);
},
{
closed = 1;
nodes = (
"146 677 LINE",
"146 374 LINE",
"95 374 LINE",
"95 614 LINE",
"18 594 LINE",
"5 619 LINE",
"112 677 LINE"
);
}
);
width = 500;
}
);
unicode = 00BC;
},
{
glyphname = onehalf;
layers = (
{
layerId = "55D69AED-E863-4611-8C8F-E227C62A7D68";
name = Regular;
paths = (
{
closed = 1;
nodes = (
"76 -16 LINE",
"389 665 LINE",
"437 638 LINE",
"123 -42 LINE"
);
},
{
closed = 1;
nodes = (
"263 168 LINE",
"288 211 OFFCURVE",
"330 235 OFFCURVE",
"389 235 CURVE SMOOTH",
"417 235 OFFCURVE",
"441 224 OFFCURVE",
"459 207 CURVE SMOOTH",
"477 190 OFFCURVE",
"487 167 OFFCURVE",
"487 143 CURVE SMOOTH",
"487 122 OFFCURVE",
"483 107 OFFCURVE",
"471 91 CURVE",
"458 75 OFFCURVE",
"435 58 OFFCURVE",
"398 31 CURVE SMOOTH",
"369 10 OFFCURVE",
"346 -10 OFFCURVE",
"329 -29 CURVE",
"475 -29 LINE SMOOTH",
"478 -29 OFFCURVE",
"481 -28 OFFCURVE",
"484 -25 CURVE",
"487 -23 OFFCURVE",
"491 -22 OFFCURVE",
"494 -22 CURVE",
"494 -73 LINE",
"270 -73 LINE",
"270 -38 LINE",
"294 -6 OFFCURVE",
"328 30 OFFCURVE",
"375 65 CURVE SMOOTH",
"398 82 LINE",
"425 105 OFFCURVE",
"439 125 OFFCURVE",
"439 140 CURVE SMOOTH",
"439 173 OFFCURVE",
"415 194 OFFCURVE",
"379 194 CURVE SMOOTH",
"348 194 OFFCURVE",
"325 183 OFFCURVE",
"308 160 CURVE",
"306 158 OFFCURVE",
"305 155 OFFCURVE",
"304 152 CURVE",
"303 148 OFFCURVE",
"301 145 OFFCURVE",
"300 143 CURVE"
);
},
{
closed = 1;
nodes = (
"146 677 LINE",
"146 374 LINE",
"95 374 LINE",
"95 614 LINE",
"18 594 LINE",
"5 619 LINE",
"112 677 LINE"
);
}
);
width = 500;
}
);
unicode = 00BD;
},
{
glyphname = threequarters;
layers = (
{
layerId = "55D69AED-E863-4611-8C8F-E227C62A7D68";
name = Regular;
paths = (
{
closed = 1;
nodes = (
"81 -16 LINE",
"394 665 LINE",
"442 638 LINE",
"128 -42 LINE"
);
},
{
closed = 1;
nodes = (
"157 684 OFFCURVE",
"183 674 OFFCURVE",
"202 659 CURVE SMOOTH",
"221 643 OFFCURVE",
"232 622 OFFCURVE",
"232 598 CURVE SMOOTH",
"232 569 OFFCURVE",
"214 544 OFFCURVE",
"187 535 CURVE",
"222 530 OFFCURVE",
"246 500 OFFCURVE",
"246 467 CURVE SMOOTH",
"246 440 OFFCURVE",
"232 418 OFFCURVE",
"210 401 CURVE SMOOTH",
"188 384 OFFCURVE",
"157 374 OFFCURVE",
"125 374 CURVE SMOOTH",
"80 374 OFFCURVE",
"42 391 OFFCURVE",
"11 426 CURVE",
"49 468 LINE",
"51 465 OFFCURVE",
"53 462 OFFCURVE",
"54 457 CURVE SMOOTH",
"55 452 OFFCURVE",
"57 448 OFFCURVE",
"60 445 CURVE SMOOTH",
"79 426 OFFCURVE",
"100 419 OFFCURVE",
"123 419 CURVE SMOOTH",
"162 419 OFFCURVE",
"197 442 OFFCURVE",
"197 467 CURVE SMOOTH",
"197 499 OFFCURVE",
"177 515 OFFCURVE",
"126 515 CURVE SMOOTH",
"122 515 OFFCURVE",
"118 515 OFFCURVE",
"114 515 CURVE SMOOTH",
"110 515 OFFCURVE",
"106 515 OFFCURVE",
"102 514 CURVE",
"102 554 LINE",
"105 553 OFFCURVE",
"109 552 OFFCURVE",
"113 553 CURVE",
"117 553 OFFCURVE",
"121 553 OFFCURVE",
"124 553 CURVE SMOOTH",
"167 553 OFFCURVE",
"185 573 OFFCURVE",
"185 594 CURVE SMOOTH",
"185 617 OFFCURVE",
"162 642 OFFCURVE",
"125 642 CURVE SMOOTH",
"95 642 OFFCURVE",
"70 629 OFFCURVE",
"51 604 CURVE",
"22 634 LINE",
"50 667 OFFCURVE",
"85 684 OFFCURVE",
"128 684 CURVE SMOOTH"
);
},
{
closed = 1;
nodes = (
"396 242 LINE",
"427 242 LINE",
"427 45 LINE",
"477 45 LINE",
"477 8 LINE",
"427 8 LINE",
"427 -70 LINE",
"381 -70 LINE",
"381 8 LINE",
"236 8 LINE",
"236 37 LINE"
);
},
{
closed = 1;
nodes = (
"382 164 LINE",
"288 45 LINE",
"382 45 LINE"
);
}
);
width = 500;
}
);
unicode = 00BE;
},
{
glyphname = questiondown;
layers = (
{
layerId = "55D69AED-E863-4611-8C8F-E227C62A7D68";
name = Regular;
paths = (
{
closed = 1;
nodes = (
"187 578 OFFCURVE",
"181 591 OFFCURVE",
"181 608 CURVE SMOOTH",
"181 640 OFFCURVE",
"209 665 OFFCURVE",
"240 665 CURVE SMOOTH",
"271 665 OFFCURVE",
"300 639 OFFCURVE",
"300 608 CURVE SMOOTH",
"300 577 OFFCURVE",
"273 551 OFFCURVE",
"240 551 CURVE SMOOTH",
"223 551 OFFCURVE",
"209 556 OFFCURVE",
"198 567 CURVE SMOOTH"
);
},
{
closed = 1;
nodes = (
"438 91 LINE",
"395 26 OFFCURVE",
"321 -13 OFFCURVE",
"245 -13 CURVE SMOOTH",
"189 -13 OFFCURVE",
"145 7 OFFCURVE",
"114 39 CURVE SMOOTH",
"83 71 OFFCURVE",
"67 115 OFFCURVE",
"67 163 CURVE SMOOTH",
"67 232 OFFCURVE",
"104 274 OFFCURVE",
"144 307 CURVE SMOOTH",
"166 325 LINE SMOOTH",
"203 356 OFFCURVE",
"210 383 OFFCURVE",
"210 426 CURVE SMOOTH",
"210 468 LINE",
"275 468 LINE",
"275 426 LINE SMOOTH",
"275 395 OFFCURVE",
"274 375 OFFCURVE",
"266 354 CURVE",
"257 333 OFFCURVE",
"240 310 OFFCURVE",
"209 278 CURVE SMOOTH",
"161 227 OFFCURVE",
"146 197 OFFCURVE",
"146 158 CURVE SMOOTH",
"146 129 OFFCURVE",
"158 102 OFFCURVE",
"177 83 CURVE SMOOTH",
"196 64 OFFCURVE",
"221 52 OFFCURVE",
"248 52 CURVE SMOOTH",
"304 52 OFFCURVE",
"355 86 OFFCURVE",
"387 139 CURVE"
);
}
);
width = 500;
}
);
unicode = 00BF;
},
{
glyphname = Agrave;
layers = (
{
layerId = "55D69AED-E863-4611-8C8F-E227C62A7D68";
name = Regular;
paths = (
{
closed = 1;
nodes = (
"15 0 LINE",
"235 634 LINE",
"243 634 LINE",
"483 0 LINE",
"411 0 LINE",
"342 182 LINE",
"144 182 LINE",
"84 0 LINE"
);
},
{
closed = 1;
nodes = (
"326 236 LINE",
"238 474 LINE",
"158 236 LINE"
);
},
{
closed = 1;
nodes = (
"183 791 LINE",
"336 702 LINE",
"313 660 LINE",
"143 721 LINE"
);
}
);
width = 500;
}
);
unicode = 00C0;
},
{
glyphname = Aacute;
layers = (
{
layerId = "55D69AED-E863-4611-8C8F-E227C62A7D68";
name = Regular;
paths = (
{
closed = 1;
nodes = (
"15 0 LINE",
"235 634 LINE",
"243 634 LINE",
"483 0 LINE",
"411 0 LINE",
"342 182 LINE",
"144 182 LINE",
"84 0 LINE"
);
},
{
closed = 1;
nodes = (
"326 236 LINE",
"238 474 LINE",
"158 236 LINE"
);
},
{
closed = 1;
nodes = (
"309 791 LINE",
"349 721 LINE",
"180 660 LINE",
"157 702 LINE"
);
}
);
width = 500;
}
);
unicode = 00C1;
},
{
glyphname = Acircumflex;
layers = (
{
layerId = "55D69AED-E863-4611-8C8F-E227C62A7D68";
name = Regular;
paths = (
{
closed = 1;
nodes = (
"15 0 LINE",
"235 634 LINE",
"243 634 LINE",
"483 0 LINE",
"411 0 LINE",
"342 182 LINE",
"144 182 LINE",
"84 0 LINE"
);
},
{
closed = 1;
nodes = (
"326 236 LINE",
"238 474 LINE",
"158 236 LINE"
);
},
{
closed = 1;
nodes = (
"103 692 LINE",
"234 791 LINE",
"256 791 LINE",
"379 693 LINE",
"346 655 LINE",
"243 726 LINE",
"131 658 LINE"
);
}
);
width = 500;
}
);
unicode = 00C2;
},
{
glyphname = Atilde;
layers = (
{
layerId = "55D69AED-E863-4611-8C8F-E227C62A7D68";
name = Regular;
paths = (
{
closed = 1;
nodes = (
"15 0 LINE",
"235 634 LINE",
"243 634 LINE",
"483 0 LINE",
"411 0 LINE",
"342 182 LINE",
"144 182 LINE",
"84 0 LINE"
);
},
{
closed = 1;
nodes = (
"326 236 LINE",
"238 474 LINE",
"158 236 LINE"
);
},
{
closed = 1;
nodes = (
"86 715 LINE",
"123 773 OFFCURVE",
"160 802 OFFCURVE",
"199 802 CURVE SMOOTH",
"223 802 OFFCURVE",
"250 784 OFFCURVE",
"274 765 CURVE",
"285 755 OFFCURVE",
"296 746 OFFCURVE",
"305 739 CURVE",
"314 731 OFFCURVE",
"320 727 OFFCURVE",
"325 727 CURVE SMOOTH",
"356 727 OFFCURVE",
"366 751 OFFCURVE",
"387 780 CURVE",
"425 740 LINE",
"385 692 OFFCURVE",
"359 669 OFFCURVE",
"328 669 CURVE SMOOTH",
"297 669 OFFCURVE",
"274 688 OFFCURVE",
"254 707 CURVE",
"243 716 OFFCURVE",
"234 725 OFFCURVE",
"225 733 CURVE SMOOTH",
"216 741 OFFCURVE",
"208 745 OFFCURVE",
"200 745 CURVE SMOOTH",
"171 745 OFFCURVE",
"159 730 OFFCURVE",
"131 683 CURVE"
);
}
);
width = 500;
}
);
unicode = 00C3;
},
{
glyphname = Adieresis;
layers = (
{
layerId = "55D69AED-E863-4611-8C8F-E227C62A7D68";
name = Regular;
paths = (
{
closed = 1;
nodes = (
"15 0 LINE",
"235 634 LINE",
"243 634 LINE",
"483 0 LINE",
"411 0 LINE",
"342 182 LINE",
"144 182 LINE",
"84 0 LINE"
);
},
{
closed = 1;
nodes = (
"326 236 LINE",
"238 474 LINE",
"158 236 LINE"
);
},
{
closed = 1;
nodes = (
"197 764 OFFCURVE",
"202 752 OFFCURVE",
"202 738 CURVE SMOOTH",
"202 711 OFFCURVE",
"179 688 OFFCURVE",
"151 688 CURVE SMOOTH",
"124 688 OFFCURVE",
"101 711 OFFCURVE",
"101 738 CURVE SMOOTH",
"101 765 OFFCURVE",
"124 789 OFFCURVE",
"151 789 CURVE SMOOTH",
"165 789 OFFCURVE",
"177 784 OFFCURVE",
"187 774 CURVE SMOOTH"
);
},
{
closed = 1;
nodes = (
"375 764 OFFCURVE",
"380 752 OFFCURVE",
"380 738 CURVE SMOOTH",
"380 711 OFFCURVE",
"357 688 OFFCURVE",
"329 688 CURVE SMOOTH",
"302 688 OFFCURVE",
"280 710 OFFCURVE",
"280 738 CURVE SMOOTH",
"280 766 OFFCURVE",
"302 789 OFFCURVE",
"329 789 CURVE SMOOTH",
"343 789 OFFCURVE",
"355 784 OFFCURVE",
"365 774 CURVE SMOOTH"
);
}
);
width = 500;
}
);
unicode = 00C4;
},
{
glyphname = Aring;
layers = (
{
layerId = "55D69AED-E863-4611-8C8F-E227C62A7D68";
name = Regular;
paths = (
{
closed = 1;
nodes = (
"218 753 OFFCURVE",
"199 734 OFFCURVE",
"199 707 CURVE SMOOTH",
"199 682 OFFCURVE",
"218 662 OFFCURVE",
"241 662 CURVE SMOOTH",
"264 662 OFFCURVE",
"282 682 OFFCURVE",
"282 707 CURVE SMOOTH",
"282 734 OFFCURVE",
"264 753 OFFCURVE",
"241 753 CURVE SMOOTH"
);
},
{
closed = 1;
nodes = (
"326 236 LINE",
"238 474 LINE",
"158 236 LINE"
);
},
{
closed = 1;
nodes = (
"483 0 LINE",
"411 0 LINE",
"342 182 LINE",
"144 182 LINE",
"84 -1 LINE",
"15 -1 LINE",
"230 619 LINE",
"183 624 OFFCURVE",
"148 661 OFFCURVE",
"148 708 CURVE SMOOTH",
"148 732 OFFCURVE",
"158 753 OFFCURVE",
"175 769 CURVE SMOOTH",
"191 785 OFFCURVE",
"215 795 OFFCURVE",
"240 795 CURVE SMOOTH",
"265 795 OFFCURVE",
"288 785 OFFCURVE",
"305 769 CURVE SMOOTH",
"321 753 OFFCURVE",
"331 732 OFFCURVE",
"331 708 CURVE SMOOTH",
"331 661 OFFCURVE",
"296 623 OFFCURVE",
"248 619 CURVE"
);
}
);
width = 500;
}
);
unicode = 00C5;
},
{
glyphname = AE;
layers = (
{
layerId = "55D69AED-E863-4611-8C8F-E227C62A7D68";
name = Regular;
paths = (
{
closed = 1;
nodes = (
"200 624 LINE",
"484 624 LINE",
"484 562 LINE",
"313 562 LINE",
"313 357 LINE",
"458 357 LINE",
"458 293 LINE",
"313 293 LINE",
"313 62 LINE",
"482 62 LINE",
"482 0 LINE",
"252 0 LINE",
"252 169 LINE",
"122 169 LINE",
"68 0 LINE",
"4 0 LINE"
);
},
{
closed = 1;
nodes = (
"252 562 LINE",
"241 562 LINE",
"136 227 LINE",
"252 227 LINE"
);
}
);
width = 500;
}
);
unicode = 00C6;
},
{
glyphname = Ccedilla;
layers = (
{
layerId = "55D69AED-E863-4611-8C8F-E227C62A7D68";
name = Regular;
paths = (
{
closed = 1;
nodes = (
"327 -93 OFFCURVE",
"311 -85 OFFCURVE",
"280 -85 CURVE SMOOTH",
"250 -85 LINE",
"260 -10 LINE",
"204 -5 OFFCURVE",
"149 21 OFFCURVE",
"108 72 CURVE SMOOTH",
"67 123 OFFCURVE",
"41 199 OFFCURVE",
"41 303 CURVE SMOOTH",
"41 431 OFFCURVE",
"76 513 OFFCURVE",
"122 562 CURVE SMOOTH",
"168 610 OFFCURVE",
"227 628 OFFCURVE",
"276 628 CURVE SMOOTH",
"317 628 OFFCURVE",
"358 615 OFFCURVE",
"392 594 CURVE SMOOTH",
"426 573 OFFCURVE",
"453 542 OFFCURVE",
"469 505 CURVE",
"402 472 LINE",
"399 474 OFFCURVE",
"398 477 OFFCURVE",
"398 482 CURVE SMOOTH",
"398 490 OFFCURVE",
"397 496 OFFCURVE",
"395 500 CURVE",
"368 544 OFFCURVE",
"323 572 OFFCURVE",
"275 572 CURVE SMOOTH",
"230 572 OFFCURVE",
"189 548 OFFCURVE",
"159 504 CURVE SMOOTH",
"129 459 OFFCURVE",
"109 394 OFFCURVE",
"109 313 CURVE SMOOTH",
"109 234 OFFCURVE",
"127 169 OFFCURVE",
"159 123 CURVE SMOOTH",
"190 77 OFFCURVE",
"233 50 OFFCURVE",
"281 50 CURVE SMOOTH",
"330 50 OFFCURVE",
"380 79 OFFCURVE",
"408 126 CURVE",
"460 92 LINE",
"425 36 OFFCURVE",
"368 -1 OFFCURVE",
"304 -9 CURVE",
"299 -47 LINE",
"316 -48 LINE SMOOTH",
"361 -51 OFFCURVE",
"384 -70 OFFCURVE",
"384 -103 CURVE SMOOTH",
"384 -140 OFFCURVE",
"347 -177 OFFCURVE",
"268 -177 CURVE SMOOTH",
"229 -177 OFFCURVE",
"192 -165 OFFCURVE",
"157 -140 CURVE",
"182 -98 LINE",
"211 -122 OFFCURVE",
"244 -134 OFFCURVE",
"281 -134 CURVE SMOOTH",
"298 -134 OFFCURVE",
"310 -131 OFFCURVE",
"317 -126 CURVE SMOOTH",
"324 -121 OFFCURVE",
"327 -116 OFFCURVE",
"327 -109 CURVE SMOOTH"
);
}
);
width = 500;
}
);
unicode = 00C7;
},
{
glyphname = Egrave;
layers = (
{
layerId = "55D69AED-E863-4611-8C8F-E227C62A7D68";
name = Regular;
paths = (
{
closed = 1;
nodes = (
"59 624 LINE",
"441 624 LINE",
"441 562 LINE",
"125 562 LINE",
"125 357 LINE",
"386 357 LINE",
"386 293 LINE",
"125 293 LINE",
"125 62 LINE",
"438 62 LINE",
"438 0 LINE",
"59 0 LINE"
);
},
{
closed = 1;
nodes = (
"183 791 LINE",
"336 702 LINE",
"313 660 LINE",
"143 721 LINE"
);
}
);
width = 500;
}
);
unicode = 00C8;
},
{
glyphname = Eacute;
layers = (
{
layerId = "55D69AED-E863-4611-8C8F-E227C62A7D68";
name = Regular;
paths = (
{
closed = 1;
nodes = (
"59 624 LINE",
"441 624 LINE",
"441 562 LINE",
"125 562 LINE",
"125 357 LINE",
"386 357 LINE",
"386 293 LINE",
"125 293 LINE",
"125 62 LINE",
"438 62 LINE",
"438 0 LINE",
"59 0 LINE"
);
},
{
closed = 1;
nodes = (
"325 791 LINE",
"365 721 LINE",
"196 660 LINE",
"173 702 LINE"
);
}
);
width = 500;
}
);
unicode = 00C9;
},
{
glyphname = Ecircumflex;
layers = (
{
layerId = "55D69AED-E863-4611-8C8F-E227C62A7D68";
name = Regular;
paths = (
{
closed = 1;
nodes = (
"59 624 LINE",
"441 624 LINE",
"441 562 LINE",
"125 562 LINE",
"125 357 LINE",
"386 357 LINE",
"386 293 LINE",
"125 293 LINE",
"125 62 LINE",
"438 62 LINE",
"438 0 LINE",
"59 0 LINE"
);
},
{
closed = 1;
nodes = (
"111 692 LINE",
"242 791 LINE",
"264 791 LINE",
"387 693 LINE",
"354 655 LINE",
"251 726 LINE",
"139 658 LINE"
);
}
);
width = 500;
}
);
unicode = 00CA;
},
{
glyphname = Edieresis;
layers = (
{
layerId = "55D69AED-E863-4611-8C8F-E227C62A7D68";
name = Regular;
paths = (
{
closed = 1;
nodes = (
"59 624 LINE",
"441 624 LINE",
"441 562 LINE",
"125 562 LINE",
"125 357 LINE",
"386 357 LINE",
"386 293 LINE",
"125 293 LINE",
"125 62 LINE",
"438 62 LINE",
"438 0 LINE",
"59 0 LINE"
);
},
{
closed = 1;
nodes = (
"203 764 OFFCURVE",
"208 752 OFFCURVE",
"208 738 CURVE SMOOTH",
"208 711 OFFCURVE",
"185 688 OFFCURVE",
"157 688 CURVE SMOOTH",
"130 688 OFFCURVE",
"107 711 OFFCURVE",
"107 738 CURVE SMOOTH",
"107 765 OFFCURVE",
"130 789 OFFCURVE",
"157 789 CURVE SMOOTH",
"171 789 OFFCURVE",
"183 784 OFFCURVE",
"193 774 CURVE SMOOTH"
);
},
{
closed = 1;
nodes = (
"381 764 OFFCURVE",
"386 752 OFFCURVE",
"386 738 CURVE SMOOTH",
"386 711 OFFCURVE",
"363 688 OFFCURVE",
"335 688 CURVE SMOOTH",
"308 688 OFFCURVE",
"286 710 OFFCURVE",
"286 738 CURVE SMOOTH",
"286 766 OFFCURVE",
"308 789 OFFCURVE",
"335 789 CURVE SMOOTH",
"349 789 OFFCURVE",
"361 784 OFFCURVE",
"371 774 CURVE SMOOTH"
);
}
);
width = 500;
}
);
unicode = 00CB;
},
{
glyphname = Igrave;
layers = (
{
layerId = "55D69AED-E863-4611-8C8F-E227C62A7D68";
name = Regular;
paths = (
{
closed = 1;
nodes = (
"88 623 LINE",
"397 623 LINE",
"397 564 LINE",
"274 564 LINE",
"274 57 LINE",
"403 57 LINE",
"403 -1 LINE",
"81 -1 LINE",
"81 58 LINE",
"204 58 LINE",
"204 564 LINE",
"88 564 LINE"
);
},
{
closed = 1;
nodes = (
"183 791 LINE",
"336 702 LINE",
"313 660 LINE",
"143 721 LINE"
);
}
);
width = 500;
}
);
unicode = 00CC;
},
{
glyphname = Iacute;
layers = (
{
layerId = "55D69AED-E863-4611-8C8F-E227C62A7D68";
name = Regular;
paths = (
{
closed = 1;
nodes = (
"88 623 LINE",
"397 623 LINE",
"397 564 LINE",
"274 564 LINE",
"274 57 LINE",
"403 57 LINE",
"403 -1 LINE",
"81 -1 LINE",
"81 58 LINE",
"204 58 LINE",
"204 564 LINE",
"88 564 LINE"
);
},
{
closed = 1;
nodes = (
"325 791 LINE",
"365 721 LINE",
"196 660 LINE",
"173 702 LINE"
);
}
);
width = 500;
}
);
unicode = 00CD;
},
{
glyphname = Icircumflex;
layers = (
{
layerId = "55D69AED-E863-4611-8C8F-E227C62A7D68";
name = Regular;
paths = (
{
closed = 1;
nodes = (
"88 623 LINE",
"397 623 LINE",
"397 564 LINE",
"274 564 LINE",
"274 57 LINE",
"403 57 LINE",
"403 -1 LINE",
"81 -1 LINE",
"81 58 LINE",
"204 58 LINE",
"204 564 LINE",
"88 564 LINE"
);
},
{
closed = 1;
nodes = (
"102 692 LINE",
"233 791 LINE",
"255 791 LINE",
"378 693 LINE",
"345 655 LINE",
"242 726 LINE",
"130 658 LINE"
);
}
);
width = 500;
}
);
unicode = 00CE;
},
{
glyphname = Idieresis;
layers = (
{
layerId = "55D69AED-E863-4611-8C8F-E227C62A7D68";
name = Regular;
paths = (
{
closed = 1;
nodes = (
"88 623 LINE",
"397 623 LINE",
"397 564 LINE",
"274 564 LINE",
"274 57 LINE",
"403 57 LINE",
"403 -1 LINE",
"81 -1 LINE",
"81 58 LINE",
"204 58 LINE",
"204 564 LINE",
"88 564 LINE"
);
},
{
closed = 1;
nodes = (
"200 764 OFFCURVE",
"205 752 OFFCURVE",
"205 738 CURVE SMOOTH",
"205 711 OFFCURVE",
"182 688 OFFCURVE",
"154 688 CURVE SMOOTH",
"127 688 OFFCURVE",
"104 711 OFFCURVE",
"104 738 CURVE SMOOTH",
"104 765 OFFCURVE",
"127 789 OFFCURVE",
"154 789 CURVE SMOOTH",
"168 789 OFFCURVE",
"180 784 OFFCURVE",
"190 774 CURVE SMOOTH"
);
},
{
closed = 1;
nodes = (
"378 764 OFFCURVE",
"383 752 OFFCURVE",
"383 738 CURVE SMOOTH",
"383 711 OFFCURVE",
"360 688 OFFCURVE",
"332 688 CURVE SMOOTH",
"305 688 OFFCURVE",
"283 710 OFFCURVE",
"283 738 CURVE SMOOTH",
"283 766 OFFCURVE",
"305 789 OFFCURVE",
"332 789 CURVE SMOOTH",
"346 789 OFFCURVE",
"358 784 OFFCURVE",
"368 774 CURVE SMOOTH"
);
}
);
width = 500;
}
);
unicode = 00CF;
},
{
glyphname = Eth;
layers = (
{
layerId = "55D69AED-E863-4611-8C8F-E227C62A7D68";
name = Regular;
paths = (
{
closed = 1;
nodes = (
"79 623 LINE",
"218 623 LINE SMOOTH",
"309 623 OFFCURVE",
"369 591 OFFCURVE",
"409 536 CURVE SMOOTH",
"448 480 OFFCURVE",
"466 401 OFFCURVE",
"466 306 CURVE SMOOTH",
"466 246 OFFCURVE",
"452 185 OFFCURVE",
"428 134 CURVE SMOOTH",
"403 82 OFFCURVE",
"366 39 OFFCURVE",
"319 18 CURVE",
"293 5 OFFCURVE",
"255 -1 OFFCURVE",
"206 -1 CURVE SMOOTH",
"79 -1 LINE",
"79 301 LINE",
"30 301 LINE",
"30 359 LINE",
"79 359 LINE"
);
},
{
closed = 1;
nodes = (
"143 301 LINE",
"143 57 LINE",
"203 57 LINE SMOOTH",
"331 57 OFFCURVE",
"399 149 OFFCURVE",
"399 306 CURVE SMOOTH",
"399 466 OFFCURVE",
"342 564 OFFCURVE",
"214 564 CURVE SMOOTH",
"143 564 LINE",
"143 359 LINE",
"248 359 LINE",
"248 301 LINE"
);
}
);
width = 500;
}
);
unicode = 00D0;
},
{
glyphname = Ntilde;
layers = (
{
layerId = "55D69AED-E863-4611-8C8F-E227C62A7D68";
name = Regular;
paths = (
{
closed = 1;
nodes = (
"50 0 LINE",
"50 623 LINE",
"118 623 LINE",
"380 161 LINE",
"380 624 LINE",
"454 624 LINE",
"454 620 OFFCURVE",
"453 616 OFFCURVE",
"451 611 CURVE",
"448 606 OFFCURVE",
"447 602 OFFCURVE",
"447 597 CURVE SMOOTH",
"447 0 LINE",
"392 0 LINE",
"117 490 LINE",
"117 0 LINE"
);
},
{
closed = 1;
nodes = (
"91 715 LINE",
"128 773 OFFCURVE",
"165 802 OFFCURVE",
"204 802 CURVE SMOOTH",
"228 802 OFFCURVE",
"255 784 OFFCURVE",
"279 765 CURVE",
"290 755 OFFCURVE",
"301 746 OFFCURVE",
"310 739 CURVE",
"319 731 OFFCURVE",
"325 727 OFFCURVE",
"330 727 CURVE SMOOTH",
"361 727 OFFCURVE",
"371 751 OFFCURVE",
"392 780 CURVE",
"430 740 LINE",
"390 692 OFFCURVE",
"364 669 OFFCURVE",
"333 669 CURVE SMOOTH",
"302 669 OFFCURVE",
"279 688 OFFCURVE",
"259 707 CURVE",
"248 716 OFFCURVE",
"239 725 OFFCURVE",
"230 733 CURVE SMOOTH",
"221 741 OFFCURVE",
"213 745 OFFCURVE",
"205 745 CURVE SMOOTH",
"176 745 OFFCURVE",
"164 730 OFFCURVE",
"136 683 CURVE"
);
}
);
width = 500;
}
);
unicode = 00D1;
},
{
glyphname = Ograve;
layers = (
{
layerId = "55D69AED-E863-4611-8C8F-E227C62A7D68";
name = Regular;
paths = (
{
closed = 1;
nodes = (
"186 -10 OFFCURVE",
"130 23 OFFCURVE",
"91 80 CURVE SMOOTH",
"51 136 OFFCURVE",
"29 217 OFFCURVE",
"29 313 CURVE SMOOTH",
"29 409 OFFCURVE",
"52 489 OFFCURVE",
"92 544 CURVE SMOOTH",
"132 599 OFFCURVE",
"189 630 OFFCURVE",
"256 630 CURVE SMOOTH",
"315 630 OFFCURVE",
"366 605 OFFCURVE",
"408 554 CURVE SMOOTH",
"450 502 OFFCURVE",
"471 423 OFFCURVE",
"471 312 CURVE SMOOTH",
"471 192 OFFCURVE",
"443 112 OFFCURVE",
"402 61 CURVE SMOOTH",
"361 10 OFFCURVE",
"307 -10 OFFCURVE",
"254 -10 CURVE SMOOTH"
);
},
{
closed = 1;
nodes = (
"181 78 OFFCURVE",
"216 59 OFFCURVE",
"254 59 CURVE SMOOTH",
"290 59 OFFCURVE",
"326 72 OFFCURVE",
"355 111 CURVE SMOOTH",
"383 150 OFFCURVE",
"401 213 OFFCURVE",
"401 314 CURVE SMOOTH",
"401 413 OFFCURVE",
"380 474 OFFCURVE",
"352 511 CURVE SMOOTH",
"323 548 OFFCURVE",
"292 564 OFFCURVE",
"256 564 CURVE SMOOTH",
"215 565 OFFCURVE",
"181 550 OFFCURVE",
"150 514 CURVE SMOOTH",
"119 478 OFFCURVE",
"98 418 OFFCURVE",
"98 319 CURVE SMOOTH",
"98 227 OFFCURVE",
"119 154 OFFCURVE",
"150 115 CURVE SMOOTH"
);
},
{
closed = 1;
nodes = (
"183 791 LINE",
"336 702 LINE",
"313 660 LINE",
"143 721 LINE"
);
}
);
width = 500;
}
);
unicode = 00D2;
},
{
glyphname = Oacute;
layers = (
{
layerId = "55D69AED-E863-4611-8C8F-E227C62A7D68";
name = Regular;
paths = (
{
closed = 1;
nodes = (
"186 -10 OFFCURVE",
"130 23 OFFCURVE",
"91 80 CURVE SMOOTH",
"51 136 OFFCURVE",
"29 217 OFFCURVE",
"29 313 CURVE SMOOTH",
"29 409 OFFCURVE",
"52 489 OFFCURVE",
"92 544 CURVE SMOOTH",
"132 599 OFFCURVE",
"189 630 OFFCURVE",
"256 630 CURVE SMOOTH",
"315 630 OFFCURVE",
"366 605 OFFCURVE",
"408 554 CURVE SMOOTH",
"450 502 OFFCURVE",
"471 423 OFFCURVE",
"471 312 CURVE SMOOTH",
"471 192 OFFCURVE",
"443 112 OFFCURVE",
"402 61 CURVE SMOOTH",
"361 10 OFFCURVE",
"307 -10 OFFCURVE",
"254 -10 CURVE SMOOTH"
);
},
{
closed = 1;
nodes = (
"181 78 OFFCURVE",
"216 59 OFFCURVE",
"254 59 CURVE SMOOTH",
"290 59 OFFCURVE",
"326 72 OFFCURVE",
"355 111 CURVE SMOOTH",
"383 150 OFFCURVE",
"401 213 OFFCURVE",
"401 314 CURVE SMOOTH",
"401 413 OFFCURVE",
"380 474 OFFCURVE",
"352 511 CURVE SMOOTH",
"323 548 OFFCURVE",
"292 564 OFFCURVE",
"256 564 CURVE SMOOTH",
"215 565 OFFCURVE",
"181 550 OFFCURVE",
"150 514 CURVE SMOOTH",
"119 478 OFFCURVE",
"98 418 OFFCURVE",
"98 319 CURVE SMOOTH",
"98 227 OFFCURVE",
"119 154 OFFCURVE",
"150 115 CURVE SMOOTH"
);
},
{
closed = 1;
nodes = (
"325 791 LINE",
"365 721 LINE",
"196 660 LINE",
"173 702 LINE"
);
}
);
width = 500;
}
);
unicode = 00D3;
},
{
glyphname = Ocircumflex;
layers = (
{
layerId = "55D69AED-E863-4611-8C8F-E227C62A7D68";
name = Regular;
paths = (
{
closed = 1;
nodes = (
"186 -10 OFFCURVE",
"130 23 OFFCURVE",
"91 80 CURVE SMOOTH",
"51 136 OFFCURVE",
"29 217 OFFCURVE",
"29 313 CURVE SMOOTH",
"29 409 OFFCURVE",
"52 489 OFFCURVE",
"92 544 CURVE SMOOTH",
"132 599 OFFCURVE",
"189 630 OFFCURVE",
"256 630 CURVE SMOOTH",
"315 630 OFFCURVE",
"366 605 OFFCURVE",
"408 554 CURVE SMOOTH",
"450 502 OFFCURVE",
"471 423 OFFCURVE",
"471 312 CURVE SMOOTH",
"471 192 OFFCURVE",
"443 112 OFFCURVE",
"402 61 CURVE SMOOTH",
"361 10 OFFCURVE",
"307 -10 OFFCURVE",
"254 -10 CURVE SMOOTH"
);
},
{
closed = 1;
nodes = (
"181 78 OFFCURVE",
"216 59 OFFCURVE",
"254 59 CURVE SMOOTH",
"290 59 OFFCURVE",
"326 72 OFFCURVE",
"355 111 CURVE SMOOTH",
"383 150 OFFCURVE",
"401 213 OFFCURVE",
"401 314 CURVE SMOOTH",
"401 413 OFFCURVE",
"380 474 OFFCURVE",
"352 511 CURVE SMOOTH",
"323 548 OFFCURVE",
"292 564 OFFCURVE",
"256 564 CURVE SMOOTH",
"215 565 OFFCURVE",
"181 550 OFFCURVE",
"150 514 CURVE SMOOTH",
"119 478 OFFCURVE",
"98 418 OFFCURVE",
"98 319 CURVE SMOOTH",
"98 227 OFFCURVE",
"119 154 OFFCURVE",
"150 115 CURVE SMOOTH"
);
},
{
closed = 1;
nodes = (
"114 692 LINE",
"245 791 LINE",
"267 791 LINE",
"390 693 LINE",
"357 655 LINE",
"254 726 LINE",
"142 658 LINE"
);
}
);
width = 500;
}
);
unicode = 00D4;
},
{
glyphname = Otilde;
layers = (
{
layerId = "55D69AED-E863-4611-8C8F-E227C62A7D68";
name = Regular;
paths = (
{
closed = 1;
nodes = (
"186 -10 OFFCURVE",
"130 23 OFFCURVE",
"91 80 CURVE SMOOTH",
"51 136 OFFCURVE",
"29 217 OFFCURVE",
"29 313 CURVE SMOOTH",
"29 409 OFFCURVE",
"52 489 OFFCURVE",
"92 544 CURVE SMOOTH",
"132 599 OFFCURVE",
"189 630 OFFCURVE",
"256 630 CURVE SMOOTH",
"315 630 OFFCURVE",
"366 605 OFFCURVE",
"408 554 CURVE SMOOTH",
"450 502 OFFCURVE",
"471 423 OFFCURVE",
"471 312 CURVE SMOOTH",
"471 192 OFFCURVE",
"443 112 OFFCURVE",
"402 61 CURVE SMOOTH",
"361 10 OFFCURVE",
"307 -10 OFFCURVE",
"254 -10 CURVE SMOOTH"
);
},
{
closed = 1;
nodes = (
"181 78 OFFCURVE",
"216 59 OFFCURVE",
"254 59 CURVE SMOOTH",
"290 59 OFFCURVE",
"326 72 OFFCURVE",
"355 111 CURVE SMOOTH",
"383 150 OFFCURVE",
"401 213 OFFCURVE",
"401 314 CURVE SMOOTH",
"401 413 OFFCURVE",
"380 474 OFFCURVE",
"352 511 CURVE SMOOTH",
"323 548 OFFCURVE",
"292 564 OFFCURVE",
"256 564 CURVE SMOOTH",
"215 565 OFFCURVE",
"181 550 OFFCURVE",
"150 514 CURVE SMOOTH",
"119 478 OFFCURVE",
"98 418 OFFCURVE",
"98 319 CURVE SMOOTH",
"98 227 OFFCURVE",
"119 154 OFFCURVE",
"150 115 CURVE SMOOTH"
);
},
{
closed = 1;
nodes = (
"91 715 LINE",
"128 773 OFFCURVE",
"165 802 OFFCURVE",
"204 802 CURVE SMOOTH",
"228 802 OFFCURVE",
"255 784 OFFCURVE",
"279 765 CURVE",
"290 755 OFFCURVE",
"301 746 OFFCURVE",
"310 739 CURVE",
"319 731 OFFCURVE",
"325 727 OFFCURVE",
"330 727 CURVE SMOOTH",
"361 727 OFFCURVE",
"371 751 OFFCURVE",
"392 780 CURVE",
"430 740 LINE",
"390 692 OFFCURVE",
"364 669 OFFCURVE",
"333 669 CURVE SMOOTH",
"302 669 OFFCURVE",
"279 688 OFFCURVE",
"259 707 CURVE",
"248 716 OFFCURVE",
"239 725 OFFCURVE",
"230 733 CURVE SMOOTH",
"221 741 OFFCURVE",
"213 745 OFFCURVE",
"205 745 CURVE SMOOTH",
"176 745 OFFCURVE",
"164 730 OFFCURVE",
"136 683 CURVE"
);
}
);
width = 500;
}
);
unicode = 00D5;
},
{
glyphname = Odieresis;
layers = (
{
layerId = "55D69AED-E863-4611-8C8F-E227C62A7D68";
name = Regular;
paths = (
{
closed = 1;
nodes = (
"186 -10 OFFCURVE",
"130 23 OFFCURVE",
"91 80 CURVE SMOOTH",
"51 136 OFFCURVE",
"29 217 OFFCURVE",
"29 313 CURVE SMOOTH",
"29 409 OFFCURVE",
"52 489 OFFCURVE",
"92 544 CURVE SMOOTH",
"132 599 OFFCURVE",
"189 630 OFFCURVE",
"256 630 CURVE SMOOTH",
"315 630 OFFCURVE",
"366 605 OFFCURVE",
"408 554 CURVE SMOOTH",
"450 502 OFFCURVE",
"471 423 OFFCURVE",
"471 312 CURVE SMOOTH",
"471 192 OFFCURVE",
"443 112 OFFCURVE",
"402 61 CURVE SMOOTH",
"361 10 OFFCURVE",
"307 -10 OFFCURVE",
"254 -10 CURVE SMOOTH"
);
},
{
closed = 1;
nodes = (
"181 78 OFFCURVE",
"216 59 OFFCURVE",
"254 59 CURVE SMOOTH",
"290 59 OFFCURVE",
"326 72 OFFCURVE",
"355 111 CURVE SMOOTH",
"383 150 OFFCURVE",
"401 213 OFFCURVE",
"401 314 CURVE SMOOTH",
"401 413 OFFCURVE",
"380 474 OFFCURVE",
"352 511 CURVE SMOOTH",
"323 548 OFFCURVE",
"292 564 OFFCURVE",
"256 564 CURVE SMOOTH",
"215 565 OFFCURVE",
"181 550 OFFCURVE",
"150 514 CURVE SMOOTH",
"119 478 OFFCURVE",
"98 418 OFFCURVE",
"98 319 CURVE SMOOTH",
"98 227 OFFCURVE",
"119 154 OFFCURVE",
"150 115 CURVE SMOOTH"
);
},
{
closed = 1;
nodes = (
"203 764 OFFCURVE",
"208 752 OFFCURVE",
"208 738 CURVE SMOOTH",
"208 711 OFFCURVE",
"185 688 OFFCURVE",
"157 688 CURVE SMOOTH",
"130 688 OFFCURVE",
"107 711 OFFCURVE",
"107 738 CURVE SMOOTH",
"107 765 OFFCURVE",
"130 789 OFFCURVE",
"157 789 CURVE SMOOTH",
"171 789 OFFCURVE",
"183 784 OFFCURVE",
"193 774 CURVE SMOOTH"
);
},
{
closed = 1;
nodes = (
"381 764 OFFCURVE",
"386 752 OFFCURVE",
"386 738 CURVE SMOOTH",
"386 711 OFFCURVE",
"363 688 OFFCURVE",
"335 688 CURVE SMOOTH",
"308 688 OFFCURVE",
"286 710 OFFCURVE",
"286 738 CURVE SMOOTH",
"286 766 OFFCURVE",
"308 789 OFFCURVE",
"335 789 CURVE SMOOTH",
"349 789 OFFCURVE",
"361 784 OFFCURVE",
"371 774 CURVE SMOOTH"
);
}
);
width = 500;
}
);
unicode = 00D6;
},
{
glyphname = multiply;
layers = (
{
layerId = "55D69AED-E863-4611-8C8F-E227C62A7D68";
name = Regular;
paths = (
{
closed = 1;
nodes = (
"382 503 LINE",
"430 459 LINE",
"300 325 LINE",
"427 191 LINE",
"381 145 LINE",
"254 278 LINE",
"129 149 LINE",
"85 193 LINE",
"211 324 LINE",
"85 457 LINE",
"132 503 LINE",
"256 372 LINE"
);
}
);
width = 500;
}
);
unicode = 00D7;
},
{
glyphname = Oslash;
layers = (
{
layerId = "55D69AED-E863-4611-8C8F-E227C62A7D68";
name = Regular;
paths = (
{
closed = 1;
nodes = (
"119 478 OFFCURVE",
"98 410 OFFCURVE",
"98 322 CURVE SMOOTH",
"98 249 OFFCURVE",
"109 190 OFFCURVE",
"132 145 CURVE",
"336 528 LINE",
"311 552 OFFCURVE",
"283 564 OFFCURVE",
"252 564 CURVE SMOOTH",
"217 564 OFFCURVE",
"182 548 OFFCURVE",
"150 513 CURVE SMOOTH"
);
},
{
closed = 1;
nodes = (
"413 545 LINE",
"452 492 OFFCURVE",
"471 414 OFFCURVE",
"471 310 CURVE SMOOTH",
"471 187 OFFCURVE",
"443 109 OFFCURVE",
"402 59 CURVE SMOOTH",
"361 9 OFFCURVE",
"306 -10 OFFCURVE",
"254 -10 CURVE SMOOTH",
"215 -10 OFFCURVE",
"175 2 OFFCURVE",
"138 30 CURVE",
"88 -63 LINE",
"36 -36 LINE",
"95 74 LINE",
"51 131 OFFCURVE",
"29 210 OFFCURVE",
"29 313 CURVE SMOOTH",
"29 408 OFFCURVE",
"51 487 OFFCURVE",
"91 543 CURVE SMOOTH",
"130 598 OFFCURVE",
"186 630 OFFCURVE",
"254 630 CURVE SMOOTH",
"294 630 OFFCURVE",
"334 617 OFFCURVE",
"369 590 CURVE",
"415 677 LINE",
"469 648 LINE"
);
},
{
closed = 1;
nodes = (
"171 92 LINE",
"196 70 OFFCURVE",
"221 59 OFFCURVE",
"248 59 CURVE SMOOTH",
"348 59 OFFCURVE",
"401 141 OFFCURVE",
"401 314 CURVE SMOOTH",
"401 380 OFFCURVE",
"392 433 OFFCURVE",
"374 472 CURVE"
);
}
);
width = 500;
}
);
unicode = 00D8;
},
{
glyphname = Ugrave;
layers = (
{
layerId = "55D69AED-E863-4611-8C8F-E227C62A7D68";
name = Regular;
paths = (
{
closed = 1;
nodes = (
"50 623 LINE",
"129 623 LINE SMOOTH",
"130 623 OFFCURVE",
"130 622 OFFCURVE",
"130 621 CURVE SMOOTH",
"130 618 OFFCURVE",
"129 615 OFFCURVE",
"126 610 CURVE SMOOTH",
"123 605 OFFCURVE",
"120 598 OFFCURVE",
"119 591 CURVE",
"119 214 LINE SMOOTH",
"119 145 OFFCURVE",
"133 111 OFFCURVE",
"157 87 CURVE SMOOTH",
"181 62 OFFCURVE",
"215 51 OFFCURVE",
"252 48 CURVE",
"289 51 OFFCURVE",
"323 60 OFFCURVE",
"348 86 CURVE SMOOTH",
"372 112 OFFCURVE",
"387 145 OFFCURVE",
"387 217 CURVE SMOOTH",
"387 623 LINE",
"454 623 LINE",
"454 218 LINE SMOOTH",
"454 137 OFFCURVE",
"436 82 OFFCURVE",
"399 45 CURVE SMOOTH",
"362 8 OFFCURVE",
"312 -11 OFFCURVE",
"251 -11 CURVE SMOOTH",
"191 -11 OFFCURVE",
"141 8 OFFCURVE",
"106 44 CURVE SMOOTH",
"70 80 OFFCURVE",
"50 127 OFFCURVE",
"50 215 CURVE SMOOTH"
);
},
{
closed = 1;
nodes = (
"182 791 LINE",
"335 702 LINE",
"312 660 LINE",
"142 721 LINE"
);
}
);
width = 500;
}
);
unicode = 00D9;
},
{
glyphname = Uacute;
layers = (
{
layerId = "55D69AED-E863-4611-8C8F-E227C62A7D68";
name = Regular;
paths = (
{
closed = 1;
nodes = (
"50 623 LINE",
"129 623 LINE SMOOTH",
"130 623 OFFCURVE",
"130 622 OFFCURVE",
"130 621 CURVE SMOOTH",
"130 618 OFFCURVE",
"129 615 OFFCURVE",
"126 610 CURVE SMOOTH",
"123 605 OFFCURVE",
"120 598 OFFCURVE",
"119 591 CURVE",
"119 214 LINE SMOOTH",
"119 145 OFFCURVE",
"133 111 OFFCURVE",
"157 87 CURVE SMOOTH",
"181 62 OFFCURVE",
"215 51 OFFCURVE",
"252 48 CURVE",
"289 51 OFFCURVE",
"323 60 OFFCURVE",
"348 86 CURVE SMOOTH",
"372 112 OFFCURVE",
"387 145 OFFCURVE",
"387 217 CURVE SMOOTH",
"387 623 LINE",
"454 623 LINE",
"454 218 LINE SMOOTH",
"454 137 OFFCURVE",
"436 82 OFFCURVE",
"399 45 CURVE SMOOTH",
"362 8 OFFCURVE",
"312 -11 OFFCURVE",
"251 -11 CURVE SMOOTH",
"191 -11 OFFCURVE",
"141 8 OFFCURVE",
"106 44 CURVE SMOOTH",
"70 80 OFFCURVE",
"50 127 OFFCURVE",
"50 215 CURVE SMOOTH"
);
},
{
closed = 1;
nodes = (
"325 791 LINE",
"365 721 LINE",
"196 660 LINE",
"173 702 LINE"
);
}
);
width = 500;
}
);
unicode = 00DA;
},
{
glyphname = Ucircumflex;
layers = (
{
layerId = "55D69AED-E863-4611-8C8F-E227C62A7D68";
name = Regular;
paths = (
{
closed = 1;
nodes = (
"50 623 LINE",
"129 623 LINE SMOOTH",
"130 623 OFFCURVE",
"130 622 OFFCURVE",
"130 621 CURVE SMOOTH",
"130 618 OFFCURVE",
"129 615 OFFCURVE",
"126 610 CURVE SMOOTH",
"123 605 OFFCURVE",
"120 598 OFFCURVE",
"119 591 CURVE",
"119 214 LINE SMOOTH",
"119 145 OFFCURVE",
"133 111 OFFCURVE",
"157 87 CURVE SMOOTH",
"181 62 OFFCURVE",
"215 51 OFFCURVE",
"252 48 CURVE",
"289 51 OFFCURVE",
"323 60 OFFCURVE",
"348 86 CURVE SMOOTH",
"372 112 OFFCURVE",
"387 145 OFFCURVE",
"387 217 CURVE SMOOTH",
"387 623 LINE",
"454 623 LINE",
"454 218 LINE SMOOTH",
"454 137 OFFCURVE",
"436 82 OFFCURVE",
"399 45 CURVE SMOOTH",
"362 8 OFFCURVE",
"312 -11 OFFCURVE",
"251 -11 CURVE SMOOTH",
"191 -11 OFFCURVE",
"141 8 OFFCURVE",
"106 44 CURVE SMOOTH",
"70 80 OFFCURVE",
"50 127 OFFCURVE",
"50 215 CURVE SMOOTH"
);
},
{
closed = 1;
nodes = (
"114 692 LINE",
"245 791 LINE",
"267 791 LINE",
"390 693 LINE",
"357 655 LINE",
"254 726 LINE",
"142 658 LINE"
);
}
);
width = 500;
}
);
unicode = 00DB;
},
{
glyphname = Udieresis;
layers = (
{
layerId = "55D69AED-E863-4611-8C8F-E227C62A7D68";
name = Regular;
paths = (
{
closed = 1;
nodes = (
"50 623 LINE",
"129 623 LINE SMOOTH",
"130 623 OFFCURVE",
"130 622 OFFCURVE",
"130 621 CURVE SMOOTH",
"130 618 OFFCURVE",
"129 615 OFFCURVE",
"126 610 CURVE SMOOTH",
"123 605 OFFCURVE",
"120 598 OFFCURVE",
"119 591 CURVE",
"119 214 LINE SMOOTH",
"119 145 OFFCURVE",
"133 111 OFFCURVE",
"157 87 CURVE SMOOTH",
"181 62 OFFCURVE",
"215 51 OFFCURVE",
"252 48 CURVE",
"289 51 OFFCURVE",
"323 60 OFFCURVE",
"348 86 CURVE SMOOTH",
"372 112 OFFCURVE",
"387 145 OFFCURVE",
"387 217 CURVE SMOOTH",
"387 623 LINE",
"454 623 LINE",
"454 218 LINE SMOOTH",
"454 137 OFFCURVE",
"436 82 OFFCURVE",
"399 45 CURVE SMOOTH",
"362 8 OFFCURVE",
"312 -11 OFFCURVE",
"251 -11 CURVE SMOOTH",
"191 -11 OFFCURVE",
"141 8 OFFCURVE",
"106 44 CURVE SMOOTH",
"70 80 OFFCURVE",
"50 127 OFFCURVE",
"50 215 CURVE SMOOTH"
);
},
{
closed = 1;
nodes = (
"211 764 OFFCURVE",
"216 752 OFFCURVE",
"216 738 CURVE SMOOTH",
"216 711 OFFCURVE",
"193 688 OFFCURVE",
"165 688 CURVE SMOOTH",
"138 688 OFFCURVE",
"115 711 OFFCURVE",
"115 738 CURVE SMOOTH",
"115 765 OFFCURVE",
"138 789 OFFCURVE",
"165 789 CURVE SMOOTH",
"179 789 OFFCURVE",
"191 784 OFFCURVE",
"201 774 CURVE SMOOTH"
);
},
{
closed = 1;
nodes = (
"389 764 OFFCURVE",
"394 752 OFFCURVE",
"394 738 CURVE SMOOTH",
"394 711 OFFCURVE",
"371 688 OFFCURVE",
"343 688 CURVE SMOOTH",
"316 688 OFFCURVE",
"294 710 OFFCURVE",
"294 738 CURVE SMOOTH",
"294 766 OFFCURVE",
"316 789 OFFCURVE",
"343 789 CURVE SMOOTH",
"357 789 OFFCURVE",
"369 784 OFFCURVE",
"379 774 CURVE SMOOTH"
);
}
);
width = 500;
}
);
unicode = 00DC;
},
{
glyphname = Yacute;
layers = (
{
layerId = "55D69AED-E863-4611-8C8F-E227C62A7D68";
name = Regular;
paths = (
{
closed = 1;
nodes = (
"28 623 LINE",
"108 623 LINE",
"261 321 LINE",
"399 623 LINE",
"473 623 LINE",
"296 246 LINE",
"296 0 LINE",
"220 0 LINE",
"220 246 LINE"
);
},
{
closed = 1;
nodes = (
"325 791 LINE",
"365 721 LINE",
"196 660 LINE",
"173 702 LINE"
);
}
);
width = 500;
}
);
unicode = 00DD;
},
{
glyphname = Thorn;
layers = (
{
layerId = "55D69AED-E863-4611-8C8F-E227C62A7D68";
name = Regular;
paths = (
{
closed = 1;
nodes = (
"59 623 LINE",
"137 623 LINE",
"138 622 OFFCURVE",
"139 621 OFFCURVE",
"139 620 CURVE SMOOTH",
"139 618 OFFCURVE",
"138 615 OFFCURVE",
"135 611 CURVE",
"132 606 OFFCURVE",
"130 601 OFFCURVE",
"129 595 CURVE",
"129 506 LINE",
"259 506 LINE SMOOTH",
"328 506 OFFCURVE",
"376 486 OFFCURVE",
"408 454 CURVE SMOOTH",
"439 422 OFFCURVE",
"453 378 OFFCURVE",
"456 330 CURVE",
"453 282 OFFCURVE",
"439 239 OFFCURVE",
"409 208 CURVE SMOOTH",
"379 177 OFFCURVE",
"332 158 OFFCURVE",
"264 158 CURVE SMOOTH",
"129 158 LINE",
"129 0 LINE",
"59 0 LINE"
);
},
{
closed = 1;
nodes = (
"129 440 LINE",
"129 219 LINE",
"264 219 LINE SMOOTH",
"307 219 OFFCURVE",
"335 231 OFFCURVE",
"355 251 CURVE SMOOTH",
"374 270 OFFCURVE",
"381 297 OFFCURVE",
"384 328 CURVE",
"381 359 OFFCURVE",
"372 387 OFFCURVE",
"352 407 CURVE SMOOTH",
"332 427 OFFCURVE",
"301 440 OFFCURVE",
"257 440 CURVE SMOOTH"
);
}
);
width = 500;
}
);
unicode = 00DE;
},
{
glyphname = germandbls;
layers = (
{
layerId = "55D69AED-E863-4611-8C8F-E227C62A7D68";
name = Regular;
paths = (
{
closed = 1;
nodes = (
"55 0 LINE",
"55 423 LINE SMOOTH",
"55 588 OFFCURVE",
"127 669 OFFCURVE",
"239 669 CURVE SMOOTH",
"288 669 OFFCURVE",
"334 648 OFFCURVE",
"367 616 CURVE SMOOTH",
"399 584 OFFCURVE",
"420 540 OFFCURVE",
"420 493 CURVE SMOOTH",
"420 436 OFFCURVE",
"390 384 OFFCURVE",
"341 359 CURVE",
"378 347 OFFCURVE",
"410 324 OFFCURVE",
"431 293 CURVE SMOOTH",
"452 261 OFFCURVE",
"464 222 OFFCURVE",
"464 181 CURVE SMOOTH",
"464 126 OFFCURVE",
"444 80 OFFCURVE",
"411 45 CURVE SMOOTH",
"378 10 OFFCURVE",
"333 -10 OFFCURVE",
"281 -10 CURVE SMOOTH",
"242 -10 OFFCURVE",
"208 0 OFFCURVE",
"177 21 CURVE",
"212 77 LINE",
"232 61 OFFCURVE",
"256 53 OFFCURVE",
"285 53 CURVE SMOOTH",
"313 53 OFFCURVE",
"342 69 OFFCURVE",
"363 91 CURVE SMOOTH",
"384 113 OFFCURVE",
"398 142 OFFCURVE",
"398 173 CURVE",
"395 218 OFFCURVE",
"383 257 OFFCURVE",
"359 283 CURVE SMOOTH",
"335 309 OFFCURVE",
"297 323 OFFCURVE",
"244 323 CURVE SMOOTH",
"214 323 LINE",
"214 380 LINE",
"250 380 LINE SMOOTH",
"274 380 OFFCURVE",
"300 389 OFFCURVE",
"320 409 CURVE SMOOTH",
"339 429 OFFCURVE",
"352 458 OFFCURVE",
"352 501 CURVE SMOOTH",
"352 529 OFFCURVE",
"340 557 OFFCURVE",
"320 578 CURVE",
"299 598 OFFCURVE",
"270 611 OFFCURVE",
"237 611 CURVE SMOOTH",
"201 611 OFFCURVE",
"173 592 OFFCURVE",
"153 560 CURVE SMOOTH",
"133 527 OFFCURVE",
"123 481 OFFCURVE",
"123 425 CURVE SMOOTH",
"123 0 LINE"
);
}
);
width = 500;
}
);
unicode = 00DF;
},
{
glyphname = agrave;
layers = (
{
layerId = "55D69AED-E863-4611-8C8F-E227C62A7D68";
name = Regular;
paths = (
{
closed = 1;
nodes = (
"91 403 LINE",
"132 446 OFFCURVE",
"186 467 OFFCURVE",
"254 467 CURVE SMOOTH",
"366 467 OFFCURVE",
"435 415 OFFCURVE",
"435 283 CURVE SMOOTH",
"435 0 LINE",
"367 0 LINE",
"367 50 LINE",
"318 9 OFFCURVE",
"264 -11 OFFCURVE",
"203 -11 CURVE SMOOTH",
"155 -11 OFFCURVE",
"117 5 OFFCURVE",
"90 29 CURVE SMOOTH",
"63 53 OFFCURVE",
"49 85 OFFCURVE",
"49 116 CURVE SMOOTH",
"49 208 OFFCURVE",
"131 264 OFFCURVE",
"280 269 CURVE SMOOTH",
"366 269 LINE",
"366 286 LINE SMOOTH",
"366 377 OFFCURVE",
"329 408 OFFCURVE",
"249 408 CURVE SMOOTH",
"200 408 OFFCURVE",
"159 391 OFFCURVE",
"126 357 CURVE"
);
},
{
closed = 1;
nodes = (
"369 214 LINE",
"352 214 LINE SMOOTH",
"343 214 OFFCURVE",
"334 214 OFFCURVE",
"326 215 CURVE",
"317 215 OFFCURVE",
"309 215 OFFCURVE",
"301 215 CURVE SMOOTH",
"228 215 OFFCURVE",
"183 204 OFFCURVE",
"156 187 CURVE SMOOTH",
"129 170 OFFCURVE",
"121 147 OFFCURVE",
"121 122 CURVE SMOOTH",
"121 79 OFFCURVE",
"163 44 OFFCURVE",
"218 44 CURVE SMOOTH",
"258 44 OFFCURVE",
"290 59 OFFCURVE",
"314 77 CURVE SMOOTH",
"338 95 OFFCURVE",
"352 115 OFFCURVE",
"359 130 CURVE",
"366 143 OFFCURVE",
"369 161 OFFCURVE",
"369 184 CURVE SMOOTH"
);
},
{
closed = 1;
nodes = (
"243 699 LINE",
"331 552 LINE",
"281 522 LINE",
"180 657 LINE"
);
}
);
width = 500;
}
);
unicode = 00E0;
},
{
glyphname = aacute;
layers = (
{
layerId = "55D69AED-E863-4611-8C8F-E227C62A7D68";
name = Regular;
paths = (
{
closed = 1;
nodes = (
"91 403 LINE",
"132 446 OFFCURVE",
"186 467 OFFCURVE",
"254 467 CURVE SMOOTH",
"366 467 OFFCURVE",
"435 415 OFFCURVE",
"435 283 CURVE SMOOTH",
"435 0 LINE",
"367 0 LINE",
"367 50 LINE",
"318 9 OFFCURVE",
"264 -11 OFFCURVE",
"203 -11 CURVE SMOOTH",
"155 -11 OFFCURVE",
"117 5 OFFCURVE",
"90 29 CURVE SMOOTH",
"63 53 OFFCURVE",
"49 85 OFFCURVE",
"49 116 CURVE SMOOTH",
"49 208 OFFCURVE",
"131 264 OFFCURVE",
"280 269 CURVE SMOOTH",
"366 269 LINE",
"366 286 LINE SMOOTH",
"366 377 OFFCURVE",
"329 408 OFFCURVE",
"249 408 CURVE SMOOTH",
"200 408 OFFCURVE",
"159 391 OFFCURVE",
"126 357 CURVE"
);
},
{
closed = 1;
nodes = (
"369 214 LINE",
"352 214 LINE SMOOTH",
"343 214 OFFCURVE",
"334 214 OFFCURVE",
"326 215 CURVE",
"317 215 OFFCURVE",
"309 215 OFFCURVE",
"301 215 CURVE SMOOTH",
"228 215 OFFCURVE",
"183 204 OFFCURVE",
"156 187 CURVE SMOOTH",
"129 170 OFFCURVE",
"121 147 OFFCURVE",
"121 122 CURVE SMOOTH",
"121 79 OFFCURVE",
"163 44 OFFCURVE",
"218 44 CURVE SMOOTH",
"258 44 OFFCURVE",
"290 59 OFFCURVE",
"314 77 CURVE SMOOTH",
"338 95 OFFCURVE",
"352 115 OFFCURVE",
"359 130 CURVE",
"366 143 OFFCURVE",
"369 161 OFFCURVE",
"369 184 CURVE SMOOTH"
);
},
{
closed = 1;
nodes = (
"292 699 LINE",
"355 657 LINE",
"254 522 LINE",
"204 552 LINE"
);
}
);
width = 500;
}
);
unicode = 00E1;
},
{
glyphname = acircumflex;
layers = (
{
layerId = "55D69AED-E863-4611-8C8F-E227C62A7D68";
name = Regular;
paths = (
{
closed = 1;
nodes = (
"91 403 LINE",
"132 446 OFFCURVE",
"186 467 OFFCURVE",
"254 467 CURVE SMOOTH",
"366 467 OFFCURVE",
"435 415 OFFCURVE",
"435 283 CURVE SMOOTH",
"435 0 LINE",
"367 0 LINE",
"367 50 LINE",
"318 9 OFFCURVE",
"264 -11 OFFCURVE",
"203 -11 CURVE SMOOTH",
"155 -11 OFFCURVE",
"117 5 OFFCURVE",
"90 29 CURVE SMOOTH",
"63 53 OFFCURVE",
"49 85 OFFCURVE",
"49 116 CURVE SMOOTH",
"49 208 OFFCURVE",
"131 264 OFFCURVE",
"280 269 CURVE SMOOTH",
"366 269 LINE",
"366 286 LINE SMOOTH",
"366 377 OFFCURVE",
"329 408 OFFCURVE",
"249 408 CURVE SMOOTH",
"200 408 OFFCURVE",
"159 391 OFFCURVE",
"126 357 CURVE"
);
},
{
closed = 1;
nodes = (
"369 214 LINE",
"352 214 LINE SMOOTH",
"343 214 OFFCURVE",
"334 214 OFFCURVE",
"326 215 CURVE",
"317 215 OFFCURVE",
"309 215 OFFCURVE",
"301 215 CURVE SMOOTH",
"228 215 OFFCURVE",
"183 204 OFFCURVE",
"156 187 CURVE SMOOTH",
"129 170 OFFCURVE",
"121 147 OFFCURVE",
"121 122 CURVE SMOOTH",
"121 79 OFFCURVE",
"163 44 OFFCURVE",
"218 44 CURVE SMOOTH",
"258 44 OFFCURVE",
"290 59 OFFCURVE",
"314 77 CURVE SMOOTH",
"338 95 OFFCURVE",
"352 115 OFFCURVE",
"359 130 CURVE",
"366 143 OFFCURVE",
"369 161 OFFCURVE",
"369 184 CURVE SMOOTH"
);
},
{
closed = 1;
nodes = (
"141 545 LINE",
"252 685 LINE",
"274 685 LINE",
"384 544 LINE",
"338 509 LINE",
"260 612 LINE",
"179 510 LINE"
);
}
);
width = 500;
}
);
unicode = 00E2;
},
{
glyphname = atilde;
layers = (
{
layerId = "55D69AED-E863-4611-8C8F-E227C62A7D68";
name = Regular;
paths = (
{
closed = 1;
nodes = (
"91 403 LINE",
"132 446 OFFCURVE",
"186 467 OFFCURVE",
"254 467 CURVE SMOOTH",
"366 467 OFFCURVE",
"435 415 OFFCURVE",
"435 283 CURVE SMOOTH",
"435 0 LINE",
"367 0 LINE",
"367 50 LINE",
"318 9 OFFCURVE",
"264 -11 OFFCURVE",
"203 -11 CURVE SMOOTH",
"155 -11 OFFCURVE",
"117 5 OFFCURVE",
"90 29 CURVE SMOOTH",
"63 53 OFFCURVE",
"49 85 OFFCURVE",
"49 116 CURVE SMOOTH",
"49 208 OFFCURVE",
"131 264 OFFCURVE",
"280 269 CURVE SMOOTH",
"366 269 LINE",
"366 286 LINE SMOOTH",
"366 377 OFFCURVE",
"329 408 OFFCURVE",
"249 408 CURVE SMOOTH",
"200 408 OFFCURVE",
"159 391 OFFCURVE",
"126 357 CURVE"
);
},
{
closed = 1;
nodes = (
"369 214 LINE",
"352 214 LINE SMOOTH",
"343 214 OFFCURVE",
"334 214 OFFCURVE",
"326 215 CURVE",
"317 215 OFFCURVE",
"309 215 OFFCURVE",
"301 215 CURVE SMOOTH",
"228 215 OFFCURVE",
"183 204 OFFCURVE",
"156 187 CURVE SMOOTH",
"129 170 OFFCURVE",
"121 147 OFFCURVE",
"121 122 CURVE SMOOTH",
"121 79 OFFCURVE",
"163 44 OFFCURVE",
"218 44 CURVE SMOOTH",
"258 44 OFFCURVE",
"290 59 OFFCURVE",
"314 77 CURVE SMOOTH",
"338 95 OFFCURVE",
"352 115 OFFCURVE",
"359 130 CURVE",
"366 143 OFFCURVE",
"369 161 OFFCURVE",
"369 184 CURVE SMOOTH"
);
},
{
closed = 1;
nodes = (
"100 589 LINE",
"136 647 OFFCURVE",
"174 676 OFFCURVE",
"213 676 CURVE SMOOTH",
"237 676 OFFCURVE",
"267 658 OFFCURVE",
"288 639 CURVE SMOOTH",
"309 619 OFFCURVE",
"329 601 OFFCURVE",
"338 601 CURVE SMOOTH",
"354 601 OFFCURVE",
"365 607 OFFCURVE",
"374 617 CURVE",
"378 622 OFFCURVE",
"382 627 OFFCURVE",
"386 634 CURVE",
"390 640 OFFCURVE",
"395 647 OFFCURVE",
"401 654 CURVE",
"438 614 LINE",
"398 566 OFFCURVE",
"373 543 OFFCURVE",
"342 543 CURVE SMOOTH",
"311 543 OFFCURVE",
"287 562 OFFCURVE",
"268 581 CURVE SMOOTH",
"249 600 OFFCURVE",
"230 619 OFFCURVE",
"214 619 CURVE SMOOTH",
"185 619 OFFCURVE",
"173 604 OFFCURVE",
"144 557 CURVE"
);
}
);
width = 500;
}
);
unicode = 00E3;
},
{
glyphname = adieresis;
layers = (
{
layerId = "55D69AED-E863-4611-8C8F-E227C62A7D68";
name = Regular;
paths = (
{
closed = 1;
nodes = (
"91 403 LINE",
"132 446 OFFCURVE",
"186 467 OFFCURVE",
"254 467 CURVE SMOOTH",
"366 467 OFFCURVE",
"435 415 OFFCURVE",
"435 283 CURVE SMOOTH",
"435 0 LINE",
"367 0 LINE",
"367 50 LINE",
"318 9 OFFCURVE",
"264 -11 OFFCURVE",
"203 -11 CURVE SMOOTH",
"155 -11 OFFCURVE",
"117 5 OFFCURVE",
"90 29 CURVE SMOOTH",
"63 53 OFFCURVE",
"49 85 OFFCURVE",
"49 116 CURVE SMOOTH",
"49 208 OFFCURVE",
"131 264 OFFCURVE",
"280 269 CURVE SMOOTH",
"366 269 LINE",
"366 286 LINE SMOOTH",
"366 377 OFFCURVE",
"329 408 OFFCURVE",
"249 408 CURVE SMOOTH",
"200 408 OFFCURVE",
"159 391 OFFCURVE",
"126 357 CURVE"
);
},
{
closed = 1;
nodes = (
"369 214 LINE",
"352 214 LINE SMOOTH",
"343 214 OFFCURVE",
"334 214 OFFCURVE",
"326 215 CURVE",
"317 215 OFFCURVE",
"309 215 OFFCURVE",
"301 215 CURVE SMOOTH",
"228 215 OFFCURVE",
"183 204 OFFCURVE",
"156 187 CURVE SMOOTH",
"129 170 OFFCURVE",
"121 147 OFFCURVE",
"121 122 CURVE SMOOTH",
"121 79 OFFCURVE",
"163 44 OFFCURVE",
"218 44 CURVE SMOOTH",
"258 44 OFFCURVE",
"290 59 OFFCURVE",
"314 77 CURVE SMOOTH",
"338 95 OFFCURVE",
"352 115 OFFCURVE",
"359 130 CURVE",
"366 143 OFFCURVE",
"369 161 OFFCURVE",
"369 184 CURVE SMOOTH"
);
},
{
closed = 1;
nodes = (
"220 640 OFFCURVE",
"225 628 OFFCURVE",
"225 614 CURVE SMOOTH",
"225 587 OFFCURVE",
"202 564 OFFCURVE",
"175 564 CURVE SMOOTH",
"147 564 OFFCURVE",
"124 587 OFFCURVE",
"124 614 CURVE SMOOTH",
"124 641 OFFCURVE",
"147 665 OFFCURVE",
"175 665 CURVE SMOOTH",
"188 665 OFFCURVE",
"200 660 OFFCURVE",
"210 650 CURVE SMOOTH"
);
},
{
closed = 1;
nodes = (
"398 640 OFFCURVE",
"403 628 OFFCURVE",
"403 614 CURVE SMOOTH",
"403 587 OFFCURVE",
"380 564 OFFCURVE",
"353 564 CURVE SMOOTH",
"325 564 OFFCURVE",
"303 586 OFFCURVE",
"303 614 CURVE SMOOTH",
"303 642 OFFCURVE",
"325 665 OFFCURVE",
"353 665 CURVE SMOOTH",
"366 665 OFFCURVE",
"378 660 OFFCURVE",
"388 650 CURVE SMOOTH"
);
}
);
width = 500;
}
);
unicode = 00E4;
},
{
glyphname = aring;
layers = (
{
layerId = "55D69AED-E863-4611-8C8F-E227C62A7D68";
name = Regular;
paths = (
{
closed = 1;
nodes = (
"91 403 LINE",
"132 446 OFFCURVE",
"186 467 OFFCURVE",
"254 467 CURVE SMOOTH",
"366 467 OFFCURVE",
"435 415 OFFCURVE",
"435 283 CURVE SMOOTH",
"435 0 LINE",
"367 0 LINE",
"367 50 LINE",
"318 9 OFFCURVE",
"264 -11 OFFCURVE",
"203 -11 CURVE SMOOTH",
"155 -11 OFFCURVE",
"117 5 OFFCURVE",
"90 29 CURVE SMOOTH",
"63 53 OFFCURVE",
"49 85 OFFCURVE",
"49 116 CURVE SMOOTH",
"49 208 OFFCURVE",
"131 264 OFFCURVE",
"280 269 CURVE SMOOTH",
"366 269 LINE",
"366 286 LINE SMOOTH",
"366 377 OFFCURVE",
"329 408 OFFCURVE",
"249 408 CURVE SMOOTH",
"200 408 OFFCURVE",
"159 391 OFFCURVE",
"126 357 CURVE"
);
},
{
closed = 1;
nodes = (
"369 214 LINE",
"352 214 LINE SMOOTH",
"343 214 OFFCURVE",
"334 214 OFFCURVE",
"326 215 CURVE",
"317 215 OFFCURVE",
"309 215 OFFCURVE",
"301 215 CURVE SMOOTH",
"228 215 OFFCURVE",
"183 204 OFFCURVE",
"156 187 CURVE SMOOTH",
"129 170 OFFCURVE",
"121 147 OFFCURVE",
"121 122 CURVE SMOOTH",
"121 79 OFFCURVE",
"163 44 OFFCURVE",
"218 44 CURVE SMOOTH",
"258 44 OFFCURVE",
"290 59 OFFCURVE",
"314 77 CURVE SMOOTH",
"338 95 OFFCURVE",
"352 115 OFFCURVE",
"359 130 CURVE",
"366 143 OFFCURVE",
"369 161 OFFCURVE",
"369 184 CURVE SMOOTH"
);
},
{
closed = 1;
nodes = (
"339 649 OFFCURVE",
"348 628 OFFCURVE",
"348 605 CURVE SMOOTH",
"348 581 OFFCURVE",
"337 559 OFFCURVE",
"321 543 CURVE SMOOTH",
"304 527 OFFCURVE",
"280 517 OFFCURVE",
"256 517 CURVE SMOOTH",
"232 517 OFFCURVE",
"209 527 OFFCURVE",
"193 543 CURVE SMOOTH",
"176 559 OFFCURVE",
"165 581 OFFCURVE",
"165 605 CURVE SMOOTH",
"165 629 OFFCURVE",
"176 651 OFFCURVE",
"193 667 CURVE SMOOTH",
"209 683 OFFCURVE",
"232 693 OFFCURVE",
"256 693 CURVE SMOOTH",
"281 693 OFFCURVE",
"302 684 OFFCURVE",
"321 667 CURVE"
);
},
{
closed = 1;
nodes = (
"234 652 OFFCURVE",
"216 631 OFFCURVE",
"216 606 CURVE SMOOTH",
"216 581 OFFCURVE",
"234 560 OFFCURVE",
"257 560 CURVE SMOOTH",
"280 560 OFFCURVE",
"299 581 OFFCURVE",
"299 606 CURVE SMOOTH",
"299 631 OFFCURVE",
"280 652 OFFCURVE",
"257 652 CURVE SMOOTH"
);
}
);
width = 500;
}
);
unicode = 00E5;
},
{
glyphname = ae;
layers = (
{
layerId = "55D69AED-E863-4611-8C8F-E227C62A7D68";
name = Regular;
paths = (
{
closed = 1;
nodes = (
"31 412 LINE",
"60 449 OFFCURVE",
"98 467 OFFCURVE",
"147 467 CURVE SMOOTH",
"195 467 OFFCURVE",
"237 444 OFFCURVE",
"258 405 CURVE",
"281 444 OFFCURVE",
"322 467 OFFCURVE",
"362 467 CURVE SMOOTH",
"453 467 OFFCURVE",
"490 392 OFFCURVE",
"490 268 CURVE SMOOTH",
"490 230 LINE",
"282 223 LINE",
"282 175 LINE SMOOTH",
"282 98 OFFCURVE",
"322 47 OFFCURVE",
"386 47 CURVE SMOOTH",
"417 47 OFFCURVE",
"441 59 OFFCURVE",
"459 84 CURVE",
"494 42 LINE",
"465 7 OFFCURVE",
"427 -11 OFFCURVE",
"380 -11 CURVE SMOOTH",
"329 -11 OFFCURVE",
"282 15 OFFCURVE",
"255 58 CURVE",
"232 15 OFFCURVE",
"190 -11 OFFCURVE",
"142 -11 CURVE SMOOTH",
"103 -11 OFFCURVE",
"70 7 OFFCURVE",
"47 32 CURVE SMOOTH",
"23 57 OFFCURVE",
"10 91 OFFCURVE",
"10 123 CURVE SMOOTH",
"10 215 OFFCURVE",
"83 274 OFFCURVE",
"198 278 CURVE SMOOTH",
"221 279 LINE",
"221 305 LINE SMOOTH",
"221 370 OFFCURVE",
"189 411 OFFCURVE",
"142 411 CURVE SMOOTH",
"112 411 OFFCURVE",
"87 397 OFFCURVE",
"66 368 CURVE"
);
},
{
closed = 1;
nodes = (
"221 219 LINE",
"199 218 LINE SMOOTH",
"150 215 OFFCURVE",
"119 205 OFFCURVE",
"100 189 CURVE SMOOTH",
"80 172 OFFCURVE",
"74 149 OFFCURVE",
"74 122 CURVE SMOOTH",
"74 103 OFFCURVE",
"83 87 OFFCURVE",
"96 73 CURVE SMOOTH",
"109 59 OFFCURVE",
"127 50 OFFCURVE",
"144 50 CURVE SMOOTH",
"201 50 OFFCURVE",
"222 85 OFFCURVE",
"222 158 CURVE SMOOTH",
"222 162 OFFCURVE",
"222 166 OFFCURVE",
"222 170 CURVE",
"221 173 OFFCURVE",
"221 177 OFFCURVE",
"221 181 CURVE SMOOTH"
);
},
{
closed = 1;
nodes = (
"282 279 LINE",
"432 284 LINE",
"432 305 LINE SMOOTH",
"432 370 OFFCURVE",
"406 411 OFFCURVE",
"362 411 CURVE SMOOTH",
"314 411 OFFCURVE",
"282 361 OFFCURVE",
"282 296 CURVE SMOOTH"
);
}
);
width = 500;
}
);
unicode = 00E6;
},
{
glyphname = ccedilla;
layers = (
{
layerId = "55D69AED-E863-4611-8C8F-E227C62A7D68";
name = Regular;
paths = (
{
closed = 1;
nodes = (
"327 -93 OFFCURVE",
"311 -85 OFFCURVE",
"280 -85 CURVE SMOOTH",
"250 -85 LINE",
"260 -10 LINE",
"201 -5 OFFCURVE",
"150 23 OFFCURVE",
"114 65 CURVE SMOOTH",
"78 107 OFFCURVE",
"56 164 OFFCURVE",
"56 231 CURVE SMOOTH",
"56 296 OFFCURVE",
"80 355 OFFCURVE",
"121 398 CURVE SMOOTH",
"161 441 OFFCURVE",
"219 466 OFFCURVE",
"286 466 CURVE SMOOTH",
"358 466 OFFCURVE",
"420 434 OFFCURVE",
"457 381 CURVE",
"406 322 LINE",
"399 326 OFFCURVE",
"400 330 OFFCURVE",
"401 338 CURVE",
"401 342 OFFCURVE",
"399 347 OFFCURVE",
"394 353 CURVE SMOOTH",
"389 359 OFFCURVE",
"381 367 OFFCURVE",
"369 377 CURVE SMOOTH",
"346 396 OFFCURVE",
"315 405 OFFCURVE",
"276 405 CURVE SMOOTH",
"237 405 OFFCURVE",
"201 389 OFFCURVE",
"174 359 CURVE SMOOTH",
"147 329 OFFCURVE",
"130 286 OFFCURVE",
"130 234 CURVE SMOOTH",
"130 182 OFFCURVE",
"147 137 OFFCURVE",
"175 105 CURVE SMOOTH",
"203 73 OFFCURVE",
"242 54 OFFCURVE",
"289 54 CURVE SMOOTH",
"335 54 OFFCURVE",
"375 73 OFFCURVE",
"408 110 CURVE",
"450 61 LINE",
"411 19 OFFCURVE",
"362 -5 OFFCURVE",
"304 -10 CURVE",
"299 -47 LINE",
"316 -48 LINE SMOOTH",
"361 -51 OFFCURVE",
"384 -70 OFFCURVE",
"384 -103 CURVE SMOOTH",
"384 -140 OFFCURVE",
"347 -177 OFFCURVE",
"268 -177 CURVE SMOOTH",
"229 -177 OFFCURVE",
"192 -165 OFFCURVE",
"157 -140 CURVE",
"182 -98 LINE",
"211 -122 OFFCURVE",
"244 -134 OFFCURVE",
"281 -134 CURVE SMOOTH",
"298 -134 OFFCURVE",
"310 -131 OFFCURVE",
"317 -126 CURVE SMOOTH",
"324 -121 OFFCURVE",
"327 -116 OFFCURVE",
"327 -109 CURVE SMOOTH"
);
}
);
width = 500;
}
);
unicode = 00E7;
},
{
glyphname = egrave;
layers = (
{
layerId = "55D69AED-E863-4611-8C8F-E227C62A7D68";
name = Regular;
paths = (
{
closed = 1;
nodes = (
"307 468 OFFCURVE",
"355 451 OFFCURVE",
"389 416 CURVE SMOOTH",
"423 380 OFFCURVE",
"445 326 OFFCURVE",
"445 251 CURVE SMOOTH",
"445 240 OFFCURVE",
"444 229 OFFCURVE",
"443 218 CURVE",
"118 218 LINE",
"121 154 OFFCURVE",
"142 112 OFFCURVE",
"171 85 CURVE SMOOTH",
"200 58 OFFCURVE",
"238 48 OFFCURVE",
"274 48 CURVE SMOOTH",
"321 48 OFFCURVE",
"361 65 OFFCURVE",
"392 99 CURVE",
"432 60 LINE",
"393 13 OFFCURVE",
"340 -10 OFFCURVE",
"272 -10 CURVE SMOOTH",
"205 -10 OFFCURVE",
"149 11 OFFCURVE",
"110 51 CURVE SMOOTH",
"71 91 OFFCURVE",
"49 151 OFFCURVE",
"49 227 CURVE SMOOTH",
"49 304 OFFCURVE",
"73 365 OFFCURVE",
"111 406 CURVE SMOOTH",
"149 446 OFFCURVE",
"200 468 OFFCURVE",
"259 468 CURVE SMOOTH"
);
},
{
closed = 1;
nodes = (
"372 274 LINE",
"372 277 OFFCURVE",
"372 279 OFFCURVE",
"373 282 CURVE",
"373 284 OFFCURVE",
"373 287 OFFCURVE",
"373 290 CURVE SMOOTH",
"373 323 OFFCURVE",
"359 355 OFFCURVE",
"338 377 CURVE SMOOTH",
"317 399 OFFCURVE",
"287 413 OFFCURVE",
"254 413 CURVE SMOOTH",
"191 413 OFFCURVE",
"134 370 OFFCURVE",
"121 274 CURVE"
);
},
{
closed = 1;
nodes = (
"243 699 LINE",
"331 552 LINE",
"281 522 LINE",
"180 657 LINE"
);
}
);
width = 500;
}
);
unicode = 00E8;
},
{
glyphname = eacute;
layers = (
{
layerId = "55D69AED-E863-4611-8C8F-E227C62A7D68";
name = Regular;
paths = (
{
closed = 1;
nodes = (
"307 468 OFFCURVE",
"355 451 OFFCURVE",
"389 416 CURVE SMOOTH",
"423 380 OFFCURVE",
"445 326 OFFCURVE",
"445 251 CURVE SMOOTH",
"445 240 OFFCURVE",
"444 229 OFFCURVE",
"443 218 CURVE",
"118 218 LINE",
"121 154 OFFCURVE",
"142 112 OFFCURVE",
"171 85 CURVE SMOOTH",
"200 58 OFFCURVE",
"238 48 OFFCURVE",
"274 48 CURVE SMOOTH",
"321 48 OFFCURVE",
"361 65 OFFCURVE",
"392 99 CURVE",
"432 60 LINE",
"393 13 OFFCURVE",
"340 -10 OFFCURVE",
"272 -10 CURVE SMOOTH",
"205 -10 OFFCURVE",
"149 11 OFFCURVE",
"110 51 CURVE SMOOTH",
"71 91 OFFCURVE",
"49 151 OFFCURVE",
"49 227 CURVE SMOOTH",
"49 304 OFFCURVE",
"73 365 OFFCURVE",
"111 406 CURVE SMOOTH",
"149 446 OFFCURVE",
"200 468 OFFCURVE",
"259 468 CURVE SMOOTH"
);
},
{
closed = 1;
nodes = (
"372 274 LINE",
"372 277 OFFCURVE",
"372 279 OFFCURVE",
"373 282 CURVE",
"373 284 OFFCURVE",
"373 287 OFFCURVE",
"373 290 CURVE SMOOTH",
"373 323 OFFCURVE",
"359 355 OFFCURVE",
"338 377 CURVE SMOOTH",
"317 399 OFFCURVE",
"287 413 OFFCURVE",
"254 413 CURVE SMOOTH",
"191 413 OFFCURVE",
"134 370 OFFCURVE",
"121 274 CURVE"
);
},
{
closed = 1;
nodes = (
"292 699 LINE",
"355 657 LINE",
"254 522 LINE",
"204 552 LINE"
);
}
);
width = 500;
}
);
unicode = 00E9;
},
{
glyphname = ecircumflex;
layers = (
{
layerId = "55D69AED-E863-4611-8C8F-E227C62A7D68";
name = Regular;
paths = (
{
closed = 1;
nodes = (
"307 468 OFFCURVE",
"355 451 OFFCURVE",
"389 416 CURVE SMOOTH",
"423 380 OFFCURVE",
"445 326 OFFCURVE",
"445 251 CURVE SMOOTH",
"445 240 OFFCURVE",
"444 229 OFFCURVE",
"443 218 CURVE",
"118 218 LINE",
"121 154 OFFCURVE",
"142 112 OFFCURVE",
"171 85 CURVE SMOOTH",
"200 58 OFFCURVE",
"238 48 OFFCURVE",
"274 48 CURVE SMOOTH",
"321 48 OFFCURVE",
"361 65 OFFCURVE",
"392 99 CURVE",
"432 60 LINE",
"393 13 OFFCURVE",
"340 -10 OFFCURVE",
"272 -10 CURVE SMOOTH",
"205 -10 OFFCURVE",
"149 11 OFFCURVE",
"110 51 CURVE SMOOTH",
"71 91 OFFCURVE",
"49 151 OFFCURVE",
"49 227 CURVE SMOOTH",
"49 304 OFFCURVE",
"73 365 OFFCURVE",
"111 406 CURVE SMOOTH",
"149 446 OFFCURVE",
"200 468 OFFCURVE",
"259 468 CURVE SMOOTH"
);
},
{
closed = 1;
nodes = (
"372 274 LINE",
"372 277 OFFCURVE",
"372 279 OFFCURVE",
"373 282 CURVE",
"373 284 OFFCURVE",
"373 287 OFFCURVE",
"373 290 CURVE SMOOTH",
"373 323 OFFCURVE",
"359 355 OFFCURVE",
"338 377 CURVE SMOOTH",
"317 399 OFFCURVE",
"287 413 OFFCURVE",
"254 413 CURVE SMOOTH",
"191 413 OFFCURVE",
"134 370 OFFCURVE",
"121 274 CURVE"
);
},
{
closed = 1;
nodes = (
"134 545 LINE",
"245 685 LINE",
"267 685 LINE",
"377 544 LINE",
"331 509 LINE",
"253 612 LINE",
"172 510 LINE"
);
}
);
width = 500;
}
);
unicode = 00EA;
},
{
glyphname = edieresis;
layers = (
{
layerId = "55D69AED-E863-4611-8C8F-E227C62A7D68";
name = Regular;
paths = (
{
closed = 1;
nodes = (
"307 468 OFFCURVE",
"355 451 OFFCURVE",
"389 416 CURVE SMOOTH",
"423 380 OFFCURVE",
"445 326 OFFCURVE",
"445 251 CURVE SMOOTH",
"445 240 OFFCURVE",
"444 229 OFFCURVE",
"443 218 CURVE",
"118 218 LINE",
"121 154 OFFCURVE",
"142 112 OFFCURVE",
"171 85 CURVE SMOOTH",
"200 58 OFFCURVE",
"238 48 OFFCURVE",
"274 48 CURVE SMOOTH",
"321 48 OFFCURVE",
"361 65 OFFCURVE",
"392 99 CURVE",
"432 60 LINE",
"393 13 OFFCURVE",
"340 -10 OFFCURVE",
"272 -10 CURVE SMOOTH",
"205 -10 OFFCURVE",
"149 11 OFFCURVE",
"110 51 CURVE SMOOTH",
"71 91 OFFCURVE",
"49 151 OFFCURVE",
"49 227 CURVE SMOOTH",
"49 304 OFFCURVE",
"73 365 OFFCURVE",
"111 406 CURVE SMOOTH",
"149 446 OFFCURVE",
"200 468 OFFCURVE",
"259 468 CURVE SMOOTH"
);
},
{
closed = 1;
nodes = (
"372 274 LINE",
"372 277 OFFCURVE",
"372 279 OFFCURVE",
"373 282 CURVE",
"373 284 OFFCURVE",
"373 287 OFFCURVE",
"373 290 CURVE SMOOTH",
"373 323 OFFCURVE",
"359 355 OFFCURVE",
"338 377 CURVE SMOOTH",
"317 399 OFFCURVE",
"287 413 OFFCURVE",
"254 413 CURVE SMOOTH",
"191 413 OFFCURVE",
"134 370 OFFCURVE",
"121 274 CURVE"
);
},
{
closed = 1;
nodes = (
"209 640 OFFCURVE",
"214 628 OFFCURVE",
"214 614 CURVE SMOOTH",
"214 587 OFFCURVE",
"191 564 OFFCURVE",
"164 564 CURVE SMOOTH",
"136 564 OFFCURVE",
"113 587 OFFCURVE",
"113 614 CURVE SMOOTH",
"113 641 OFFCURVE",
"136 665 OFFCURVE",
"164 665 CURVE SMOOTH",
"177 665 OFFCURVE",
"189 660 OFFCURVE",
"199 650 CURVE SMOOTH"
);
},
{
closed = 1;
nodes = (
"387 640 OFFCURVE",
"392 628 OFFCURVE",
"392 614 CURVE SMOOTH",
"392 587 OFFCURVE",
"369 564 OFFCURVE",
"342 564 CURVE SMOOTH",
"314 564 OFFCURVE",
"292 586 OFFCURVE",
"292 614 CURVE SMOOTH",
"292 642 OFFCURVE",
"314 665 OFFCURVE",
"342 665 CURVE SMOOTH",
"355 665 OFFCURVE",
"367 660 OFFCURVE",
"377 650 CURVE SMOOTH"
);
}
);
width = 500;
}
);
unicode = 00EB;
},
{
glyphname = igrave;
layers = (
{
layerId = "55D69AED-E863-4611-8C8F-E227C62A7D68";
name = Regular;
paths = (
{
closed = 1;
nodes = (
"106 457 LINE",
"289 457 LINE",
"289 58 LINE",
"396 58 LINE",
"396 0 LINE",
"100 0 LINE",
"100 58 LINE",
"217 58 LINE",
"217 399 LINE",
"106 399 LINE"
);
},
{
closed = 1;
nodes = (
"193 699 LINE",
"281 552 LINE",
"231 522 LINE",
"130 657 LINE"
);
}
);
width = 500;
}
);
unicode = 00EC;
},
{
glyphname = iacute;
layers = (
{
layerId = "55D69AED-E863-4611-8C8F-E227C62A7D68";
name = Regular;
paths = (
{
closed = 1;
nodes = (
"106 457 LINE",
"289 457 LINE",
"289 58 LINE",
"396 58 LINE",
"396 0 LINE",
"100 0 LINE",
"100 58 LINE",
"217 58 LINE",
"217 399 LINE",
"106 399 LINE"
);
},
{
closed = 1;
nodes = (
"284 699 LINE",
"347 657 LINE",
"246 522 LINE",
"196 552 LINE"
);
}
);
width = 500;
}
);
unicode = 00ED;
},
{
glyphname = icircumflex;
layers = (
{
layerId = "55D69AED-E863-4611-8C8F-E227C62A7D68";
name = Regular;
paths = (
{
closed = 1;
nodes = (
"106 457 LINE",
"289 457 LINE",
"289 58 LINE",
"396 58 LINE",
"396 0 LINE",
"100 0 LINE",
"100 58 LINE",
"217 58 LINE",
"217 399 LINE",
"106 399 LINE"
);
},
{
closed = 1;
nodes = (
"114 545 LINE",
"225 685 LINE",
"247 685 LINE",
"357 544 LINE",
"311 509 LINE",
"233 612 LINE",
"152 510 LINE"
);
}
);
width = 500;
}
);
unicode = 00EE;
},
{
glyphname = idieresis;
layers = (
{
layerId = "55D69AED-E863-4611-8C8F-E227C62A7D68";
name = Regular;
paths = (
{
closed = 1;
nodes = (
"106 457 LINE",
"289 457 LINE",
"289 58 LINE",
"396 58 LINE",
"396 0 LINE",
"100 0 LINE",
"100 58 LINE",
"217 58 LINE",
"217 399 LINE",
"106 399 LINE"
);
},
{
closed = 1;
nodes = (
"200 640 OFFCURVE",
"205 628 OFFCURVE",
"205 614 CURVE SMOOTH",
"205 587 OFFCURVE",
"182 564 OFFCURVE",
"155 564 CURVE SMOOTH",
"127 564 OFFCURVE",
"104 587 OFFCURVE",
"104 614 CURVE SMOOTH",
"104 641 OFFCURVE",
"127 665 OFFCURVE",
"155 665 CURVE SMOOTH",
"168 665 OFFCURVE",
"180 660 OFFCURVE",
"190 650 CURVE SMOOTH"
);
},
{
closed = 1;
nodes = (
"378 640 OFFCURVE",
"383 628 OFFCURVE",
"383 614 CURVE SMOOTH",
"383 587 OFFCURVE",
"360 564 OFFCURVE",
"333 564 CURVE SMOOTH",
"305 564 OFFCURVE",
"283 586 OFFCURVE",
"283 614 CURVE SMOOTH",
"283 642 OFFCURVE",
"305 665 OFFCURVE",
"333 665 CURVE SMOOTH",
"346 665 OFFCURVE",
"358 660 OFFCURVE",
"368 650 CURVE SMOOTH"
);
}
);
width = 500;
}
);
unicode = 00EF;
},
{
glyphname = eth;
layers = (
{
layerId = "55D69AED-E863-4611-8C8F-E227C62A7D68";
name = Regular;
paths = (
{
closed = 1;
nodes = (
"289 50 OFFCURVE",
"322 64 OFFCURVE",
"347 94 CURVE SMOOTH",
"371 124 OFFCURVE",
"387 168 OFFCURVE",
"387 232 CURVE SMOOTH",
"387 296 OFFCURVE",
"370 340 OFFCURVE",
"344 368 CURVE SMOOTH",
"318 395 OFFCURVE",
"285 406 OFFCURVE",
"253 406 CURVE SMOOTH",
"221 406 OFFCURVE",
"187 391 OFFCURVE",
"161 362 CURVE SMOOTH",
"135 333 OFFCURVE",
"117 289 OFFCURVE",
"117 232 CURVE SMOOTH",
"117 177 OFFCURVE",
"133 132 OFFCURVE",
"158 100 CURVE SMOOTH",
"182 68 OFFCURVE",
"217 50 OFFCURVE",
"256 50 CURVE SMOOTH"
);
},
{
closed = 1;
nodes = (
"347 570 LINE",
"422 485 OFFCURVE",
"460 379 OFFCURVE",
"460 253 CURVE SMOOTH",
"460 173 OFFCURVE",
"442 107 OFFCURVE",
"408 61 CURVE SMOOTH",
"374 15 OFFCURVE",
"321 -12 OFFCURVE",
"256 -12 CURVE SMOOTH",
"197 -12 OFFCURVE",
"144 13 OFFCURVE",
"105 55 CURVE SMOOTH",
"65 97 OFFCURVE",
"40 155 OFFCURVE",
"40 223 CURVE SMOOTH",
"40 290 OFFCURVE",
"65 351 OFFCURVE",
"103 395 CURVE SMOOTH",
"141 439 OFFCURVE",
"191 467 OFFCURVE",
"242 467 CURVE SMOOTH",
"294 467 OFFCURVE",
"336 450 OFFCURVE",
"369 415 CURVE",
"348 466 OFFCURVE",
"320 512 OFFCURVE",
"283 552 CURVE",
"155 516 LINE",
"137 564 LINE",
"241 592 LINE",
"211 617 OFFCURVE",
"177 639 OFFCURVE",
"139 656 CURVE",
"220 672 LINE",
"250 655 OFFCURVE",
"279 635 OFFCURVE",
"307 610 CURVE",
"415 639 LINE",
"432 595 LINE"
);
}
);
width = 500;
}
);
unicode = 00F0;
},
{
glyphname = ntilde;
layers = (
{
layerId = "55D69AED-E863-4611-8C8F-E227C62A7D68";
name = Regular;
paths = (
{
closed = 1;
nodes = (
"68 0 LINE",
"68 457 LINE",
"142 457 LINE",
"142 376 LINE",
"177 432 OFFCURVE",
"235 468 OFFCURVE",
"291 468 CURVE SMOOTH",
"331 468 OFFCURVE",
"367 455 OFFCURVE",
"392 424 CURVE SMOOTH",
"417 393 OFFCURVE",
"432 346 OFFCURVE",
"432 277 CURVE SMOOTH",
"432 0 LINE",
"361 0 LINE",
"361 275 LINE SMOOTH",
"361 371 OFFCURVE",
"324 405 OFFCURVE",
"277 405 CURVE SMOOTH",
"246 405 OFFCURVE",
"213 391 OFFCURVE",
"187 367 CURVE SMOOTH",
"161 342 OFFCURVE",
"142 307 OFFCURVE",
"142 263 CURVE SMOOTH",
"142 0 LINE"
);
},
{
closed = 1;
nodes = (
"87 589 LINE",
"123 647 OFFCURVE",
"161 676 OFFCURVE",
"200 676 CURVE SMOOTH",
"224 676 OFFCURVE",
"254 658 OFFCURVE",
"275 639 CURVE SMOOTH",
"296 619 OFFCURVE",
"316 601 OFFCURVE",
"325 601 CURVE SMOOTH",
"341 601 OFFCURVE",
"352 607 OFFCURVE",
"361 617 CURVE",
"365 622 OFFCURVE",
"369 627 OFFCURVE",
"373 634 CURVE",
"377 640 OFFCURVE",
"382 647 OFFCURVE",
"388 654 CURVE",
"425 614 LINE",
"385 566 OFFCURVE",
"360 543 OFFCURVE",
"329 543 CURVE SMOOTH",
"298 543 OFFCURVE",
"274 562 OFFCURVE",
"255 581 CURVE SMOOTH",
"236 600 OFFCURVE",
"217 619 OFFCURVE",
"201 619 CURVE SMOOTH",
"172 619 OFFCURVE",
"160 604 OFFCURVE",
"131 557 CURVE"
);
}
);
width = 500;
}
);
unicode = 00F1;
},
{
glyphname = ograve;
layers = (
{
layerId = "55D69AED-E863-4611-8C8F-E227C62A7D68";
name = Regular;
paths = (
{
closed = 1;
nodes = (
"310 467 OFFCURVE",
"362 444 OFFCURVE",
"399 403 CURVE SMOOTH",
"436 362 OFFCURVE",
"460 301 OFFCURVE",
"460 228 CURVE SMOOTH",
"460 153 OFFCURVE",
"437 95 OFFCURVE",
"400 53 CURVE SMOOTH",
"363 11 OFFCURVE",
"310 -12 OFFCURVE",
"253 -12 CURVE SMOOTH",
"194 -12 OFFCURVE",
"142 14 OFFCURVE",
"103 56 CURVE SMOOTH",
"64 98 OFFCURVE",
"40 158 OFFCURVE",
"40 226 CURVE SMOOTH",
"40 294 OFFCURVE",
"65 357 OFFCURVE",
"105 399 CURVE SMOOTH",
"144 441 OFFCURVE",
"198 467 OFFCURVE",
"254 467 CURVE SMOOTH"
);
},
{
closed = 1;
nodes = (
"388 283 OFFCURVE",
"371 328 OFFCURVE",
"346 359 CURVE SMOOTH",
"321 390 OFFCURVE",
"287 406 OFFCURVE",
"251 406 CURVE SMOOTH",
"215 406 OFFCURVE",
"181 390 OFFCURVE",
"157 359 CURVE SMOOTH",
"132 328 OFFCURVE",
"116 285 OFFCURVE",
"116 230 CURVE SMOOTH",
"116 177 OFFCURVE",
"132 132 OFFCURVE",
"157 100 CURVE SMOOTH",
"181 68 OFFCURVE",
"216 50 OFFCURVE",
"253 50 CURVE SMOOTH",
"290 50 OFFCURVE",
"324 66 OFFCURVE",
"349 96 CURVE SMOOTH",
"373 126 OFFCURVE",
"388 170 OFFCURVE",
"388 226 CURVE SMOOTH"
);
},
{
closed = 1;
nodes = (
"243 699 LINE",
"331 552 LINE",
"281 522 LINE",
"180 657 LINE"
);
}
);
width = 500;
}
);
unicode = 00F2;
},
{
glyphname = oacute;
layers = (
{
layerId = "55D69AED-E863-4611-8C8F-E227C62A7D68";
name = Regular;
paths = (
{
closed = 1;
nodes = (
"310 467 OFFCURVE",
"362 444 OFFCURVE",
"399 403 CURVE SMOOTH",
"436 362 OFFCURVE",
"460 301 OFFCURVE",
"460 228 CURVE SMOOTH",
"460 153 OFFCURVE",
"437 95 OFFCURVE",
"400 53 CURVE SMOOTH",
"363 11 OFFCURVE",
"310 -12 OFFCURVE",
"253 -12 CURVE SMOOTH",
"194 -12 OFFCURVE",
"142 14 OFFCURVE",
"103 56 CURVE SMOOTH",
"64 98 OFFCURVE",
"40 158 OFFCURVE",
"40 226 CURVE SMOOTH",
"40 294 OFFCURVE",
"65 357 OFFCURVE",
"105 399 CURVE SMOOTH",
"144 441 OFFCURVE",
"198 467 OFFCURVE",
"254 467 CURVE SMOOTH"
);
},
{
closed = 1;
nodes = (
"388 283 OFFCURVE",
"371 328 OFFCURVE",
"346 359 CURVE SMOOTH",
"321 390 OFFCURVE",
"287 406 OFFCURVE",
"251 406 CURVE SMOOTH",
"215 406 OFFCURVE",
"181 390 OFFCURVE",
"157 359 CURVE SMOOTH",
"132 328 OFFCURVE",
"116 285 OFFCURVE",
"116 230 CURVE SMOOTH",
"116 177 OFFCURVE",
"132 132 OFFCURVE",
"157 100 CURVE SMOOTH",
"181 68 OFFCURVE",
"216 50 OFFCURVE",
"253 50 CURVE SMOOTH",
"290 50 OFFCURVE",
"324 66 OFFCURVE",
"349 96 CURVE SMOOTH",
"373 126 OFFCURVE",
"388 170 OFFCURVE",
"388 226 CURVE SMOOTH"
);
},
{
closed = 1;
nodes = (
"292 699 LINE",
"355 657 LINE",
"254 522 LINE",
"204 552 LINE"
);
}
);
width = 500;
}
);
unicode = 00F3;
},
{
glyphname = ocircumflex;
layers = (
{
layerId = "55D69AED-E863-4611-8C8F-E227C62A7D68";
name = Regular;
paths = (
{
closed = 1;
nodes = (
"310 467 OFFCURVE",
"362 444 OFFCURVE",
"399 403 CURVE SMOOTH",
"436 362 OFFCURVE",
"460 301 OFFCURVE",
"460 228 CURVE SMOOTH",
"460 153 OFFCURVE",
"437 95 OFFCURVE",
"400 53 CURVE SMOOTH",
"363 11 OFFCURVE",
"310 -12 OFFCURVE",
"253 -12 CURVE SMOOTH",
"194 -12 OFFCURVE",
"142 14 OFFCURVE",
"103 56 CURVE SMOOTH",
"64 98 OFFCURVE",
"40 158 OFFCURVE",
"40 226 CURVE SMOOTH",
"40 294 OFFCURVE",
"65 357 OFFCURVE",
"105 399 CURVE SMOOTH",
"144 441 OFFCURVE",
"198 467 OFFCURVE",
"254 467 CURVE SMOOTH"
);
},
{
closed = 1;
nodes = (
"388 283 OFFCURVE",
"371 328 OFFCURVE",
"346 359 CURVE SMOOTH",
"321 390 OFFCURVE",
"287 406 OFFCURVE",
"251 406 CURVE SMOOTH",
"215 406 OFFCURVE",
"181 390 OFFCURVE",
"157 359 CURVE SMOOTH",
"132 328 OFFCURVE",
"116 285 OFFCURVE",
"116 230 CURVE SMOOTH",
"116 177 OFFCURVE",
"132 132 OFFCURVE",
"157 100 CURVE SMOOTH",
"181 68 OFFCURVE",
"216 50 OFFCURVE",
"253 50 CURVE SMOOTH",
"290 50 OFFCURVE",
"324 66 OFFCURVE",
"349 96 CURVE SMOOTH",
"373 126 OFFCURVE",
"388 170 OFFCURVE",
"388 226 CURVE SMOOTH"
);
},
{
closed = 1;
nodes = (
"134 545 LINE",
"245 685 LINE",
"267 685 LINE",
"377 544 LINE",
"331 509 LINE",
"253 612 LINE",
"172 510 LINE"
);
}
);
width = 500;
}
);
unicode = 00F4;
},
{
glyphname = otilde;
layers = (
{
layerId = "55D69AED-E863-4611-8C8F-E227C62A7D68";
name = Regular;
paths = (
{
closed = 1;
nodes = (
"310 467 OFFCURVE",
"362 444 OFFCURVE",
"399 403 CURVE SMOOTH",
"436 362 OFFCURVE",
"460 301 OFFCURVE",
"460 228 CURVE SMOOTH",
"460 153 OFFCURVE",
"437 95 OFFCURVE",
"400 53 CURVE SMOOTH",
"363 11 OFFCURVE",
"310 -12 OFFCURVE",
"253 -12 CURVE SMOOTH",
"194 -12 OFFCURVE",
"142 14 OFFCURVE",
"103 56 CURVE SMOOTH",
"64 98 OFFCURVE",
"40 158 OFFCURVE",
"40 226 CURVE SMOOTH",
"40 294 OFFCURVE",
"65 357 OFFCURVE",
"105 399 CURVE SMOOTH",
"144 441 OFFCURVE",
"198 467 OFFCURVE",
"254 467 CURVE SMOOTH"
);
},
{
closed = 1;
nodes = (
"388 283 OFFCURVE",
"371 328 OFFCURVE",
"346 359 CURVE SMOOTH",
"321 390 OFFCURVE",
"287 406 OFFCURVE",
"251 406 CURVE SMOOTH",
"215 406 OFFCURVE",
"181 390 OFFCURVE",
"157 359 CURVE SMOOTH",
"132 328 OFFCURVE",
"116 285 OFFCURVE",
"116 230 CURVE SMOOTH",
"116 177 OFFCURVE",
"132 132 OFFCURVE",
"157 100 CURVE SMOOTH",
"181 68 OFFCURVE",
"216 50 OFFCURVE",
"253 50 CURVE SMOOTH",
"290 50 OFFCURVE",
"324 66 OFFCURVE",
"349 96 CURVE SMOOTH",
"373 126 OFFCURVE",
"388 170 OFFCURVE",
"388 226 CURVE SMOOTH"
);
},
{
closed = 1;
nodes = (
"91 589 LINE",
"127 647 OFFCURVE",
"165 676 OFFCURVE",
"204 676 CURVE SMOOTH",
"228 676 OFFCURVE",
"258 658 OFFCURVE",
"279 639 CURVE SMOOTH",
"300 619 OFFCURVE",
"320 601 OFFCURVE",
"329 601 CURVE SMOOTH",
"345 601 OFFCURVE",
"356 607 OFFCURVE",
"365 617 CURVE",
"369 622 OFFCURVE",
"373 627 OFFCURVE",
"377 634 CURVE",
"381 640 OFFCURVE",
"386 647 OFFCURVE",
"392 654 CURVE",
"429 614 LINE",
"389 566 OFFCURVE",
"364 543 OFFCURVE",
"333 543 CURVE SMOOTH",
"302 543 OFFCURVE",
"278 562 OFFCURVE",
"259 581 CURVE SMOOTH",
"240 600 OFFCURVE",
"221 619 OFFCURVE",
"205 619 CURVE SMOOTH",
"176 619 OFFCURVE",
"164 604 OFFCURVE",
"135 557 CURVE"
);
}
);
width = 500;
}
);
unicode = 00F5;
},
{
glyphname = odieresis;
layers = (
{
layerId = "55D69AED-E863-4611-8C8F-E227C62A7D68";
name = Regular;
paths = (
{
closed = 1;
nodes = (
"310 467 OFFCURVE",
"362 444 OFFCURVE",
"399 403 CURVE SMOOTH",
"436 362 OFFCURVE",
"460 301 OFFCURVE",
"460 228 CURVE SMOOTH",
"460 153 OFFCURVE",
"437 95 OFFCURVE",
"400 53 CURVE SMOOTH",
"363 11 OFFCURVE",
"310 -12 OFFCURVE",
"253 -12 CURVE SMOOTH",
"194 -12 OFFCURVE",
"142 14 OFFCURVE",
"103 56 CURVE SMOOTH",
"64 98 OFFCURVE",
"40 158 OFFCURVE",
"40 226 CURVE SMOOTH",
"40 294 OFFCURVE",
"65 357 OFFCURVE",
"105 399 CURVE SMOOTH",
"144 441 OFFCURVE",
"198 467 OFFCURVE",
"254 467 CURVE SMOOTH"
);
},
{
closed = 1;
nodes = (
"388 283 OFFCURVE",
"371 328 OFFCURVE",
"346 359 CURVE SMOOTH",
"321 390 OFFCURVE",
"287 406 OFFCURVE",
"251 406 CURVE SMOOTH",
"215 406 OFFCURVE",
"181 390 OFFCURVE",
"157 359 CURVE SMOOTH",
"132 328 OFFCURVE",
"116 285 OFFCURVE",
"116 230 CURVE SMOOTH",
"116 177 OFFCURVE",
"132 132 OFFCURVE",
"157 100 CURVE SMOOTH",
"181 68 OFFCURVE",
"216 50 OFFCURVE",
"253 50 CURVE SMOOTH",
"290 50 OFFCURVE",
"324 66 OFFCURVE",
"349 96 CURVE SMOOTH",
"373 126 OFFCURVE",
"388 170 OFFCURVE",
"388 226 CURVE SMOOTH"
);
},
{
closed = 1;
nodes = (
"208 640 OFFCURVE",
"213 628 OFFCURVE",
"213 614 CURVE SMOOTH",
"213 587 OFFCURVE",
"190 564 OFFCURVE",
"163 564 CURVE SMOOTH",
"135 564 OFFCURVE",
"112 587 OFFCURVE",
"112 614 CURVE SMOOTH",
"112 641 OFFCURVE",
"135 665 OFFCURVE",
"163 665 CURVE SMOOTH",
"176 665 OFFCURVE",
"188 660 OFFCURVE",
"198 650 CURVE SMOOTH"
);
},
{
closed = 1;
nodes = (
"386 640 OFFCURVE",
"391 628 OFFCURVE",
"391 614 CURVE SMOOTH",
"391 587 OFFCURVE",
"368 564 OFFCURVE",
"341 564 CURVE SMOOTH",
"313 564 OFFCURVE",
"291 586 OFFCURVE",
"291 614 CURVE SMOOTH",
"291 642 OFFCURVE",
"313 665 OFFCURVE",
"341 665 CURVE SMOOTH",
"354 665 OFFCURVE",
"366 660 OFFCURVE",
"376 650 CURVE SMOOTH"
);
}
);
width = 500;
}
);
unicode = 00F6;
},
{
glyphname = divide;
layers = (
{
layerId = "55D69AED-E863-4611-8C8F-E227C62A7D68";
name = Regular;
paths = (
{
closed = 1;
nodes = (
"71 348 LINE",
"431 348 LINE",
"431 281 LINE",
"71 281 LINE"
);
},
{
closed = 1;
nodes = (
"296 488 OFFCURVE",
"300 477 OFFCURVE",
"300 466 CURVE SMOOTH",
"300 442 OFFCURVE",
"280 422 OFFCURVE",
"255 422 CURVE SMOOTH",
"231 422 OFFCURVE",
"211 442 OFFCURVE",
"211 466 CURVE SMOOTH",
"211 491 OFFCURVE",
"232 512 OFFCURVE",
"255 512 CURVE SMOOTH",
"267 512 OFFCURVE",
"278 507 OFFCURVE",
"287 498 CURVE"
);
},
{
closed = 1;
nodes = (
"296 180 OFFCURVE",
"300 169 OFFCURVE",
"300 158 CURVE SMOOTH",
"300 134 OFFCURVE",
"280 114 OFFCURVE",
"256 114 CURVE SMOOTH",
"232 114 OFFCURVE",
"210 133 OFFCURVE",
"210 158 CURVE SMOOTH",
"210 185 OFFCURVE",
"233 204 OFFCURVE",
"256 204 CURVE SMOOTH",
"267 204 OFFCURVE",
"278 199 OFFCURVE",
"287 190 CURVE"
);
}
);
width = 500;
}
);
unicode = 00F7;
},
{
glyphname = oslash;
layers = (
{
layerId = "55D69AED-E863-4611-8C8F-E227C62A7D68";
name = Regular;
paths = (
{
closed = 1;
nodes = (
"216 406 OFFCURVE",
"182 389 OFFCURVE",
"157 359 CURVE SMOOTH",
"132 329 OFFCURVE",
"116 286 OFFCURVE",
"116 235 CURVE SMOOTH",
"116 184 OFFCURVE",
"127 143 OFFCURVE",
"150 110 CURVE",
"304 393 LINE",
"287 402 OFFCURVE",
"270 406 OFFCURVE",
"252 406 CURVE SMOOTH"
);
},
{
closed = 1;
nodes = (
"386 417 LINE",
"435 372 OFFCURVE",
"460 310 OFFCURVE",
"460 233 CURVE SMOOTH",
"460 156 OFFCURVE",
"437 95 OFFCURVE",
"400 53 CURVE SMOOTH",
"363 11 OFFCURVE",
"311 -12 OFFCURVE",
"255 -12 CURVE SMOOTH",
"222 -12 OFFCURVE",
"191 -5 OFFCURVE",
"162 10 CURVE",
"122 -64 LINE",
"70 -37 LINE",
"114 44 LINE",
"65 91 OFFCURVE",
"40 150 OFFCURVE",
"40 221 CURVE SMOOTH",
"40 293 OFFCURVE",
"65 354 OFFCURVE",
"105 398 CURVE SMOOTH",
"144 441 OFFCURVE",
"198 467 OFFCURVE",
"257 467 CURVE SMOOTH",
"283 467 OFFCURVE",
"309 461 OFFCURVE",
"335 450 CURVE",
"372 519 LINE",
"425 490 LINE"
);
},
{
closed = 1;
nodes = (
"194 67 LINE",
"213 56 OFFCURVE",
"234 50 OFFCURVE",
"255 50 CURVE SMOOTH",
"291 50 OFFCURVE",
"324 67 OFFCURVE",
"349 97 CURVE SMOOTH",
"373 127 OFFCURVE",
"388 170 OFFCURVE",
"388 223 CURVE SMOOTH",
"388 278 OFFCURVE",
"376 321 OFFCURVE",
"351 354 CURVE"
);
}
);
width = 500;
}
);
unicode = 00F8;
},
{
glyphname = ugrave;
layers = (
{
layerId = "55D69AED-E863-4611-8C8F-E227C62A7D68";
name = Regular;
paths = (
{
closed = 1;
nodes = (
"63 457 LINE",
"135 457 LINE",
"135 202 LINE SMOOTH",
"135 143 OFFCURVE",
"146 105 OFFCURVE",
"166 81 CURVE SMOOTH",
"185 57 OFFCURVE",
"210 47 OFFCURVE",
"239 47 CURVE",
"271 50 OFFCURVE",
"301 63 OFFCURVE",
"325 88 CURVE SMOOTH",
"348 112 OFFCURVE",
"362 150 OFFCURVE",
"362 205 CURVE SMOOTH",
"362 457 LINE",
"435 457 LINE",
"435 41 LINE SMOOTH",
"435 26 OFFCURVE",
"437 12 OFFCURVE",
"440 0 CURVE",
"364 0 LINE",
"363 9 OFFCURVE",
"361 20 OFFCURVE",
"362 35 CURVE",
"363 70 LINE",
"334 19 OFFCURVE",
"281 -11 OFFCURVE",
"221 -11 CURVE SMOOTH",
"174 -11 OFFCURVE",
"138 5 OFFCURVE",
"108 40 CURVE SMOOTH",
"78 75 OFFCURVE",
"62 127 OFFCURVE",
"62 202 CURVE SMOOTH"
);
},
{
closed = 1;
nodes = (
"243 699 LINE",
"331 552 LINE",
"281 522 LINE",
"180 657 LINE"
);
}
);
width = 500;
}
);
unicode = 00F9;
},
{
glyphname = uacute;
layers = (
{
layerId = "55D69AED-E863-4611-8C8F-E227C62A7D68";
name = Regular;
paths = (
{
closed = 1;
nodes = (
"63 457 LINE",
"135 457 LINE",
"135 202 LINE SMOOTH",
"135 143 OFFCURVE",
"146 105 OFFCURVE",
"166 81 CURVE SMOOTH",
"185 57 OFFCURVE",
"210 47 OFFCURVE",
"239 47 CURVE",
"271 50 OFFCURVE",
"301 63 OFFCURVE",
"325 88 CURVE SMOOTH",
"348 112 OFFCURVE",
"362 150 OFFCURVE",
"362 205 CURVE SMOOTH",
"362 457 LINE",
"435 457 LINE",
"435 41 LINE SMOOTH",
"435 26 OFFCURVE",
"437 12 OFFCURVE",
"440 0 CURVE",
"364 0 LINE",
"363 9 OFFCURVE",
"361 20 OFFCURVE",
"362 35 CURVE",
"363 70 LINE",
"334 19 OFFCURVE",
"281 -11 OFFCURVE",
"221 -11 CURVE SMOOTH",
"174 -11 OFFCURVE",
"138 5 OFFCURVE",
"108 40 CURVE SMOOTH",
"78 75 OFFCURVE",
"62 127 OFFCURVE",
"62 202 CURVE SMOOTH"
);
},
{
closed = 1;
nodes = (
"292 699 LINE",
"355 657 LINE",
"254 522 LINE",
"204 552 LINE"
);
}
);
width = 500;
}
);
unicode = 00FA;
},
{
glyphname = ucircumflex;
layers = (
{
layerId = "55D69AED-E863-4611-8C8F-E227C62A7D68";
name = Regular;
paths = (
{
closed = 1;
nodes = (
"63 457 LINE",
"135 457 LINE",
"135 202 LINE SMOOTH",
"135 143 OFFCURVE",
"146 105 OFFCURVE",
"166 81 CURVE SMOOTH",
"185 57 OFFCURVE",
"210 47 OFFCURVE",
"239 47 CURVE",
"271 50 OFFCURVE",
"301 63 OFFCURVE",
"325 88 CURVE SMOOTH",
"348 112 OFFCURVE",
"362 150 OFFCURVE",
"362 205 CURVE SMOOTH",
"362 457 LINE",
"435 457 LINE",
"435 41 LINE SMOOTH",
"435 26 OFFCURVE",
"437 12 OFFCURVE",
"440 0 CURVE",
"364 0 LINE",
"363 9 OFFCURVE",
"361 20 OFFCURVE",
"362 35 CURVE",
"363 70 LINE",
"334 19 OFFCURVE",
"281 -11 OFFCURVE",
"221 -11 CURVE SMOOTH",
"174 -11 OFFCURVE",
"138 5 OFFCURVE",
"108 40 CURVE SMOOTH",
"78 75 OFFCURVE",
"62 127 OFFCURVE",
"62 202 CURVE SMOOTH"
);
},
{
closed = 1;
nodes = (
"134 545 LINE",
"245 685 LINE",
"267 685 LINE",
"377 544 LINE",
"331 509 LINE",
"253 612 LINE",
"172 510 LINE"
);
}
);
width = 500;
}
);
unicode = 00FB;
},
{
glyphname = udieresis;
layers = (
{
layerId = "55D69AED-E863-4611-8C8F-E227C62A7D68";
name = Regular;
paths = (
{
closed = 1;
nodes = (
"63 457 LINE",
"135 457 LINE",
"135 202 LINE SMOOTH",
"135 143 OFFCURVE",
"146 105 OFFCURVE",
"166 81 CURVE SMOOTH",
"185 57 OFFCURVE",
"210 47 OFFCURVE",
"239 47 CURVE",
"271 50 OFFCURVE",
"301 63 OFFCURVE",
"325 88 CURVE SMOOTH",
"348 112 OFFCURVE",
"362 150 OFFCURVE",
"362 205 CURVE SMOOTH",
"362 457 LINE",
"435 457 LINE",
"435 41 LINE SMOOTH",
"435 26 OFFCURVE",
"437 12 OFFCURVE",
"440 0 CURVE",
"364 0 LINE",
"363 9 OFFCURVE",
"361 20 OFFCURVE",
"362 35 CURVE",
"363 70 LINE",
"334 19 OFFCURVE",
"281 -11 OFFCURVE",
"221 -11 CURVE SMOOTH",
"174 -11 OFFCURVE",
"138 5 OFFCURVE",
"108 40 CURVE SMOOTH",
"78 75 OFFCURVE",
"62 127 OFFCURVE",
"62 202 CURVE SMOOTH"
);
},
{
closed = 1;
nodes = (
"208 640 OFFCURVE",
"213 628 OFFCURVE",
"213 614 CURVE SMOOTH",
"213 587 OFFCURVE",
"190 564 OFFCURVE",
"163 564 CURVE SMOOTH",
"135 564 OFFCURVE",
"112 587 OFFCURVE",
"112 614 CURVE SMOOTH",
"112 641 OFFCURVE",
"135 665 OFFCURVE",
"163 665 CURVE SMOOTH",
"176 665 OFFCURVE",
"188 660 OFFCURVE",
"198 650 CURVE SMOOTH"
);
},
{
closed = 1;
nodes = (
"386 640 OFFCURVE",
"391 628 OFFCURVE",
"391 614 CURVE SMOOTH",
"391 587 OFFCURVE",
"368 564 OFFCURVE",
"341 564 CURVE SMOOTH",
"313 564 OFFCURVE",
"291 586 OFFCURVE",
"291 614 CURVE SMOOTH",
"291 642 OFFCURVE",
"313 665 OFFCURVE",
"341 665 CURVE SMOOTH",
"354 665 OFFCURVE",
"366 660 OFFCURVE",
"376 650 CURVE SMOOTH"
);
}
);
width = 500;
}
);
unicode = 00FC;
},
{
glyphname = yacute;
layers = (
{
layerId = "55D69AED-E863-4611-8C8F-E227C62A7D68";
name = Regular;
paths = (
{
closed = 1;
nodes = (
"59 425 LINE",
"46 457 LINE",
"135 457 LINE",
"135 452 OFFCURVE",
"134 447 OFFCURVE",
"133 444 CURVE",
"132 440 OFFCURVE",
"131 436 OFFCURVE",
"131 433 CURVE SMOOTH",
"131 430 OFFCURVE",
"132 428 OFFCURVE",
"133 427 CURVE",
"267 91 LINE",
"354 336 LINE SMOOTH",
"371 383 OFFCURVE",
"381 424 OFFCURVE",
"388 457 CURVE",
"463 457 LINE",
"457 440 OFFCURVE",
"451 420 OFFCURVE",
"444 398 CURVE SMOOTH",
"437 376 OFFCURVE",
"428 352 OFFCURVE",
"418 325 CURVE SMOOTH",
"294 -2 LINE",
"275 -52 LINE SMOOTH",
"243 -141 OFFCURVE",
"192 -174 OFFCURVE",
"127 -174 CURVE SMOOTH",
"84 -174 OFFCURVE",
"49 -161 OFFCURVE",
"22 -135 CURVE",
"60 -71 LINE",
"62 -73 OFFCURVE",
"64 -76 OFFCURVE",
"65 -80 CURVE",
"68 -89 OFFCURVE",
"67 -87 OFFCURVE",
"72 -93 CURVE SMOOTH",
"77 -99 OFFCURVE",
"86 -106 OFFCURVE",
"99 -111 CURVE",
"106 -114 OFFCURVE",
"113 -115 OFFCURVE",
"121 -115 CURVE SMOOTH",
"160 -115 OFFCURVE",
"188 -95 OFFCURVE",
"217 -32 CURVE",
"231 2 LINE"
);
},
{
closed = 1;
nodes = (
"292 699 LINE",
"355 657 LINE",
"254 522 LINE",
"204 552 LINE"
);
}
);
width = 500;
}
);
unicode = 00FD;
},
{
glyphname = thorn;
layers = (
{
layerId = "55D69AED-E863-4611-8C8F-E227C62A7D68";
name = Regular;
paths = (
{
closed = 1;
nodes = (
"60 665 LINE",
"140 665 LINE",
"140 660 OFFCURVE",
"139 655 OFFCURVE",
"137 649 CURVE",
"134 643 OFFCURVE",
"133 637 OFFCURVE",
"133 632 CURVE SMOOTH",
"133 387 LINE",
"164 436 OFFCURVE",
"220 467 OFFCURVE",
"272 467 CURVE SMOOTH",
"323 467 OFFCURVE",
"370 448 OFFCURVE",
"406 409 CURVE SMOOTH",
"441 370 OFFCURVE",
"463 312 OFFCURVE",
"463 232 CURVE SMOOTH",
"463 152 OFFCURVE",
"439 90 OFFCURVE",
"403 50 CURVE SMOOTH",
"367 9 OFFCURVE",
"319 -12 OFFCURVE",
"271 -12 CURVE SMOOTH",
"215 -12 OFFCURVE",
"165 15 OFFCURVE",
"134 60 CURVE",
"134 -167 LINE",
"60 -167 LINE"
);
},
{
closed = 1;
nodes = (
"133 190 LINE SMOOTH",
"136 91 OFFCURVE",
"183 52 OFFCURVE",
"246 52 CURVE SMOOTH",
"279 52 OFFCURVE",
"314 62 OFFCURVE",
"342 88 CURVE SMOOTH",
"369 114 OFFCURVE",
"388 155 OFFCURVE",
"388 219 CURVE SMOOTH",
"388 336 OFFCURVE",
"337 406 OFFCURVE",
"249 406 CURVE SMOOTH",
"222 406 OFFCURVE",
"193 398 OFFCURVE",
"171 375 CURVE SMOOTH",
"149 352 OFFCURVE",
"133 315 OFFCURVE",
"133 259 CURVE SMOOTH"
);
}
);
width = 500;
}
);
unicode = 00FE;
},
{
glyphname = ydieresis;
layers = (
{
layerId = "55D69AED-E863-4611-8C8F-E227C62A7D68";
name = Regular;
paths = (
{
closed = 1;
nodes = (
"59 425 LINE",
"46 457 LINE",
"135 457 LINE",
"135 452 OFFCURVE",
"134 447 OFFCURVE",
"133 444 CURVE",
"132 440 OFFCURVE",
"131 436 OFFCURVE",
"131 433 CURVE SMOOTH",
"131 430 OFFCURVE",
"132 428 OFFCURVE",
"133 427 CURVE",
"267 91 LINE",
"354 336 LINE SMOOTH",
"371 383 OFFCURVE",
"381 424 OFFCURVE",
"388 457 CURVE",
"463 457 LINE",
"457 440 OFFCURVE",
"451 420 OFFCURVE",
"444 398 CURVE SMOOTH",
"437 376 OFFCURVE",
"428 352 OFFCURVE",
"418 325 CURVE SMOOTH",
"294 -2 LINE",
"275 -52 LINE SMOOTH",
"243 -141 OFFCURVE",
"192 -174 OFFCURVE",
"127 -174 CURVE SMOOTH",
"84 -174 OFFCURVE",
"49 -161 OFFCURVE",
"22 -135 CURVE",
"60 -71 LINE",
"62 -73 OFFCURVE",
"64 -76 OFFCURVE",
"65 -80 CURVE",
"68 -89 OFFCURVE",
"67 -87 OFFCURVE",
"72 -93 CURVE SMOOTH",
"77 -99 OFFCURVE",
"86 -106 OFFCURVE",
"99 -111 CURVE",
"106 -114 OFFCURVE",
"113 -115 OFFCURVE",
"121 -115 CURVE SMOOTH",
"160 -115 OFFCURVE",
"188 -95 OFFCURVE",
"217 -32 CURVE",
"231 2 LINE"
);
},
{
closed = 1;
nodes = (
"208 640 OFFCURVE",
"213 628 OFFCURVE",
"213 614 CURVE SMOOTH",
"213 587 OFFCURVE",
"190 564 OFFCURVE",
"163 564 CURVE SMOOTH",
"135 564 OFFCURVE",
"112 587 OFFCURVE",
"112 614 CURVE SMOOTH",
"112 641 OFFCURVE",
"135 665 OFFCURVE",
"163 665 CURVE SMOOTH",
"176 665 OFFCURVE",
"188 660 OFFCURVE",
"198 650 CURVE SMOOTH"
);
},
{
closed = 1;
nodes = (
"386 640 OFFCURVE",
"391 628 OFFCURVE",
"391 614 CURVE SMOOTH",
"391 587 OFFCURVE",
"368 564 OFFCURVE",
"341 564 CURVE SMOOTH",
"313 564 OFFCURVE",
"291 586 OFFCURVE",
"291 614 CURVE SMOOTH",
"291 642 OFFCURVE",
"313 665 OFFCURVE",
"341 665 CURVE SMOOTH",
"354 665 OFFCURVE",
"366 660 OFFCURVE",
"376 650 CURVE SMOOTH"
);
}
);
width = 500;
}
);
unicode = 00FF;
},
{
glyphname = Abreve;
layers = (
{
layerId = "55D69AED-E863-4611-8C8F-E227C62A7D68";
name = Regular;
paths = (
{
closed = 1;
nodes = (
"15 0 LINE",
"235 634 LINE",
"243 634 LINE",
"483 0 LINE",
"411 0 LINE",
"342 182 LINE",
"144 182 LINE",
"84 0 LINE"
);
},
{
closed = 1;
nodes = (
"326 236 LINE",
"238 474 LINE",
"158 236 LINE"
);
},
{
closed = 1;
nodes = (
"128 784 LINE",
"153 744 OFFCURVE",
"195 714 OFFCURVE",
"240 714 CURVE SMOOTH",
"283 714 OFFCURVE",
"323 737 OFFCURVE",
"359 784 CURVE",
"387 742 LINE",
"352 694 OFFCURVE",
"298 662 OFFCURVE",
"242 662 CURVE SMOOTH",
"185 662 OFFCURVE",
"134 688 OFFCURVE",
"91 739 CURVE"
);
}
);
width = 500;
}
);
unicode = 0102;
},
{
glyphname = abreve;
layers = (
{
layerId = "55D69AED-E863-4611-8C8F-E227C62A7D68";
name = Regular;
paths = (
{
closed = 1;
nodes = (
"91 403 LINE",
"132 446 OFFCURVE",
"186 467 OFFCURVE",
"254 467 CURVE SMOOTH",
"366 467 OFFCURVE",
"435 415 OFFCURVE",
"435 283 CURVE SMOOTH",
"435 0 LINE",
"367 0 LINE",
"367 50 LINE",
"318 9 OFFCURVE",
"264 -11 OFFCURVE",
"203 -11 CURVE SMOOTH",
"155 -11 OFFCURVE",
"117 5 OFFCURVE",
"90 29 CURVE SMOOTH",
"63 53 OFFCURVE",
"49 85 OFFCURVE",
"49 116 CURVE SMOOTH",
"49 208 OFFCURVE",
"131 264 OFFCURVE",
"280 269 CURVE SMOOTH",
"366 269 LINE",
"366 286 LINE SMOOTH",
"366 377 OFFCURVE",
"329 408 OFFCURVE",
"249 408 CURVE SMOOTH",
"200 408 OFFCURVE",
"159 391 OFFCURVE",
"126 357 CURVE"
);
},
{
closed = 1;
nodes = (
"369 214 LINE",
"352 214 LINE SMOOTH",
"343 214 OFFCURVE",
"334 214 OFFCURVE",
"326 215 CURVE",
"317 215 OFFCURVE",
"309 215 OFFCURVE",
"301 215 CURVE SMOOTH",
"228 215 OFFCURVE",
"183 204 OFFCURVE",
"156 187 CURVE SMOOTH",
"129 170 OFFCURVE",
"121 147 OFFCURVE",
"121 122 CURVE SMOOTH",
"121 79 OFFCURVE",
"163 44 OFFCURVE",
"218 44 CURVE SMOOTH",
"258 44 OFFCURVE",
"290 59 OFFCURVE",
"314 77 CURVE SMOOTH",
"338 95 OFFCURVE",
"352 115 OFFCURVE",
"359 130 CURVE",
"366 143 OFFCURVE",
"369 161 OFFCURVE",
"369 184 CURVE SMOOTH"
);
},
{
closed = 1;
nodes = (
"146 646 LINE",
"171 606 OFFCURVE",
"212 576 OFFCURVE",
"259 576 CURVE SMOOTH",
"302 576 OFFCURVE",
"341 599 OFFCURVE",
"378 646 CURVE",
"406 604 LINE",
"370 556 OFFCURVE",
"316 524 OFFCURVE",
"260 524 CURVE SMOOTH",
"203 524 OFFCURVE",
"153 550 OFFCURVE",
"110 601 CURVE"
);
}
);
width = 500;
}
);
unicode = 0103;
},
{
glyphname = Aogonek;
layers = (
{
layerId = "55D69AED-E863-4611-8C8F-E227C62A7D68";
name = Regular;
paths = (
{
closed = 1;
nodes = (
"326 236 LINE",
"238 474 LINE",
"158 236 LINE"
);
},
{
closed = 1;
nodes = (
"15 -1 LINE",
"235 634 LINE",
"243 634 LINE",
"484 0 LINE",
"428 -50 OFFCURVE",
"400 -84 OFFCURVE",
"400 -102 CURVE SMOOTH",
"400 -118 OFFCURVE",
"412 -130 OFFCURVE",
"428 -130 CURVE SMOOTH",
"447 -130 OFFCURVE",
"467 -122 OFFCURVE",
"486 -107 CURVE",
"486 -153 LINE",
"467 -168 OFFCURVE",
"445 -176 OFFCURVE",
"419 -176 CURVE SMOOTH",
"366 -176 OFFCURVE",
"338 -150 OFFCURVE",
"338 -115 CURVE SMOOTH",
"338 -82 OFFCURVE",
"365 -43 OFFCURVE",
"418 0 CURVE",
"411 0 LINE",
"342 182 LINE",
"144 182 LINE",
"84 -1 LINE"
);
}
);
width = 500;
}
);
unicode = 0104;
},
{
glyphname = aogonek;
layers = (
{
layerId = "55D69AED-E863-4611-8C8F-E227C62A7D68";
name = Regular;
paths = (
{
closed = 1;
nodes = (
"369 214 LINE",
"352 214 LINE SMOOTH",
"343 214 OFFCURVE",
"334 214 OFFCURVE",
"326 215 CURVE",
"317 215 OFFCURVE",
"309 215 OFFCURVE",
"301 215 CURVE SMOOTH",
"228 215 OFFCURVE",
"183 204 OFFCURVE",
"156 187 CURVE SMOOTH",
"129 170 OFFCURVE",
"121 147 OFFCURVE",
"121 122 CURVE SMOOTH",
"121 79 OFFCURVE",
"163 44 OFFCURVE",
"218 44 CURVE SMOOTH",
"258 44 OFFCURVE",
"290 59 OFFCURVE",
"314 77 CURVE SMOOTH",
"338 95 OFFCURVE",
"354 117 OFFCURVE",
"359 130 CURVE SMOOTH",
"366 147 OFFCURVE",
"369 165 OFFCURVE",
"369 184 CURVE SMOOTH"
);
},
{
closed = 1;
nodes = (
"91 403 LINE",
"132 446 OFFCURVE",
"186 467 OFFCURVE",
"254 467 CURVE SMOOTH",
"366 467 OFFCURVE",
"435 415 OFFCURVE",
"435 283 CURVE SMOOTH",
"434 0 LINE",
"378 -50 OFFCURVE",
"350 -84 OFFCURVE",
"350 -102 CURVE SMOOTH",
"350 -118 OFFCURVE",
"362 -130 OFFCURVE",
"378 -130 CURVE SMOOTH",
"397 -130 OFFCURVE",
"417 -122 OFFCURVE",
"436 -107 CURVE",
"436 -153 LINE",
"417 -168 OFFCURVE",
"395 -176 OFFCURVE",
"369 -176 CURVE SMOOTH",
"316 -176 OFFCURVE",
"288 -150 OFFCURVE",
"288 -115 CURVE SMOOTH",
"288 -82 OFFCURVE",
"315 -43 OFFCURVE",
"368 0 CURVE",
"367 50 LINE",
"318 9 OFFCURVE",
"263 -11 OFFCURVE",
"203 -11 CURVE SMOOTH",
"155 -11 OFFCURVE",
"117 5 OFFCURVE",
"90 29 CURVE SMOOTH",
"62 53 OFFCURVE",
"49 85 OFFCURVE",
"49 116 CURVE SMOOTH",
"49 207 OFFCURVE",
"131 264 OFFCURVE",
"280 269 CURVE SMOOTH",
"366 269 LINE",
"366 286 LINE SMOOTH",
"366 377 OFFCURVE",
"329 408 OFFCURVE",
"249 408 CURVE SMOOTH",
"200 408 OFFCURVE",
"159 391 OFFCURVE",
"126 357 CURVE"
);
}
);
width = 500;
}
);
unicode = 0105;
},
{
glyphname = Cacute;
layers = (
{
layerId = "55D69AED-E863-4611-8C8F-E227C62A7D68";
name = Regular;
paths = (
{
closed = 1;
nodes = (
"398 490 OFFCURVE",
"397 496 OFFCURVE",
"395 500 CURVE",
"368 544 OFFCURVE",
"323 572 OFFCURVE",
"275 572 CURVE SMOOTH",
"230 572 OFFCURVE",
"189 548 OFFCURVE",
"158 504 CURVE SMOOTH",
"127 459 OFFCURVE",
"109 394 OFFCURVE",
"109 313 CURVE SMOOTH",
"109 234 OFFCURVE",
"127 169 OFFCURVE",
"159 123 CURVE SMOOTH",
"190 77 OFFCURVE",
"233 50 OFFCURVE",
"281 50 CURVE SMOOTH",
"330 50 OFFCURVE",
"380 79 OFFCURVE",
"408 126 CURVE",
"460 92 LINE",
"440 59 OFFCURVE",
"411 33 OFFCURVE",
"380 16 CURVE SMOOTH",
"348 -1 OFFCURVE",
"317 -10 OFFCURVE",
"285 -10 CURVE SMOOTH",
"213 -10 OFFCURVE",
"160 14 OFFCURVE",
"114 66 CURVE SMOOTH",
"68 118 OFFCURVE",
"41 197 OFFCURVE",
"41 308 CURVE SMOOTH",
"41 431 OFFCURVE",
"73 511 OFFCURVE",
"121 560 CURVE SMOOTH",
"169 609 OFFCURVE",
"225 628 OFFCURVE",
"276 628 CURVE SMOOTH",
"317 628 OFFCURVE",
"358 615 OFFCURVE",
"392 594 CURVE SMOOTH",
"426 573 OFFCURVE",
"453 542 OFFCURVE",
"469 505 CURVE",
"402 472 LINE",
"399 474 OFFCURVE",
"398 477 OFFCURVE",
"398 482 CURVE SMOOTH"
);
},
{
closed = 1;
nodes = (
"308 791 LINE",
"348 721 LINE",
"179 660 LINE",
"156 702 LINE"
);
}
);
width = 500;
}
);
unicode = 0106;
},
{
glyphname = cacute;
layers = (
{
layerId = "55D69AED-E863-4611-8C8F-E227C62A7D68";
name = Regular;
paths = (
{
closed = 1;
nodes = (
"406 322 LINE",
"403 324 OFFCURVE",
"401 326 OFFCURVE",
"402 329 CURVE",
"402 331 OFFCURVE",
"402 334 OFFCURVE",
"401 338 CURVE SMOOTH",
"400 342 OFFCURVE",
"397 347 OFFCURVE",
"393 353 CURVE SMOOTH",
"389 359 OFFCURVE",
"381 367 OFFCURVE",
"369 377 CURVE SMOOTH",
"346 396 OFFCURVE",
"315 405 OFFCURVE",
"276 405 CURVE SMOOTH",
"237 405 OFFCURVE",
"201 389 OFFCURVE",
"174 359 CURVE SMOOTH",
"147 329 OFFCURVE",
"130 286 OFFCURVE",
"130 234 CURVE SMOOTH",
"130 182 OFFCURVE",
"147 137 OFFCURVE",
"175 105 CURVE SMOOTH",
"203 73 OFFCURVE",
"242 54 OFFCURVE",
"289 54 CURVE SMOOTH",
"335 54 OFFCURVE",
"375 73 OFFCURVE",
"408 110 CURVE",
"450 61 LINE",
"405 13 OFFCURVE",
"349 -11 OFFCURVE",
"283 -11 CURVE SMOOTH",
"218 -11 OFFCURVE",
"161 14 OFFCURVE",
"121 57 CURVE SMOOTH",
"80 100 OFFCURVE",
"56 159 OFFCURVE",
"56 228 CURVE SMOOTH",
"56 296 OFFCURVE",
"80 357 OFFCURVE",
"121 399 CURVE SMOOTH",
"161 441 OFFCURVE",
"219 466 OFFCURVE",
"286 466 CURVE SMOOTH",
"358 466 OFFCURVE",
"420 434 OFFCURVE",
"457 381 CURVE"
);
},
{
closed = 1;
nodes = (
"292 699 LINE",
"355 657 LINE",
"254 522 LINE",
"204 552 LINE"
);
}
);
width = 500;
}
);
unicode = 0107;
},
{
glyphname = Ccaron;
layers = (
{
layerId = "55D69AED-E863-4611-8C8F-E227C62A7D68";
name = Regular;
paths = (
{
closed = 1;
nodes = (
"398 490 OFFCURVE",
"397 496 OFFCURVE",
"395 500 CURVE",
"368 544 OFFCURVE",
"323 572 OFFCURVE",
"275 572 CURVE SMOOTH",
"230 572 OFFCURVE",
"189 548 OFFCURVE",
"158 504 CURVE SMOOTH",
"127 459 OFFCURVE",
"109 394 OFFCURVE",
"109 313 CURVE SMOOTH",
"109 234 OFFCURVE",
"127 169 OFFCURVE",
"159 123 CURVE SMOOTH",
"190 77 OFFCURVE",
"233 50 OFFCURVE",
"281 50 CURVE SMOOTH",
"330 50 OFFCURVE",
"380 79 OFFCURVE",
"408 126 CURVE",
"460 92 LINE",
"440 59 OFFCURVE",
"411 33 OFFCURVE",
"380 16 CURVE SMOOTH",
"348 -1 OFFCURVE",
"317 -10 OFFCURVE",
"285 -10 CURVE SMOOTH",
"213 -10 OFFCURVE",
"160 14 OFFCURVE",
"114 66 CURVE SMOOTH",
"68 118 OFFCURVE",
"41 197 OFFCURVE",
"41 308 CURVE SMOOTH",
"41 431 OFFCURVE",
"73 511 OFFCURVE",
"121 560 CURVE SMOOTH",
"169 609 OFFCURVE",
"225 628 OFFCURVE",
"276 628 CURVE SMOOTH",
"317 628 OFFCURVE",
"358 615 OFFCURVE",
"392 594 CURVE SMOOTH",
"426 573 OFFCURVE",
"453 542 OFFCURVE",
"469 505 CURVE",
"402 472 LINE",
"399 474 OFFCURVE",
"398 477 OFFCURVE",
"398 482 CURVE SMOOTH"
);
},
{
closed = 1;
nodes = (
"413 755 LINE",
"282 655 LINE",
"260 655 LINE",
"137 753 LINE",
"170 791 LINE",
"273 720 LINE",
"385 788 LINE"
);
}
);
width = 500;
}
);
unicode = 010C;
},
{
glyphname = ccaron;
layers = (
{
layerId = "55D69AED-E863-4611-8C8F-E227C62A7D68";
name = Regular;
paths = (
{
closed = 1;
nodes = (
"406 322 LINE",
"403 324 OFFCURVE",
"401 326 OFFCURVE",
"402 329 CURVE",
"402 331 OFFCURVE",
"402 334 OFFCURVE",
"401 338 CURVE SMOOTH",
"400 342 OFFCURVE",
"397 347 OFFCURVE",
"393 353 CURVE SMOOTH",
"389 359 OFFCURVE",
"381 367 OFFCURVE",
"369 377 CURVE SMOOTH",
"346 396 OFFCURVE",
"315 405 OFFCURVE",
"276 405 CURVE SMOOTH",
"237 405 OFFCURVE",
"201 389 OFFCURVE",
"174 359 CURVE SMOOTH",
"147 329 OFFCURVE",
"130 286 OFFCURVE",
"130 234 CURVE SMOOTH",
"130 182 OFFCURVE",
"147 137 OFFCURVE",
"175 105 CURVE SMOOTH",
"203 73 OFFCURVE",
"242 54 OFFCURVE",
"289 54 CURVE SMOOTH",
"335 54 OFFCURVE",
"375 73 OFFCURVE",
"408 110 CURVE",
"450 61 LINE",
"405 13 OFFCURVE",
"349 -11 OFFCURVE",
"283 -11 CURVE SMOOTH",
"218 -11 OFFCURVE",
"161 14 OFFCURVE",
"121 57 CURVE SMOOTH",
"80 100 OFFCURVE",
"56 159 OFFCURVE",
"56 228 CURVE SMOOTH",
"56 296 OFFCURVE",
"80 357 OFFCURVE",
"121 399 CURVE SMOOTH",
"161 441 OFFCURVE",
"219 466 OFFCURVE",
"286 466 CURVE SMOOTH",
"358 466 OFFCURVE",
"420 434 OFFCURVE",
"457 381 CURVE"
);
},
{
closed = 1;
nodes = (
"377 658 LINE",
"266 518 LINE",
"244 518 LINE",
"134 659 LINE",
"180 694 LINE",
"258 591 LINE",
"339 693 LINE"
);
}
);
width = 500;
}
);
unicode = 010D;
},
{
glyphname = Dcaron;
layers = (
{
layerId = "55D69AED-E863-4611-8C8F-E227C62A7D68";
name = Regular;
paths = (
{
closed = 1;
nodes = (
"54 623 LINE",
"199 623 LINE SMOOTH",
"306 623 OFFCURVE",
"358 593 OFFCURVE",
"399 538 CURVE SMOOTH",
"440 483 OFFCURVE",
"460 405 OFFCURVE",
"460 308 CURVE SMOOTH",
"460 212 OFFCURVE",
"435 136 OFFCURVE",
"393 82 CURVE SMOOTH",
"351 28 OFFCURVE",
"286 -1 OFFCURVE",
"187 -1 CURVE SMOOTH",
"54 -1 LINE"
);
},
{
closed = 1;
nodes = (
"120 564 LINE",
"120 54 LINE",
"184 54 LINE SMOOTH",
"327 54 OFFCURVE",
"390 143 OFFCURVE",
"390 304 CURVE",
"389 467 OFFCURVE",
"335 564 OFFCURVE",
"195 564 CURVE SMOOTH"
);
},
{
closed = 1;
nodes = (
"372 755 LINE",
"241 655 LINE",
"219 655 LINE",
"96 753 LINE",
"129 791 LINE",
"232 720 LINE",
"344 788 LINE"
);
}
);
width = 500;
}
);
unicode = 010E;
},
{
glyphname = dcaron;
layers = (
{
layerId = "55D69AED-E863-4611-8C8F-E227C62A7D68";
name = Regular;
paths = (
{
closed = 1;
nodes = (
"309 665 LINE",
"377 665 LINE",
"377 42 LINE SMOOTH",
"377 24 OFFCURVE",
"378 10 OFFCURVE",
"381 0 CURVE",
"310 0 LINE",
"307 8 OFFCURVE",
"306 19 OFFCURVE",
"306 34 CURVE SMOOTH",
"306 73 LINE",
"277 24 OFFCURVE",
"228 -10 OFFCURVE",
"172 -10 CURVE SMOOTH",
"123 -10 OFFCURVE",
"80 16 OFFCURVE",
"49 59 CURVE SMOOTH",
"18 102 OFFCURVE",
"0 162 OFFCURVE",
"0 233 CURVE SMOOTH",
"0 304 OFFCURVE",
"21 363 OFFCURVE",
"54 404 CURVE SMOOTH",
"87 445 OFFCURVE",
"133 469 OFFCURVE",
"181 469 CURVE SMOOTH",
"237 469 OFFCURVE",
"285 438 OFFCURVE",
"309 390 CURVE"
);
},
{
closed = 1;
nodes = (
"152 410 OFFCURVE",
"123 392 OFFCURVE",
"103 361 CURVE SMOOTH",
"82 330 OFFCURVE",
"70 288 OFFCURVE",
"70 240 CURVE SMOOTH",
"70 192 OFFCURVE",
"81 146 OFFCURVE",
"102 111 CURVE SMOOTH",
"122 76 OFFCURVE",
"152 53 OFFCURVE",
"188 53 CURVE SMOOTH",
"211 53 OFFCURVE",
"239 63 OFFCURVE",
"263 88 CURVE SMOOTH",
"286 112 OFFCURVE",
"303 151 OFFCURVE",
"303 210 CURVE SMOOTH",
"303 251 OFFCURVE",
"303 277 OFFCURVE",
"301 296 CURVE SMOOTH",
"299 315 OFFCURVE",
"294 328 OFFCURVE",
"286 347 CURVE",
"278 364 OFFCURVE",
"263 380 OFFCURVE",
"244 392 CURVE",
"225 403 OFFCURVE",
"205 410 OFFCURVE",
"185 410 CURVE SMOOTH"
);
},
{
closed = 1;
nodes = (
"509 562 OFFCURVE",
"481 511 OFFCURVE",
"424 454 CURVE",
"396 478 LINE",
"427 506 OFFCURVE",
"448 543 OFFCURVE",
"448 563 CURVE SMOOTH",
"448 572 OFFCURVE",
"438 582 OFFCURVE",
"428 591 CURVE",
"418 599 OFFCURVE",
"407 609 OFFCURVE",
"407 624 CURVE SMOOTH",
"407 651 OFFCURVE",
"427 671 OFFCURVE",
"455 671 CURVE SMOOTH",
"483 671 OFFCURVE",
"509 644 OFFCURVE",
"509 605 CURVE SMOOTH"
);
}
);
width = 500;
}
);
unicode = 010F;
},
{
glyphname = Dcroat;
layers = (
{
layerId = "55D69AED-E863-4611-8C8F-E227C62A7D68";
name = Regular;
paths = (
{
closed = 1;
nodes = (
"79 623 LINE",
"218 623 LINE SMOOTH",
"309 623 OFFCURVE",
"369 591 OFFCURVE",
"409 536 CURVE SMOOTH",
"448 480 OFFCURVE",
"466 401 OFFCURVE",
"466 306 CURVE SMOOTH",
"466 246 OFFCURVE",
"452 185 OFFCURVE",
"428 134 CURVE SMOOTH",
"403 82 OFFCURVE",
"366 39 OFFCURVE",
"319 18 CURVE",
"293 5 OFFCURVE",
"255 -1 OFFCURVE",
"206 -1 CURVE SMOOTH",
"79 -1 LINE",
"79 301 LINE",
"30 301 LINE",
"30 359 LINE",
"79 359 LINE"
);
},
{
closed = 1;
nodes = (
"143 301 LINE",
"143 57 LINE",
"203 57 LINE SMOOTH",
"331 57 OFFCURVE",
"399 149 OFFCURVE",
"399 306 CURVE SMOOTH",
"399 466 OFFCURVE",
"342 564 OFFCURVE",
"214 564 CURVE SMOOTH",
"143 564 LINE",
"143 359 LINE",
"248 359 LINE",
"248 301 LINE"
);
}
);
width = 500;
}
);
unicode = 0110;
},
{
glyphname = dcroat;
layers = (
{
layerId = "55D69AED-E863-4611-8C8F-E227C62A7D68";
name = Regular;
paths = (
{
closed = 1;
nodes = (
"122 350 OFFCURVE",
"108 306 OFFCURVE",
"108 244 CURVE SMOOTH",
"108 129 OFFCURVE",
"158 53 OFFCURVE",
"238 53 CURVE SMOOTH",
"263 53 OFFCURVE",
"282 62 OFFCURVE",
"302 76 CURVE SMOOTH",
"322 90 OFFCURVE",
"339 110 OFFCURVE",
"347 135 CURVE SMOOTH",
"354 159 OFFCURVE",
"358 191 OFFCURVE",
"358 231 CURVE SMOOTH",
"358 282 OFFCURVE",
"354 314 OFFCURVE",
"346 338 CURVE",
"337 362 OFFCURVE",
"324 376 OFFCURVE",
"304 388 CURVE SMOOTH",
"280 403 OFFCURVE",
"260 410 OFFCURVE",
"241 410 CURVE SMOOTH",
"202 410 OFFCURVE",
"178 400 OFFCURVE",
"151 376 CURVE SMOOTH"
);
},
{
closed = 1;
nodes = (
"432 544 LINE",
"432 42 LINE SMOOTH",
"432 26 OFFCURVE",
"434 12 OFFCURVE",
"437 0 CURVE",
"365 0 LINE",
"362 8 OFFCURVE",
"361 19 OFFCURVE",
"361 34 CURVE SMOOTH",
"361 73 LINE",
"332 22 OFFCURVE",
"276 -10 OFFCURVE",
"224 -10 CURVE SMOOTH",
"173 -10 OFFCURVE",
"128 10 OFFCURVE",
"94 51 CURVE SMOOTH",
"60 91 OFFCURVE",
"38 152 OFFCURVE",
"38 233 CURVE SMOOTH",
"38 317 OFFCURVE",
"63 376 OFFCURVE",
"100 414 CURVE SMOOTH",
"136 452 OFFCURVE",
"183 469 OFFCURVE",
"230 469 CURVE SMOOTH",
"294 469 OFFCURVE",
"341 438 OFFCURVE",
"364 390 CURVE",
"364 544 LINE",
"288 544 LINE",
"288 597 LINE",
"364 597 LINE",
"364 665 LINE",
"441 665 LINE",
"441 661 OFFCURVE",
"440 657 OFFCURVE",
"437 652 CURVE SMOOTH",
"434 647 OFFCURVE",
"432 642 OFFCURVE",
"432 637 CURVE SMOOTH",
"432 597 LINE",
"476 597 LINE",
"476 544 LINE"
);
}
);
width = 500;
}
);
unicode = 0111;
},
